<?xml version="1.0" encoding="utf-8"?>
<svg xmlns="http://www.w3.org/2000/svg" width="112" height="39" viewBox="0 0 112 39" fill="none">
<path d="M10.8526 38.8672C4.38556 38.8672 0 35.5139 0 29.2872V29.0478H3.54841V29.2078C3.54841 33.2779 6.4658 35.6739 10.883 35.6739C13.249 35.6739 17.7446 34.6371 17.7446 30.8051C17.7446 23.3805 0.866237 28.6485 0.866237 18.0318C0.866237 12.6819 5.78798 10.2885 10.6781 10.2885C16.4357 10.2885 20.3471 13.6418 20.3471 19.0685V19.3091H16.8012V19.0698C16.8012 15.5565 14.3568 13.4818 10.4125 13.4818C7.65197 13.4818 4.41844 14.6798 4.41844 17.8718C4.41844 24.8165 21.2968 19.9478 21.2968 30.6452C21.2968 36.3125 16.0614 38.8672 10.8551 38.8672M41.4858 24.0192C40.9357 24.4978 39.594 24.7385 38.8833 24.8178L36.3605 25.1378C31.6271 25.6958 27.2112 26.6532 27.2112 30.8051C27.2112 34.2378 30.1286 35.6739 32.7311 35.6739C35.4133 35.6739 37.7793 34.7165 39.4359 33.0398C40.7764 31.6025 41.4871 29.6865 41.4871 27.6118L41.4858 24.0192ZM42.1181 38.0685C41.7223 36.6312 41.7223 33.7579 41.7223 33.7579C40.3818 36.7118 37.3064 38.8672 32.4959 38.8672C26.9747 38.8672 23.6615 35.8338 23.6615 30.8845C23.6615 23.6992 30.0489 22.9799 36.2821 22.2631L37.6225 22.1032C40.1453 21.7832 41.4871 21.4632 41.4871 18.6692C41.4871 15.0765 39.4359 13.4805 35.02 13.4805C31.3123 13.4805 28.3152 15.0765 28.3152 19.1492V19.3885H24.7655V19.1492C24.7655 12.8431 29.7353 10.2885 35.4133 10.2885C41.5655 10.2885 45.1 12.7625 45.1 18.5899V33.2792C45.1 34.5565 45.3225 37.2724 45.6387 38.0685H42.1181ZM68.2241 11.0858H68.5402L59.3922 38.0685H55.5277L46.061 11.0858H50.1772L57.4992 33.9498L64.7439 11.0858H68.2241ZM74.5748 3.98372C74.5728 3.31711 74.3102 2.67839 73.8443 2.20714C73.3785 1.73589 72.7473 1.47043 72.0886 1.46874C70.7633 1.46874 69.6037 2.55792 69.6037 3.89925C69.6054 4.56574 69.8677 5.20446 70.3334 5.67575C70.799 6.14703 71.4301 6.41255 72.0886 6.41424C72.7471 6.41255 73.3782 6.14703 73.8439 5.67575C74.3095 5.20446 74.5718 4.56574 74.5735 3.89925V3.98372H74.5748ZM70.2752 11.0858H73.983V38.0685H70.2752V11.0858ZM77.611 0.867188H81.3175V38.0698H77.6123L77.611 0.867188ZM84.8685 0.867188H88.5762V38.0698H84.8685V0.867188ZM101.557 38.8672C95.0104 38.8672 90.6248 35.5139 90.6248 29.2872V29.0478H94.1745V29.2078C94.1745 33.2779 97.1715 35.6739 101.509 35.6739C103.875 35.6739 108.452 34.6371 108.452 30.8051C108.452 23.3805 91.4936 28.6485 91.4936 18.0318C91.4936 12.6819 96.4153 10.2885 101.304 10.2885C107.141 10.2885 111.054 13.6418 111.054 19.0685V19.3091H107.504V19.0698C107.504 15.5565 105.06 13.4818 101.116 13.4818C98.2768 13.4818 95.042 14.6798 95.042 17.8718C95.042 24.8165 112 19.9478 112 30.6452C112 36.3125 106.763 38.8672 101.557 38.8672Z" fill="#212427"/>
</svg>