<?xml version="1.0" encoding="utf-8"?>
<svg xmlns="http://www.w3.org/2000/svg" width="67" height="91" viewBox="0 0 67 91" fill="none">
<g clip-path="url(#clip0_311_693)">
<path d="M37.5743 64.9922H28.973V90.8672H37.5743V64.9922Z" fill="#212427"/>
<path d="M60.4358 82.3171H41.196V90.8671H60.4358V82.3171Z" fill="#212427"/>
<path d="M67 52.6172H53.6453V61.1672H67V52.6172Z" fill="#212427"/>
<path d="M25.125 82.3171H16.75V90.8671H25.3514L25.125 82.3171Z" fill="#212427"/>
<path d="M25.125 34.3921V20.8921L2.48987 48.7921H13.5811L25.125 34.3921Z" fill="#212427"/>
<path d="M28.973 48.7921H37.5743V5.81714L28.973 16.1671V48.7921Z" fill="#212427"/>
<path d="M49.7973 12.7922L41.196 23.3672V78.7172H49.7973V12.7922Z" fill="#212427"/>
<path d="M37.5743 52.6172H0V61.1672H37.5743V52.6172Z" fill="#212427"/>
<path d="M42.5541 0.867188L41.4223 2.44219V17.2922L49.7973 6.71719L42.5541 0.867188Z" fill="#212427"/>
</g>
<defs>
<clipPath id="clip0_311_693">
<rect width="67" height="90" fill="white" transform="translate(0 0.867188)"/>
</clipPath>
</defs>
</svg>