<?xml version="1.0" encoding="utf-8"?>
<svg xmlns="http://www.w3.org/2000/svg" width="117" height="53" viewBox="0 0 117 53" fill="none">
<path d="M115.055 34.5848C113.708 34.5848 111.763 34.4349 110.566 34.1352C109.22 33.6856 108.023 32.7865 106.826 31.7375C106.228 31.2879 105.48 30.6885 104.881 30.2389C103.983 29.6395 103.385 29.3398 102.637 29.3398C101.739 29.3398 100.841 29.7894 99.7941 30.9882C98.298 32.4868 96.0537 35.9335 95.0064 37.2822C95.0064 37.432 94.8568 37.432 94.7072 37.432C94.4079 37.432 94.4079 37.1323 94.4079 36.9825C94.4079 33.0862 93.8095 11.6568 93.3606 5.21301C93.211 2.66546 92.3133 0.867188 91.1164 0.867188C90.0691 0.867188 88.7225 2.21589 87.6752 5.81243C85.2813 15.2534 80.344 36.0833 78.2494 46.5732C78.2494 46.8729 77.8005 46.8729 77.8005 46.5732C77.5013 45.5242 77.3517 44.3254 77.202 43.2764C76.6036 39.9796 76.0051 37.1323 74.9578 35.6338C73.7609 33.8355 71.8159 33.6856 69.5716 35.1842C69.1228 35.4839 68.6739 35.9335 68.0754 36.383C66.5793 37.5819 65.0831 39.0804 62.39 39.0804H35.9079L35.3095 42.5271H62.9885C65.8312 42.5271 68.5243 40.8787 70.0205 39.8297C70.7685 39.2303 71.367 38.9306 71.8159 38.9306C72.4143 38.9306 72.7136 39.53 72.8632 40.4291C73.0128 40.8787 73.1624 41.4781 73.312 42.2274C73.9105 44.6251 74.6586 48.5214 75.5563 51.0689C76.0051 52.2678 76.7532 52.8672 77.5013 52.8672C78.6982 52.8672 79.8951 51.3686 80.6432 49.2706C81.5409 46.2735 87.2263 21.9969 89.6202 11.8067C89.7698 11.3571 89.7698 11.2072 89.7698 11.2072C89.7698 11.0574 89.9194 10.9075 90.0691 10.9075C90.2187 10.9075 90.3683 11.0574 90.3683 11.2072C90.5179 21.5473 91.1164 39.6799 91.8644 41.4781C92.3133 42.5271 92.9118 42.9767 93.8095 42.9767C94.7072 42.9767 95.9041 42.2274 96.6522 41.0286C97.101 40.4291 97.5499 39.6799 98.1483 38.9306C99.4949 36.9825 100.991 34.7346 101.44 34.1352C102.038 33.3859 102.936 33.3859 103.983 34.1352C104.133 34.2851 104.283 34.4349 104.582 34.5848C105.779 35.4839 107.724 36.5329 109.818 37.1323C111.315 37.5819 113.11 37.5819 114.457 37.5819C115.354 37.5819 116.252 37.5819 116.402 37.5819L117 34.2851C116.701 34.5848 115.803 34.5848 115.055 34.5848ZM44.7353 15.7029C49.8223 16.0026 48.1765 26.4925 42.7903 26.1928C37.4041 25.8931 39.0499 15.4032 44.7353 15.7029ZM36.8056 34.1352L38.3018 25.8931C38.9003 27.092 40.546 28.5905 43.2391 28.5905C48.0269 28.5905 51.0192 24.8441 51.3184 20.3485C51.6176 15.7029 48.9246 12.8557 45.633 12.8557C42.7903 12.8557 40.9949 14.2044 39.9476 15.5531V15.4032C40.2468 13.9047 39.0499 13.1554 38.0026 13.1554H36.9552C36.9552 13.1554 34.1125 29.3398 33.8133 31.2879C33.3644 33.5358 35.1599 34.1352 35.7583 34.1352H36.8056ZM31.4194 13.3052H30.3721C30.3721 13.3052 28.876 21.5473 28.7263 22.4464C28.4271 24.3946 27.3798 25.8931 24.6867 25.8931C23.1905 25.8931 21.5448 24.994 21.9936 22.896C22.1432 22.1467 23.1905 16.1525 23.1905 15.5531C23.4898 13.9047 22.1432 13.3052 20.9463 13.3052H20.0486C19.899 14.5041 18.8517 19.8989 18.5524 21.847C18.4028 22.7461 18.4028 23.4954 18.4028 24.0949C18.702 26.9421 21.2455 28.5905 24.2379 28.5905C29.4744 28.5905 31.4194 25.8931 32.0179 22.5963C32.1675 21.5473 33.2148 16.0026 33.3644 15.5531C33.6637 13.9047 32.4668 13.3052 31.4194 13.3052ZM10.4731 16.1525C10.0243 16.3023 9.42583 16.3023 8.2289 16.3023H5.68542L6.88235 9.55883H10.1739C14.2136 9.55883 13.9143 14.9536 10.4731 16.1525ZM8.97698 25.7433C8.52813 25.8931 7.92967 25.8931 6.4335 25.8931H4.03964L5.23657 18.8499H8.82737C13.7647 18.8499 13.3159 24.5444 8.97698 25.7433ZM17.0563 12.2562C17.0563 8.80955 14.812 7.31099 11.0716 7.31099C8.67775 7.31099 5.08696 7.31099 3.74041 7.31099L0 28.2908C0.448849 28.2908 4.48849 28.2908 6.73274 28.2908C8.2289 28.2908 9.72506 28.2908 10.6228 27.9911C14.3632 27.2418 16.009 24.3946 16.3082 22.4464C16.757 19.5992 14.9616 17.8009 13.0166 17.3513C14.2136 16.9018 17.0563 15.4032 17.0563 12.2562ZM61.9412 15.4032C67.477 15.7029 65.6816 26.1928 59.9962 25.8931C55.0588 25.5934 56.7046 15.1035 61.9412 15.4032ZM59.0985 28.5905C62.0908 28.5905 63.587 27.2418 64.6343 25.7433V26.043C64.335 27.3917 65.532 28.2908 66.5793 28.2908H67.477L70.1701 13.3052H66.8785L66.4297 15.5531C65.8312 14.3542 64.1854 12.8557 61.4923 12.8557C56.7046 12.8557 53.8619 16.7519 53.413 20.9479C52.9642 25.7433 55.9565 28.5905 59.0985 28.5905Z" fill="#212427"/>
</svg>