<?xml version="1.0" encoding="utf-8"?>
<svg xmlns="http://www.w3.org/2000/svg" width="135" height="29" viewBox="0 0 135 29" fill="none">
<path fill-rule="evenodd" clip-rule="evenodd" d="M126.149 0.580077V15.0108H134.667V13.1358H128.245V8.64923H134.261V6.77424H128.245V2.42158H134.464V0.580077H126.149ZM20.6873 0.580077L16.6987 10.5242L12.6087 0.580077H10.6144L6.55818 10.5242L2.50196 0.580077H0.40625L6.32157 15.1447H6.72719L11.5946 3.3256L16.3945 15.1447H16.8001L22.7492 0.580077H20.6873ZM45.8697 15.0108H47.9654V0.580077H45.8697V15.0108ZM115.163 9.15146L113.575 8.21396C112.561 7.61129 111.952 7.00861 111.479 6.43942C111.006 5.87023 110.769 5.13362 110.769 4.39702C110.769 3.25863 111.175 2.35462 111.986 1.61802C112.797 0.914896 113.845 0.580077 115.13 0.580077C116.482 0.580077 117.462 0.914896 118.51 1.58454V3.92827C117.462 2.92381 116.313 2.42158 115.096 2.42158C114.42 2.42158 113.845 2.58899 113.406 2.89033C112.966 3.19167 112.73 3.62693 112.73 4.09568C112.73 4.53095 112.831 4.89925 113.169 5.26755C113.507 5.63585 114.082 6.07112 114.792 6.50638L116.448 7.44388C118.239 8.48182 119.051 9.8211 119.051 11.4617C119.051 12.6336 118.645 13.5711 117.868 14.3077C117.09 15.0443 116.076 15.4126 114.825 15.3791C113.372 15.3456 112.087 14.9438 110.871 14.0398V11.4282C112.02 12.8345 113.304 13.5041 114.792 13.5041C115.434 13.5041 116.008 13.3702 116.448 13.0019C116.887 12.6336 117.124 12.1983 117.124 11.6626C117.124 10.7921 116.448 9.95502 115.163 9.15146ZM34.8841 8.98405L32.518 3.76086L30.3209 8.98405H34.8841ZM31.8081 0.580077H33.2954L39.853 15.0778H37.7235L35.7629 10.7921H29.5096L27.6843 15.0778H25.521L31.8081 0.580077ZM53.9483 0.580077H66.2184V2.42158H61.1481V15.0108H59.0524V2.42158H53.9483V0.580077ZM75.4801 2.32114H74.8378V6.87468H75.6491C76.6969 6.87468 77.4406 6.77424 77.8462 6.60683C78.218 6.43942 78.556 6.13808 78.7589 5.80326C78.9955 5.43496 79.0969 5.03318 79.0969 4.56443C79.0969 4.09568 78.9617 3.6939 78.725 3.3256C78.4884 2.9573 78.1504 2.68944 77.6772 2.55551C77.2378 2.42158 76.4941 2.32114 75.4801 2.32114ZM72.7083 15.0108V0.580077H76.4265C77.9138 0.580077 79.0969 0.948378 79.9419 1.6515C80.8208 2.3881 81.2602 3.35908 81.2602 4.59791C81.2602 5.43496 81.0574 6.17156 80.618 6.77424C80.1785 7.37691 79.6039 7.84566 78.8265 8.147C79.2997 8.44833 79.7391 8.85012 80.2123 9.38583C80.6856 9.92154 81.2602 10.8256 82.0714 12.1313C82.5785 12.9349 83.0179 13.5711 83.3221 13.9729L84.0995 15.0108H81.5644C81.5644 15.0108 80.8884 13.9729 80.8208 13.8724L79.7729 12.2653L78.9955 11.1269C78.556 10.5242 78.1504 10.0555 77.8124 9.68717C77.4406 9.35235 77.1702 9.11797 76.8659 8.95056C76.5617 8.78315 76.0547 8.71619 75.3449 8.71619H74.804V15.0108H72.7083ZM96.8428 2.32114C95.1527 2.32114 93.8007 2.82337 92.719 3.86131C91.6373 4.89925 91.0965 6.20504 91.0965 7.81218C91.0965 9.35235 91.6373 10.6581 92.719 11.6961C93.8007 12.734 95.1527 13.2363 96.7752 13.2363C98.3977 13.2363 99.7836 12.7005 100.865 11.6626C101.947 10.6247 102.488 9.28538 102.488 7.74521C102.488 6.20504 101.947 4.93273 100.865 3.89479C99.7836 2.82337 98.4315 2.32114 96.8428 2.32114ZM96.7414 0.345703C99.0061 0.345703 100.899 1.04882 102.386 2.45507C103.907 3.86131 104.651 5.63585 104.651 7.7787C104.651 9.92154 103.907 11.6626 102.386 13.0688C100.865 14.4751 98.9385 15.1447 96.64 15.1447C94.4429 15.1447 92.5838 14.4416 91.1303 13.0688C89.6768 11.6626 88.9332 9.92154 88.9332 7.84566C88.9332 5.70281 89.6768 3.89479 91.1641 2.48855C92.6176 1.04882 94.5105 0.345703 96.7414 0.345703ZM44.281 23.2474H43.4022V25.0554H44.3486C44.9908 25.0554 45.4303 24.7875 45.4303 24.1514C45.3965 23.5487 45.0246 23.2474 44.281 23.2474ZM42.5571 28.3031V22.5108H44.4162C44.9908 22.5108 45.4303 22.6447 45.7683 22.946C46.1063 23.2474 46.2753 23.6491 46.2753 24.1514C46.2753 24.4862 46.2077 24.7875 46.0387 25.0554C45.8697 25.3232 45.6331 25.4906 45.3289 25.6246C44.957 25.7585 44.6528 25.792 44.0444 25.792H43.4022V28.3031C43.4022 28.3031 42.5571 28.3031 42.5571 28.3031ZM52.4948 25.8924L51.5484 23.8165L50.6695 25.8924H52.4948ZM51.2442 22.5108H51.8188L54.4553 28.3366H53.6103L52.8329 26.629H50.3315L49.5879 28.3366H48.709L51.2442 22.5108ZM66.2522 22.5108H71.1872V23.2474H69.1591V28.3031H68.3141V23.2474H66.286V22.5108M79.9081 22.5108H80.7194V28.3031H80.0095L76.0547 23.85V28.3031H75.2773V22.5108H75.9533L79.9419 26.9973L79.9081 22.5108ZM85.6882 22.5108H89.0008V23.2474H86.4995V25.0219H88.8994V25.7585H86.4995V27.5665H89.0684V28.3031H85.6544L85.6882 22.5108ZM59.796 23.2139H59.5594V25.0219H59.8636C60.3031 25.0219 60.5735 24.9884 60.7425 24.9215C61.0805 24.754 61.2495 24.4527 61.2495 24.1179C61.2495 23.7496 61.0467 23.4482 60.6749 23.3143C60.4721 23.2474 60.2017 23.2139 59.796 23.2139ZM58.6806 28.3031V22.5108H60.1679C60.7763 22.5108 61.2157 22.6447 61.5875 22.946C61.9255 23.2474 62.0946 23.6157 62.0946 24.1179C62.0946 24.4527 61.9932 24.754 61.8241 24.9884C61.6551 25.2228 61.4185 25.4237 61.1143 25.5241C61.3171 25.6581 61.4861 25.8255 61.6551 26.0264C61.8241 26.2272 62.0608 26.5956 62.3988 27.1313C62.5678 27.3991 62.7368 27.6335 62.9058 27.8679L63.21 28.2696H62.196C62.196 28.2696 61.9255 27.8679 61.8917 27.8344L61.4523 27.1982L61.1481 26.763C60.9791 26.5286 60.8101 26.3277 60.6749 26.1938C60.5397 26.0598 60.4045 25.9594 60.3031 25.8924C60.2017 25.8255 59.965 25.792 59.6946 25.792H59.4918V28.3031H58.6806Z" fill="#080808"/>
<path fill-rule="evenodd" clip-rule="evenodd" d="M94.5445 23.4483H94.3079V25.2563H94.6122C95.0516 25.2563 95.322 25.2229 95.491 25.1559C95.829 24.9885 95.998 24.6871 95.998 24.3523C95.998 23.984 95.7952 23.6827 95.4234 23.5488C95.2544 23.4818 94.9502 23.4483 94.5445 23.4483ZM93.4291 28.5041V22.7452H94.9164C95.5248 22.7452 95.9642 22.8791 96.336 23.1805C96.6741 23.4818 96.8431 23.8501 96.8431 24.3523C96.8431 24.6871 96.7417 24.9885 96.5727 25.2229C96.4036 25.4572 96.167 25.6581 95.8628 25.7586C96.0656 25.8925 96.2346 26.0599 96.4036 26.2608C96.5727 26.4617 96.8093 26.83 97.1473 27.3657C97.3501 27.7005 97.5191 27.9349 97.6543 28.1023L97.9585 28.5041H96.9445C96.9445 28.5041 96.6741 28.1023 96.6403 28.0688L96.2008 27.4327L95.8966 26.9974C95.7276 26.763 95.5586 26.5621 95.4234 26.4282C95.2882 26.2943 95.153 26.1938 95.0516 26.1269C94.9502 26.0599 94.7136 26.0264 94.4431 26.0264H94.2403V28.5376L93.4291 28.5041ZM103.536 26.0934L102.894 25.7251C102.488 25.4907 102.218 25.2563 102.049 25.022C101.88 24.7876 101.778 24.5197 101.778 24.2184C101.778 23.7496 101.947 23.3813 102.251 23.1135C102.556 22.8456 102.995 22.6782 103.502 22.6782C104.009 22.6782 104.448 22.8122 104.854 23.08V24.0175C104.415 23.6157 103.975 23.4148 103.502 23.4148C103.232 23.4148 102.995 23.4818 102.826 23.6157C102.657 23.7496 102.556 23.9171 102.556 24.0845C102.556 24.2519 102.623 24.4193 102.758 24.5867C102.894 24.7541 103.096 24.888 103.401 25.0554L104.043 25.4237C104.753 25.859 105.125 26.3947 105.125 27.0309C105.125 27.4996 104.956 27.8679 104.651 28.1693C104.347 28.4706 103.941 28.6045 103.434 28.6045C102.86 28.6045 102.319 28.4371 101.846 28.0688V27.0309C102.285 27.6001 102.826 27.8679 103.434 27.8679C103.705 27.8679 103.908 27.801 104.077 27.667C104.246 27.5331 104.347 27.3322 104.347 27.1313C104.313 26.7295 104.043 26.3947 103.536 26.0934ZM32.9914 27.3322C32.4506 27.9349 31.2337 28.1358 30.9633 27.4996C30.6253 26.763 31.2675 26.2943 31.7746 25.9929C31.7746 26.0264 32.721 27.0309 32.9914 27.3322ZM32.0112 23.5153C32.383 23.5153 32.6534 23.6827 32.721 24.0175C32.7886 24.3188 32.5858 24.5867 32.383 24.7876C32.2478 24.9215 32.1126 25.022 31.9436 25.1224C31.7408 24.955 31.6056 24.7876 31.5042 24.5867C31.4028 24.4193 31.3351 24.2519 31.3351 24.0845C31.369 23.7162 31.6732 23.5153 32.0112 23.5153ZM33.9717 27.1983C34.3435 26.7295 34.6477 25.8925 34.7153 25.5912H34.0055C33.9379 25.8255 33.7351 26.2943 33.4985 26.6961L32.4506 25.5577C32.9576 25.2563 33.4985 24.7206 33.4985 24.0845C33.4985 23.7162 33.3295 23.4148 33.059 23.1805C32.7886 22.9461 32.4168 22.8122 32.0112 22.8122C31.5718 22.8122 31.2337 22.9461 30.9633 23.1805C30.6929 23.4148 30.5577 23.7496 30.5915 24.1514C30.6253 24.6202 30.8619 24.955 31.3013 25.4907C31.1661 25.5577 30.8619 25.7586 30.7605 25.859C30.2535 26.2608 29.9493 26.6961 30.0507 27.4327C30.1183 27.9014 30.5239 28.5376 31.5042 28.6045C32.3154 28.6715 32.9914 28.3702 33.5323 27.8679L34.1745 28.5376H35.2224L33.9717 27.1983Z" fill="#080808"/>
</svg>