<?xml version="1.0" encoding="utf-8"?>
<svg xmlns="http://www.w3.org/2000/svg" width="532" height="369" viewBox="0 0 532 369" fill="none">
<path d="M283.638 21.193C285.366 21.8133 286.845 22.9849 287.418 24.7874C288.192 27.5653 287.619 30.5978 286.686 33.2644C285.907 35.6553 284.794 38.2371 285.493 40.7818C286.156 42.1814 287.519 41.5558 288.552 40.9886C291.903 38.9051 295.105 36.5354 298.302 34.2133C301.392 32.0557 304.849 31.1862 308.518 30.5553C309.901 30.3009 311.751 30.6349 312.483 31.9761C312.981 33.1531 313.3 34.4042 313.724 35.6129C317.244 35.931 319.306 33.3598 322.678 34.5526C323.24 36.3498 322.386 37.9615 322.508 39.8329C325.62 39.9018 329.607 39.3823 332.141 41.5771C332.735 43.4644 331.589 44.3497 330.534 45.6751C333.795 46.2211 337.4 46.5763 339.452 49.5345C339.939 50.8493 339.695 52.3549 338.784 53.4258C337.14 55.4986 335.11 57.2905 332.952 58.8068C334.314 58.9976 335.507 58.7961 336.504 59.9307C337.432 60.869 336.705 62.3905 335.741 63.0214C332.867 64.7921 329.039 61.9293 326.198 64.2195C325.085 64.9882 325.201 65.529 325.286 66.743C327.274 67.1618 329.092 67.1194 330.004 69.2506C329.527 70.1783 329.289 71.0637 328.324 71.6203C324.141 74.3559 318.166 74.7641 313.676 72.5481C309.981 70.8728 306.789 68.9961 302.702 68.3759C300.767 68.0525 298.853 67.7503 297.279 69.1976C296.473 69.7913 296.155 71.1167 297.146 71.6893C299.367 73.1578 302.363 73.6773 304.807 74.7535C308.152 76.1743 310.893 78.3267 313.57 80.7335C314.98 82.0589 315.993 83.4373 316.772 85.2132C316.576 85.6533 316.385 86.0933 316.194 86.5333C314.227 87.5247 312.642 86.9415 310.654 86.5386C308.502 86.0668 306.869 87.5936 304.716 88.023C300.56 88.6327 296.674 87.5936 292.852 86.0774C291.956 87.4399 291.585 89.1098 289.899 89.7301C288.112 90.5359 285.997 89.7354 284.263 89.1204C279.169 87.0051 274.482 83.9356 269.271 82.2073C264.669 80.6434 259.469 79.1643 254.575 79.7475C253.123 80.2458 252.354 81.3538 251.856 82.7587C255.302 84.084 258.843 83.7235 261.584 86.6128C262.49 87.4292 262.162 88.4736 262.178 89.5657C259.177 92.1475 254.416 91.2463 250.769 90.9759C244.932 90.6949 238.724 90.3769 232.993 91.6969C228.291 92.6141 223.965 95.6147 221.15 99.4423C222.576 96.394 224.071 93.4093 226.011 90.6472C229.319 85.7434 233.439 82.0271 237.712 78.0086C240.956 74.8542 244.953 72.2724 248.813 69.9292C254.416 66.5363 260.349 64.193 266.53 62.0989C273.904 59.3475 281.581 57.2799 289.257 55.557C298.614 53.1607 308.417 51.83 318.018 50.8175C319.757 50.5365 321.336 50.5153 322.885 49.5769C319.173 49.3543 315.425 49.4921 311.73 49.895C305.872 50.2237 300.019 51.0348 294.198 51.7664C284.391 53.6537 275.034 55.2283 265.586 58.5788C256.542 61.9081 248.023 65.8047 240.277 71.615C234.796 75.9622 229.918 81.094 225.497 86.5015C220.789 92.2271 217.826 98.8857 215.801 105.968C214.65 110.602 215.032 115.75 216.034 120.372C215.069 117.791 214.47 114.986 214.003 112.277C213.139 103.122 214.772 93.5524 217.359 84.7732C219.591 76.1478 224.368 67.7026 230.475 61.2348C232.537 59.3316 234.949 56.4264 238.114 57.5026C239.551 58.5099 239.864 60.7471 241.083 62.0459C241.778 63.1062 243.352 63.1645 244.147 62.1997C245.648 60.5668 246.586 58.3561 246.941 56.1772C247.869 50.791 248.611 44.795 250.668 39.7003C251.898 36.6255 254.21 34.3724 256.94 32.5911C258.721 31.4619 261.096 30.9689 263.143 31.5414C264.463 32.1405 264.505 34.2823 264.919 35.5016C265.486 35.5387 266.053 35.5705 266.62 35.6023C268.29 31.2604 270.575 26.3725 274.106 23.2288C276.592 21.1877 280.542 19.9047 283.638 21.193Z" fill="black"/>
<path d="M397.354 80.2457C397.555 81.0144 397.741 81.7725 397.741 82.5783C397.677 109.785 397.736 137.008 397.725 164.221C397.725 166.675 397.698 169.114 397.863 171.568C404.468 165.562 410.586 159.062 417.123 152.987C422.626 147.712 427.959 142.262 433.52 137.045C436.632 133.986 439.707 130.832 442.941 127.9C443.635 127.19 444.447 127.386 445.348 127.307C462.281 127.264 479.224 127.248 496.162 127.296C488.968 134.336 482.182 141.78 475.057 148.889C464.486 159.831 453.793 170.694 443.349 181.721C443.842 182.415 444.341 183.11 444.86 183.783C463.431 207.38 482.023 230.96 500.61 254.547C485.008 254.6 469.406 254.557 453.804 254.568C451.837 254.547 449.843 254.637 447.882 254.446C446.376 254.282 445.512 252.871 444.595 251.832C435.508 240.434 426.422 229.036 417.282 217.68C415.108 215.046 413.29 212.283 410.91 209.845C406.578 214.277 401.929 218.64 397.82 223.242C397.598 231.793 397.778 240.477 397.746 249.044C397.683 250.91 398.038 252.871 397.311 254.568C382.648 254.504 367.979 254.642 353.315 254.531C353.283 253.767 353.256 252.999 353.251 252.23C353.299 226.603 353.283 200.981 353.341 175.354C353.134 148.316 353.325 121.279 353.256 94.2415C353.347 89.5868 353.15 84.9163 353.325 80.2669C367.989 80.0972 382.69 80.2881 397.354 80.2457Z" fill="black"/>
<path fill-rule="evenodd" clip-rule="evenodd" d="M176.269 79.546C160.801 68.2473 142.203 62.8162 123.929 62.7071C105.152 62.4525 86.432 67.526 70.423 78.9399C57.6286 88.0261 46.8552 101.167 40.2405 116.685C35.1376 128.517 32.1936 141.525 31.7268 154.709C31.2918 158.152 31.3184 161.395 31.7321 164.838C32.2891 188.096 40.511 210.917 54.9445 227.405C69.9775 245.195 91.4129 255.324 112.795 257.391C129.234 259.101 146.426 256.749 161.74 249.554C181.223 240.649 198.065 223.295 206.711 201.31C208.653 196.012 210.387 190.496 211.74 184.968C214.96 169.584 215.214 153.242 212.17 137.797C210.536 129.42 207.74 121.322 204.298 113.709C197.646 99.8521 187.965 87.9958 176.269 79.546ZM158.407 125.945C152.643 116.869 144.066 110.274 134.56 107.604C128.008 105.766 120.928 105.529 114.301 106.979C104.79 108.981 95.8441 114.739 89.6564 123.318C83.6484 131.399 80.1821 141.471 79.083 151.979C78.1002 163.646 79.0196 175.247 83.4741 185.919C89.7251 201.244 103.015 212.238 117.747 213.767C132.685 216.018 148.368 209.125 157.641 195.371C163.311 187.114 166.455 177.012 167.253 166.583C167.443 162.172 167.443 157.634 167.232 153.223C166.429 143.406 163.559 133.887 158.407 125.945Z" fill="black"/>
<path fill-rule="evenodd" clip-rule="evenodd" d="M302.352 127.975C296.923 126.676 291.325 125.849 285.748 125.7C280.95 125.239 275.977 125.186 271.18 125.631C259.649 125.992 248.124 128.409 237.271 132.285C233.285 133.759 229.484 135.545 225.725 137.517C225.624 137.572 225.523 137.627 225.422 137.681C224.142 138.371 222.921 139.029 221.977 140.184C224.082 144.879 226.406 149.477 228.73 154.078C229.77 156.137 230.811 158.197 231.832 160.266C232.524 161.557 233.156 162.875 233.787 164.193C234.626 165.944 235.464 167.694 236.444 169.379C237.271 169.257 237.95 169.056 238.645 168.584C246.475 163.41 255.758 160.356 265.046 159.264C273.427 158.787 282.042 158.612 289.464 163.155C295.126 166.431 298.286 173.026 298.318 179.436C294.65 179.485 290.979 179.482 287.307 179.478C283.076 179.474 278.844 179.471 274.615 179.547C272.463 179.729 270.305 179.768 268.147 179.808C265.892 179.849 263.639 179.89 261.393 180.093C251.061 180.968 240.14 183.173 231.233 188.745C227.655 191.189 224.071 194.137 221.765 197.853C218.679 202.889 216.569 208.631 216.447 214.584C216.444 214.825 216.44 215.065 216.436 215.305C216.378 218.839 216.321 222.268 217.115 225.744C218.865 234.444 223.975 242.316 231.207 247.459C238.22 252.601 246.406 255.05 254.952 256.121C256.023 256.184 257.085 256.267 258.142 256.35C261.648 256.624 265.099 256.894 268.672 256.397C277.817 255.899 286.617 253.396 293.801 247.533C296.78 245.009 299.187 241.691 301.26 238.409C301.441 241.732 301.426 245.065 301.411 248.397C301.402 250.445 301.393 252.492 301.43 254.536C310.009 254.606 318.588 254.586 327.166 254.566C331.564 254.555 335.961 254.545 340.358 254.547C341.222 254.584 341.97 254.351 342.776 254.07C342.87 250.02 342.83 245.963 342.791 241.91C342.779 240.754 342.768 239.597 342.76 238.441C342.807 220.591 342.818 202.741 342.675 184.891C342.717 183.086 342.59 181.297 342.462 179.506C342.364 178.124 342.266 176.741 342.245 175.348C341.445 163.579 337.543 152.006 329.596 143.11C322.349 135.163 312.695 130.493 302.352 127.975ZM289.862 202.563C288.137 202.559 286.412 202.555 284.688 202.545C283.74 202.553 282.805 202.549 281.877 202.546C277.256 202.529 272.841 202.513 268.253 203.913C265.136 204.925 262.236 206.547 260.688 209.569C259.294 212.146 259.251 214.934 259.559 217.786C260.052 221.142 262.056 224.085 264.934 225.861C268.72 228.347 273.38 228.819 277.801 228.649C284.56 228.379 291.219 225.389 295.211 219.801C295.251 219.741 295.292 219.681 295.333 219.62C296.559 217.803 297.998 215.672 298.265 213.487C298.329 210.567 298.307 207.639 298.285 204.713C298.279 204.012 298.274 203.31 298.27 202.608C295.467 202.576 292.664 202.569 289.862 202.563Z" fill="black"/>
<path d="M193.805 262.737C196.445 262.34 199.329 263.273 201.1 265.309C202.733 267.058 202.77 270.069 201.932 272.185C199.849 276.791 193.004 277.555 189.458 274.3C187.199 272.285 186.722 268.643 188.276 266.067C189.511 264.121 191.557 263.05 193.805 262.737Z" fill="black"/>
<path d="M63.4424 267.525C63.225 270.626 61.5869 273.616 60.6697 276.574C58.2152 275.249 54.8381 274.528 52.3252 276.002C49.8972 277.65 50.0615 280.635 50.0456 283.227C53.6665 283.217 57.2874 283.233 60.903 283.211C60.8924 286.355 60.9348 289.499 60.8606 292.637C57.351 292.648 53.8468 292.659 50.3372 292.675C50.1994 303.309 50.2736 313.955 50.2948 324.595C46.2286 324.589 42.1571 324.595 38.0856 324.573C38.0856 313.944 38.0856 303.32 38.0909 292.69C35.9279 292.637 33.7702 292.627 31.6072 292.637C31.5701 289.51 31.586 286.387 31.5913 283.259C33.749 283.249 35.9014 283.233 38.0538 283.222C38.0538 279.919 38.3665 276.516 39.7979 273.489C41.4891 270.037 44.6806 267.498 48.3704 266.47C53.2848 265.081 58.7877 265.372 63.4424 267.525Z" fill="black"/>
<path d="M362.386 266.263C364.177 266.109 366.001 266.215 367.798 266.22C367.809 285.682 367.841 305.149 367.825 324.611C365.98 324.6 364.135 324.595 362.295 324.595C362.391 305.223 362.28 285.618 362.386 266.263Z" fill="black"/>
<path d="M210.902 273.059C214.952 272.911 219.034 273.038 223.09 273.001C223.148 276.415 223.037 279.824 223.154 283.233C226.674 283.217 230.189 283.222 233.704 283.222C233.688 286.366 233.709 289.504 233.672 292.648C230.152 292.643 226.637 292.643 223.122 292.675C223.111 298.273 223.09 303.882 223.101 309.486C223.164 311.553 223.52 313.483 225.364 314.692C227.983 316.213 230.957 315.54 233.38 313.992C234.292 316.924 236.042 319.76 236.381 322.819C230.279 326.206 222.056 326.275 216.188 322.352C212.339 319.68 211.072 314.999 210.897 310.541C210.838 304.571 210.96 298.596 210.817 292.627C208.675 292.675 206.534 292.664 204.392 292.632C204.265 289.504 204.365 286.361 204.334 283.222C206.507 283.233 208.686 283.222 210.86 283.228C210.923 279.84 210.812 276.442 210.902 273.059Z" fill="black"/>
<path d="M138.06 281.621C138.044 285.364 138.034 289.107 138.06 292.85C134.01 292.579 129.869 292.749 126.906 295.909C124.165 298.93 124.128 302.44 123.958 306.299C123.974 312.396 123.958 318.498 123.969 324.595C119.887 324.579 115.805 324.6 111.723 324.568C111.675 310.456 111.739 296.338 111.717 282.226C115.609 282.183 119.505 282.295 123.396 282.194C123.555 283.122 123.672 284.044 123.752 284.977C124.414 285.104 125.077 285.232 125.74 285.353C129.117 282.682 133.824 281.605 138.06 281.621Z" fill="black"/>
<path d="M172.944 282.655C177.763 284.092 181.633 288.402 183.011 293.178C184.337 297.266 183.653 301.905 184.008 306.289C184.077 312.38 184.013 318.477 184.034 324.573C179.973 324.626 175.907 324.579 171.846 324.589C171.661 317.077 171.719 309.576 171.682 302.064C171.687 298.946 170.945 295.331 168.141 293.518C165.05 291.572 160.581 291.858 157.485 293.65C154.256 295.527 153.037 299.593 153 303.119C152.973 310.275 152.978 317.432 152.989 324.584C148.886 324.584 144.782 324.573 140.679 324.595C140.578 310.466 140.679 296.327 140.674 282.199C144.592 282.273 148.509 282.204 152.427 282.231C152.438 283.318 152.448 284.399 152.438 285.481C153.1 285.677 153.525 285.952 154.145 285.465C159.446 281.68 166.762 280.725 172.944 282.655Z" fill="black"/>
<path d="M312.653 281.642C312.748 285.364 312.674 289.096 312.684 292.823C308.862 292.632 305.294 292.643 302.214 295.235C299.844 297.425 298.715 301.014 298.742 304.179C298.699 310.975 298.779 317.777 298.726 324.573C294.649 324.6 290.572 324.573 286.495 324.589C286.474 310.461 286.517 296.338 286.49 282.21C290.381 282.22 294.278 282.236 298.174 282.236C298.19 284.001 298.196 285.772 298.201 287.538C299.691 286.096 301.09 284.733 302.962 283.789C305.909 282.284 309.36 281.642 312.653 281.642Z" fill="black"/>
<path d="M63.7393 282.178C67.8214 282.215 71.9035 282.215 75.9856 282.231C75.9697 289.854 75.9273 297.483 76.0174 305.106C76.1606 308.627 77.0565 312.067 80.4176 313.79C84.1604 315.412 89.4248 314.76 92.0013 311.336C94.0953 308.568 94.3339 305.403 94.4558 302.058C94.4611 295.447 94.4558 288.831 94.4664 282.22C98.5433 282.231 102.62 282.183 106.697 282.241C106.718 296.348 106.734 310.461 106.707 324.568C102.806 324.6 98.9091 324.6 95.0072 324.595C94.986 323.078 94.9648 321.562 94.9277 320.051C94.2915 320.486 93.6765 320.953 93.0616 321.419C88.8363 324.849 82.8139 326.031 77.5495 324.823C74.1725 324.277 71.0129 322.877 68.6113 320.396C65.2025 317.146 63.9089 311.914 63.7711 307.36C63.7128 298.967 63.7446 290.57 63.7393 282.178Z" fill="black"/>
<path d="M188.853 282.204C192.925 282.257 197.002 282.173 201.073 282.226C201.073 296.343 201.057 310.461 201.078 324.573C197.002 324.611 192.92 324.568 188.843 324.589C188.816 310.461 188.875 296.333 188.853 282.204Z" fill="black"/>
<path d="M238.735 282.199C242.695 282.204 246.66 282.279 250.621 282.204C251.119 284.076 250.875 285.82 250.917 287.744C250.933 293.576 250.859 299.407 250.992 305.234C251.034 308.155 251.888 311.5 254.406 313.265C256.367 314.639 258.536 314.681 260.836 314.548C263.227 314.405 265.523 313.324 266.97 311.383C269.043 308.717 269.255 305.297 269.404 302.058C269.441 295.453 269.388 288.842 269.425 282.236C273.507 282.236 277.584 282.188 281.666 282.236C281.634 296.343 281.713 310.456 281.629 324.563C277.748 324.616 273.862 324.584 269.976 324.589C269.955 323.078 269.944 321.573 269.907 320.067C268.121 321.154 266.673 322.591 264.744 323.46C261.674 324.823 258.361 325.565 254.994 325.215C251.363 324.706 247.959 323.996 245.001 321.674C240.717 318.334 238.782 312.661 238.751 307.37C238.66 298.983 238.751 290.591 238.735 282.199Z" fill="black"/>
<path d="M415.861 283.233C417.637 283.233 419.408 283.233 421.184 283.238C421.179 285.661 421.131 288.068 421.242 290.485C422.424 289.033 423.511 287.612 425.054 286.504C428.797 283.763 433.324 282.841 437.905 283.058C442.761 283.021 447.665 284.924 450.57 288.948C453.019 292.362 453.883 296.858 453.926 300.993C453.92 308.86 453.91 316.722 453.936 324.589C452.054 324.605 450.178 324.6 448.296 324.579C448.396 317.427 448.349 310.27 448.354 303.119C448.343 301.353 448.359 299.545 448.142 297.791C447.643 294.673 446.292 291.784 443.646 289.939C440.677 287.93 437.131 287.702 433.664 287.999C430.435 288.333 427.365 289.52 425.155 291.97C422.361 294.848 421.491 298.692 421.343 302.588C421.316 309.915 421.343 317.257 421.348 324.589C419.503 324.595 417.664 324.6 415.819 324.611C415.84 310.816 415.819 297.027 415.861 283.233Z" fill="black"/>
<path fill-rule="evenodd" clip-rule="evenodd" d="M499.297 266.166C497.971 266.155 496.642 266.145 495.325 266.242C495.303 269.529 495.303 272.827 495.302 276.127C495.3 281.078 495.299 286.034 495.229 290.968C492.08 286.562 487.372 283.508 481.901 283.121C479.123 282.994 476.064 282.931 473.382 283.736C467.455 285.47 462.387 289.844 460.287 295.723C457.329 303.596 458.776 313.971 465.377 319.648C468.966 323.105 473.727 324.955 478.72 324.754C482.787 324.913 486.704 324.266 490.119 321.944C492.252 320.66 493.663 318.819 495.137 316.897C495.245 316.756 495.353 316.615 495.462 316.473C495.473 319.166 495.478 321.854 495.462 324.547C497.222 324.568 498.982 324.573 500.741 324.579H500.743C500.771 311.6 500.766 298.618 500.762 285.638C500.759 279.149 500.757 272.661 500.759 266.173C500.272 266.174 499.785 266.17 499.297 266.166ZM491.391 292.611C488.162 288.942 482.792 287.182 477.999 287.792C473.668 288.253 469.613 290.533 467.169 294.17C465.234 297.149 464.385 300.643 464.502 304.179C464.481 307.779 465.467 311.309 467.656 314.193C470.498 317.92 475.062 320.221 479.781 320.02C484.531 320.221 489.138 318.1 492.022 314.321C496.629 308.075 496.433 298.575 491.391 292.611Z" fill="black"/>
<path fill-rule="evenodd" clip-rule="evenodd" d="M353.156 290.872C350.145 286.499 345.463 283.35 340.247 282.295C332.904 280.603 324.512 282.353 318.866 287.463C311.094 294.567 309.795 307.328 315.945 315.858C319.11 320.502 324.348 323.423 329.766 324.558C336.366 326.111 344.032 325.305 349.848 321.668C351.115 320.847 352.392 319.898 353.373 318.742C353.574 318.243 353.272 317.893 352.971 317.546C352.892 317.454 352.812 317.362 352.742 317.268C352.013 316.467 351.264 315.686 350.514 314.905C349.39 313.734 348.266 312.563 347.213 311.325C343.131 315.275 337.14 316.314 331.78 314.718C328.038 313.584 325.456 310.79 324.427 307.031C329.474 306.907 334.527 306.923 339.579 306.939C342.489 306.949 345.397 306.958 348.305 306.941C349.232 306.918 350.166 306.93 351.101 306.943C352.923 306.967 354.747 306.992 356.528 306.75C357.058 301.173 356.252 295.633 353.156 290.872ZM341.121 292.807C338.492 290.782 334.982 290.771 331.844 291.217C327.709 292.081 324.894 295.638 324.295 299.72C326.123 299.723 327.951 299.728 329.779 299.732C334.901 299.745 340.023 299.758 345.145 299.731C344.721 296.942 343.412 294.498 341.121 292.807Z" fill="black"/>
<path fill-rule="evenodd" clip-rule="evenodd" d="M404.718 287.516C402.639 285.21 399.533 283.948 396.543 283.344C389.052 282.395 380.697 283.312 374.95 288.667C375.079 288.871 375.207 289.075 375.336 289.28C376.011 290.352 376.685 291.423 377.389 292.478C381.375 289.42 386.184 287.601 391.247 287.808C394.984 287.739 398.653 288.63 400.98 291.757C402.888 294.473 402.848 297.277 402.804 300.376C402.8 300.653 402.796 300.933 402.793 301.215C402.04 301.214 401.286 301.211 400.532 301.209C396.379 301.198 392.221 301.186 388.066 301.258C384.159 301.502 380.14 302.164 377.166 304.937C373.487 307.98 372.914 313.801 374.839 317.947C376.959 322.034 381.402 324.547 385.95 324.706C386.334 324.714 386.715 324.724 387.093 324.733C390.555 324.823 393.778 324.906 397.057 323.386C399.586 322.331 401.441 320.566 403.074 318.418C403.123 320.322 403.118 322.221 403.113 324.123C403.112 324.282 403.112 324.441 403.111 324.6C404.898 324.6 406.684 324.595 408.471 324.573C408.472 322.862 408.473 321.151 408.475 319.439C408.48 312.586 408.485 305.728 408.476 298.877C408.418 294.96 407.39 290.517 404.718 287.516ZM396.642 305.419C393.957 305.411 391.271 305.404 388.585 305.425C386.29 305.509 383.575 305.918 381.699 307.338C378.131 309.915 378.571 316.192 382.133 318.583C388.755 323.19 399.549 320.258 402.629 312.693C402.883 311.14 402.849 309.525 402.815 307.921C402.798 307.083 402.78 306.247 402.804 305.425C400.75 305.431 398.696 305.425 396.642 305.419Z" fill="black"/>
</svg>