<?xml version="1.0" encoding="utf-8"?>
<svg xmlns="http://www.w3.org/2000/svg" width="260" height="110" viewBox="0 0 260 110" fill="none">
<g clip-path="url(#clip0_4_34)">
<path fill-rule="evenodd" clip-rule="evenodd" d="M259.273 109.81H0V0H259.273V109.81ZM4.55501 5.19781H254.724V52.9255H4.55501V5.19781ZM49.9958 40.6307H41.5362C37.1906 40.6307 32.7514 39.9033 32.7514 34.5038V32.8534V32.4318H33.1701H36.0299H36.4507V32.8534V34.4426C36.4507 36.248 37.1967 37.2931 41.0057 37.2931H50.4613C54.9655 37.2931 55.7663 36.3091 55.7663 33.538C55.7663 31.1479 55.1463 30.4042 51.2702 30.4042H45.4855C36.217 30.4042 32.7169 29.8052 32.7169 23.4358C32.7169 17.8162 36.2922 16.7179 42.4692 16.7179H49.0303C56.2297 16.7179 58.9066 18.4459 58.9066 23.0915V23.8739V24.2938H58.4858H55.624H55.2134L55.2053 23.8802C55.1506 20.7118 55.1383 20.0538 47.197 20.0538H43.9632C37.9467 20.0538 36.4203 20.4061 36.4203 23.6541C36.4203 25.9504 36.8654 26.8205 41.5993 26.8205H50.6178C56.7379 26.8205 59.4656 28.6603 59.4656 32.7904V34.2554C59.4656 40.6307 53.5391 40.6307 49.9963 40.6307H49.9958ZM89.8915 40.3812H90.3122V39.9592V37.4653V37.0437H89.8915H71.1227V29.9998H89.0216H89.4423V29.5799V27.0839V26.6623H89.0216H71.1227V20.303H89.7675H90.1883V19.8814V17.3875V16.9675H89.7675H67.6551H67.2343V17.3875V39.9595V40.3812H67.6551H89.8915ZM113.398 40.3811H113.15H109.419H109.171L109.051 40.1634L96.5789 17.5934L96.2334 16.9679H96.9468H100.37H100.618L100.738 17.1856L111.285 36.3447L121.834 17.1856L121.954 16.9679H122.202H125.624H126.336L125.992 17.5934L113.518 40.1634L113.398 40.3811ZM155.635 40.3811H156.056V39.9594V37.4675V37.0436H155.635H136.867V29.9977H154.764H155.184V29.5778V27.0839V26.6623H154.764H136.867V20.303H155.509H155.93V19.8814V17.3875V16.9658H155.509H133.399H132.979V17.3875V39.9594V40.3811H133.399H155.635ZM189.457 40.3814H189.034H186.174H185.754V39.9597V35.0043C185.754 31.9582 184.558 31.4651 181.694 31.4651H167.249V39.9597V40.3814H166.828H163.781H163.361V39.9597V17.3876V16.966H163.781H181.788C188.506 16.966 189.735 19.2624 189.735 23.7796V25.6195C189.735 28.4028 188.372 29.5213 186.884 29.9941C188.65 30.7256 189.457 32.0663 189.457 34.1915V39.9598L189.457 40.3814ZM167.249 28.1275H181.446C185.111 28.1275 185.847 27.0354 185.847 25.277V23.219C185.847 21.2365 185.339 20.3033 180.7 20.3033H167.249V28.1275ZM226.143 40.3804H226.562L226.562 39.9605V17.3864V16.9665H226.143H223.094H222.674V17.3864V36.2297L202.765 17.0828L202.643 16.9668H202.474H197.933H197.514V17.3866V39.9607V40.3807H197.933H200.98H201.4V39.9607V21.1175L221.312 40.2643L221.434 40.3804H221.603H226.143ZM4.55508 57.4855H254.724V105.213H4.55508V57.4855ZM64.8363 92.6707H64.4156H61.3687H60.948V92.2491V72.5928H49.9863H49.5655V72.1729V69.6768V69.257H49.9863H75.8H76.2208V69.6768V72.1729V72.5928H75.8H64.8363V92.2491L64.8363 92.6707ZM108.664 92.6709H109.085L109.085 92.2491V86.4807C109.085 84.3555 108.278 83.0149 106.511 82.2854C108.003 81.8127 109.365 80.692 109.365 77.9088V76.0688C109.365 71.5516 108.138 69.2573 101.42 69.2573H83.4133H82.9925V69.6772V92.2492V92.6709H83.4133H86.4601H86.8809V92.2492V83.7526H101.326C104.186 83.7526 105.385 84.2457 105.385 87.2939V92.2492V92.6709H105.804H108.664ZM101.078 80.4191H86.8809V72.5929H100.33C104.969 72.5929 105.479 73.5281 105.479 75.5066V77.5665C105.479 79.327 104.741 80.4191 101.078 80.4191ZM140.308 92.6707H139.889H117.653H117.232V92.2491V69.6771V69.2572H117.653H139.763H140.184V69.6771V72.1731V72.593H139.763H121.119V78.9522H139.018H139.438V79.3738V81.8678V82.2895H139.018H121.119V89.3332H139.889H140.308V89.7548V92.2489V92.6707ZM176.243 92.6716H176.664V92.252V69.6779V69.2563H176.243H173.196H172.776V69.6779V88.5212L152.866 69.3743L152.744 69.2559H152.575H148.035H147.616V69.6776V92.2516V92.6715H148.035H151.084H151.502V92.2516V73.4083L171.412 92.5532L171.535 92.6716H171.704H176.243ZM198.737 92.6707H198.316H195.268H194.849V92.2491V72.5929H183.885H183.464V72.1712V69.6772V69.2556H183.885H209.701H210.12V69.6772V72.1712V72.5929H209.701H198.737V92.2491L198.737 92.6707Z" fill="black"/>
</g>
<defs>
<clipPath id="clip0_4_34">
<rect width="259.273" height="109.81" fill="white"/>
</clipPath>
</defs>
</svg>