<?xml version="1.0" encoding="utf-8"?>
<svg xmlns="http://www.w3.org/2000/svg" width="260" height="256" viewBox="0 0 260 256" fill="none">
<g clip-path="url(#clip0_4_87)">
<path fill-rule="evenodd" clip-rule="evenodd" d="M0 127.931C0 57.1606 57.9488 0 129.501 0C201.052 0 259.273 57.1606 259.001 127.931C259.001 198.701 201.052 255.862 129.501 255.862C57.9488 255.862 0 198.701 0 127.931ZM114.81 106.972C105.56 106.972 97.3982 113.505 94.9496 122.487H134.67C132.494 113.232 124.332 106.972 114.81 106.972ZM143.376 122.215C143.92 124.392 143.376 126.57 142.016 128.203C140.656 129.836 138.207 130.925 135.215 130.925H94.4055V131.197L95.2217 134.464C97.9423 140.996 104.2 148.073 114.81 148.073C118.075 148.073 121.339 147.257 124.332 145.623C126.509 144.262 128.413 142.901 130.045 140.996L130.045 140.996C130.59 140.452 131.134 139.907 131.406 139.363C132.766 137.73 134.126 137.458 134.942 137.458C135.759 137.458 136.847 138.002 137.663 138.546C138.479 139.091 139.023 140.18 139.295 141.268C139.295 142.357 139.023 143.718 138.207 144.807L137.935 145.079C135.487 148.345 133.038 150.523 130.59 152.156C127.869 153.789 125.148 155.15 122.156 156.511C119.707 157.056 117.531 157.328 115.082 157.328C113.722 157.328 112.634 157.328 111.545 157.056C99.5747 155.422 89.7805 146.712 86.7878 135.28C86.2437 132.83 85.9716 130.653 85.9716 128.203C85.9716 118.676 90.5967 109.694 98.2143 104.25C103.111 100.712 108.825 98.8062 115.082 98.8062C120.523 98.8062 125.964 100.167 130.59 103.161C137.119 107.516 141.744 114.049 143.376 122.215ZM201.598 119.765C197.517 119.765 194.252 123.031 194.252 127.114C194.252 131.197 197.517 134.463 201.598 134.463C205.679 134.463 208.943 131.197 208.943 127.114C208.943 123.304 205.679 119.765 201.598 119.765ZM170.038 99.0783C172.487 99.0783 174.391 100.712 174.391 103.161C174.391 105.611 172.759 107.244 170.038 107.516H168.406C159.972 108.605 159.156 112.688 159.156 122.215V151.884C159.156 154.061 157.524 155.967 155.075 155.967C152.899 155.967 150.994 154.061 150.994 151.884V103.433C150.994 101.256 152.627 99.3505 155.075 99.3505C156.98 99.3505 158.612 100.711 159.156 102.345C161.877 100.167 165.413 99.0783 168.95 99.0783H170.038ZM63.935 127.659L85.6998 105.883C86.516 105.067 87.0601 103.978 87.0601 102.889C87.0601 100.439 85.1557 98.8062 82.7071 98.8062C81.6189 98.8062 80.5307 99.3505 79.7145 100.167L57.9497 121.943L36.1848 100.167C35.3687 99.3505 34.2804 99.0784 33.1922 99.0784C30.7436 99.0784 29.1113 100.984 29.1113 103.161C29.1113 104.25 29.6554 105.339 30.4716 106.155L52.2364 127.931L30.4716 149.706C29.6554 150.523 29.1113 151.612 29.1113 152.7C29.1113 154.878 31.0157 156.783 33.1922 156.783C34.2804 156.783 35.3687 156.239 36.1848 155.695L57.9497 133.919L79.7145 155.422C80.5307 156.239 81.6189 156.783 82.7071 156.783C85.1557 156.783 87.0601 154.878 87.0601 152.7C87.0601 151.612 86.516 150.523 85.6998 149.706L63.935 127.659ZM181.193 127.114C181.193 138.546 190.443 147.529 201.598 147.529C212.752 147.529 222.002 138.546 222.002 127.114C222.002 115.682 212.752 106.7 201.598 106.7C190.443 106.7 181.193 115.954 181.193 127.114ZM172.487 127.114C172.487 111.327 185.546 98.2618 201.598 98.2618C217.649 98.2618 230.708 111.327 230.708 127.114C230.708 142.902 217.649 155.967 201.598 155.967C185.546 155.967 172.487 143.174 172.487 127.114Z" fill="black"/>
</g>
<defs>
<clipPath id="clip0_4_87">
<rect width="259.273" height="255.862" fill="white"/>
</clipPath>
</defs>
</svg>