<?xml version="1.0" encoding="utf-8"?>
<svg xmlns="http://www.w3.org/2000/svg" width="260" height="60" viewBox="0 0 260 60" fill="none">
<g clip-path="url(#clip0_4_60)">
<path d="M3.81494 4.10651H15.3221V22.9205H15.423C17.139 19.1979 21.8832 16.8839 26.1227 16.8839C37.8317 16.8839 38.7402 25.7376 38.7402 31.0699V54.5119H27.233V36.8046C27.233 31.7741 27.7377 26.7437 21.4794 26.7437C17.139 26.7437 15.2212 30.5668 15.2212 34.5912V54.5119H3.81494V4.10651Z" fill="black"/>
<path d="M44.6955 29.1583C44.8974 24.329 47.0171 21.2101 50.1463 19.2986C53.2754 17.4876 57.313 16.7833 61.2497 16.7833C69.5267 16.7833 77.6019 18.6949 77.6019 29.0577V45.0546C77.6019 48.1735 77.6019 51.5943 78.9142 54.4113H67.5079C67.1042 53.3046 67.0032 52.1979 66.8014 50.9906C63.8741 54.2101 59.4327 55.518 55.2942 55.518C48.6322 55.518 43.3833 51.9967 43.3833 44.451C43.3833 32.4784 55.7989 33.4845 63.7732 31.7742C65.691 31.3717 66.8014 30.6675 66.8014 28.3534C66.8014 25.637 63.6722 24.5303 61.2497 24.5303C58.1205 24.5303 56.1017 26.0394 55.4961 29.1583H44.6955ZM59.5337 48.0729C64.9844 48.0729 66.8014 44.8534 66.4985 37.3077C64.8835 38.4144 61.9562 38.6156 59.4328 39.3199C56.9093 39.9235 54.6886 41.1309 54.6886 43.9479C54.7895 46.9662 57.0102 48.0729 59.5337 48.0729Z" fill="black"/>
<path d="M94.7615 4.30774H83.2544V54.4113H94.7615V4.30774Z" fill="black"/>
<path d="M143.112 16.884C152.702 16.884 159.061 22.4175 157.951 32.8809C156.638 45.7589 147.756 55.2162 135.037 55.2162C125.347 55.2162 118.786 50.0851 119.896 39.5211C121.208 26.6431 130.394 16.884 143.112 16.884ZM136.148 46.4632C142.709 46.4632 145.737 38.9175 146.342 33.3839C146.847 28.8565 145.636 25.637 141.396 25.637C135.239 25.637 131.908 34.0882 131.302 39.0181C130.899 43.1431 132.11 46.4632 136.148 46.4632Z" fill="black"/>
<path d="M121.914 17.6888H114.849V16.0791C114.849 12.759 116.464 12.3565 119.088 12.3565C120.097 12.3565 121.107 12.4571 122.217 12.5577V4.00592C120.4 3.90531 118.482 3.8047 116.665 3.8047C106.975 3.70409 103.442 7.0242 103.442 17.6888H97.8906V25.5364H103.442V54.4113H114.949V25.5364H119.189L121.914 17.6888Z" fill="black"/>
<path d="M161.887 46.9662V17.7895H172.99V23.7254H173.091C174.807 19.2986 178.643 16.884 183.589 16.884C184.396 16.884 185.204 16.9846 186.011 17.0852L185.507 18.5943L182.478 26.9449C182.276 26.9449 182.075 26.9449 181.974 26.9449C176.321 26.9449 173.293 30.8687 173.293 35.1949V54.4114H161.786V46.9662H161.887Z" fill="black"/>
<path d="M221.038 54.5119H210.136V50.3869H210.035C207.814 53.9083 204.483 55.7192 200.345 55.7192C189.342 55.7192 184.699 45.7589 184.699 35.3961C184.699 25.8382 189.544 16.6827 199.436 16.6827C203.777 16.6827 207.108 18.3931 209.43 21.7132H209.53V3.80469H221.038V54.5119ZM196.206 35.6979C196.206 40.7284 197.922 46.3625 203.171 46.3625C208.723 46.3625 209.934 40.7284 209.934 36.1004C209.934 30.7681 208.117 25.8382 203.171 25.8382C197.922 25.8382 196.206 31.0699 196.206 35.6979Z" fill="black"/>
<path d="M239.813 55.1156C233.958 55.1156 229.315 53.5059 224.975 50.5882L228.306 41.2315C231.939 43.8474 236.482 45.7589 239.813 45.7589C242.639 45.7589 243.951 44.7528 243.951 43.2437C243.951 38.6157 226.691 41.4327 226.691 29.0577C226.691 21.512 233.05 16.5822 241.731 16.5822C246.172 16.5822 251.421 18.2925 255.055 20.2041L251.724 29.0577C248.09 27.0456 244.254 25.7376 241.226 25.7376C238.803 25.7376 237.592 26.7437 237.592 28.0516C237.592 32.7803 255.458 29.8626 255.458 43.0425C255.358 50.6888 248.595 55.1156 239.813 55.1156Z" fill="black"/>
</g>
<defs>
<clipPath id="clip0_4_60">
<rect width="259.273" height="59.5219" fill="white"/>
</clipPath>
</defs>
</svg>