<?xml version="1.0" encoding="utf-8"?>
<svg xmlns="http://www.w3.org/2000/svg" width="260" height="260" viewBox="0 0 260 260" fill="none">
<path d="M32.2894 90.2288C32.0508 90.2288 8.70822 90.3083 8.70822 90.3083L8.94682 91.541L10.8556 91.8194C14.1561 92.1773 14.6731 92.4159 14.6731 92.9726V136.636C14.6731 137.232 13.8778 137.59 11.5316 137.948L8.90705 138.226L8.66846 139.459H33.2438C49.4682 139.459 58.1769 126.853 58.1769 114.367C58.1372 102.596 48.9115 90.2288 32.2894 90.2288ZM31.0169 137.908L26.6824 137.868V91.9785H29.983C40.163 91.9785 45.0542 101.403 45.0542 115.798C45.0144 126.972 40.68 137.908 31.0169 137.908ZM60.8015 138.385L61.7559 138.306C63.8635 138.147 64.6985 137.948 64.6985 137.073V117.866C64.6985 113.333 64.1021 112.736 61.6366 111.981L60.1652 111.623L60.2448 110.668L75.5149 106.413L75.3558 117.27H75.5546C77.9008 110.39 80.923 106.334 85.4563 106.334C88.8364 106.334 91.3417 108.402 91.3417 112.219C91.3417 114.725 89.2341 117.349 86.4107 117.349C83.1897 117.349 81.5593 115.162 80.7639 112.816C78.6961 113.333 76.9464 115.838 75.3558 121.087V137.073C75.3558 137.749 75.9523 138.107 79.0142 138.306L80.3265 138.385L80.5651 139.618H60.6027L60.8015 138.385ZM111.702 117.627C111.781 112.776 110.747 108.004 107.367 108.004C104.504 108.004 101.999 111.384 101.482 117.667L111.702 117.627ZM90.2282 124.268C90.2282 113.929 98.1416 106.135 108.401 106.135C117.07 106.135 121.524 111.623 121.524 117.15C121.524 117.866 121.444 118.701 121.285 119.337C121.285 119.337 104.345 119.099 101.482 118.979C101.402 119.655 101.402 120.809 101.402 121.485C101.482 129.199 105.419 134.528 111.901 134.528C115.917 134.528 118.939 132.54 120.927 128.881L121.802 129.319C119.218 136.636 114.088 140.771 106.015 140.771C97.1077 140.771 90.2282 133.892 90.2282 124.268ZM142.282 131.983L142.719 121.644C135.959 123.473 133.931 125.978 133.931 129.478C133.931 132.42 135.561 134.25 138.186 134.25C139.936 134.25 141.327 133.096 142.282 131.983ZM142.64 133.613L142.401 133.534C138.941 137.55 135.879 140.493 131.784 140.493C127.37 140.493 123.791 137.192 123.791 133.017C123.791 127.291 129 123.831 142.64 120.172L142.719 118.105C142.958 113.134 140.214 109.237 135.323 109.237C132.619 109.237 131.426 109.953 131.426 110.708C131.426 111.225 133.772 113.134 133.772 115.241C133.772 117.508 131.704 119.576 128.841 119.576C126.216 119.576 123.989 118.184 123.989 115.599C123.989 110.191 134.169 106.294 141.526 106.294C149.957 106.294 153.615 109.873 153.337 118.264L152.74 131.188C152.581 134.051 153.695 135.164 155.325 135.164C156.359 135.164 157.512 133.971 158.466 132.898L159.182 133.693C157.075 136.397 153.297 140.572 149.36 140.572C145.821 140.572 143.157 138.147 142.64 133.613ZM158.864 138.385L159.898 138.306C162.006 138.147 162.841 137.948 162.841 137.073V117.866C162.841 113.333 162.244 112.736 159.779 111.981L158.307 111.623L158.387 110.668L173.657 106.413L173.498 112.776H173.657C177.196 109.555 181.57 106.334 186.064 106.334C188.569 106.334 190.478 107.288 192.069 108.919C193.102 110.032 193.739 111.265 194.136 112.895L194.494 112.975C198.153 109.436 202.567 106.374 207.18 106.374C209.605 106.374 211.514 107.328 213.184 108.998C214.934 110.748 215.689 114.128 215.689 119.695V137.073C215.689 137.59 215.849 137.868 219.229 138.306L220.024 138.385L220.263 139.618H201.254L201.493 138.385L202.726 138.306C205.152 138.147 205.072 137.63 205.072 137.073V119.974C205.072 114.486 202.805 113.015 199.187 113.015C197.198 113.015 195.21 113.73 194.653 114.923V137.192C194.653 137.789 194.932 137.908 197.676 138.306L198.63 138.385L198.869 139.618H180.179L180.417 138.385L181.65 138.306C183.757 138.147 184.076 137.63 184.076 137.073V119.974C184.076 114.486 181.729 113.015 178.151 113.015C176.321 113.015 174.85 113.691 173.617 114.327V137.152C173.617 137.828 173.856 138.107 176.56 138.345L177.594 138.425L177.832 139.658H158.824L158.864 138.385ZM221.058 138.664L220.819 129.279L222.887 129.438L224.875 133.534C227.381 137.192 229.329 139.101 233.147 139.101C236.805 139.101 238.952 137.033 238.952 133.892C238.952 130.432 235.215 129.12 231.119 127.529C225.551 125.422 220.978 123.115 220.978 117.11C220.978 110.589 226.267 106.413 234.181 106.413C236.805 106.413 239.827 106.93 241.816 107.606L245.395 106.93L245.752 117.309L243.844 117.389L238.276 109.157C237.123 108.481 235.851 108.004 234.101 108.004C230.96 108.004 228.971 109.833 228.971 112.856C228.971 116.156 232.351 117.389 236.726 119.099C241.776 121.167 247.224 123.274 247.224 129.716C247.224 135.443 242.73 140.652 232.908 140.652C228.454 140.652 223.921 139.817 221.058 138.664Z" fill="black"/>
<path d="M247.224 149.878C245.236 150.713 211.634 164.989 168.09 164.989C132.34 165.068 103.709 157.632 75.9923 154.212C35.1925 150.275 21.4733 153.099 9.18563 155.803L8.62891 154.093C10.5774 153.456 42.3106 143.714 82.2355 146.975C121.922 149.241 148.883 156.797 180.258 156.797C220.183 156.717 234.539 152.224 246.429 148.168L247.224 149.878Z" fill="black"/>
</svg>