<?xml version="1.0" encoding="utf-8"?>
<svg xmlns="http://www.w3.org/2000/svg" width="168" height="157" viewBox="0 0 168 157" fill="none">
<g clip-path="url(#clip0_6_1594)">
<path d="M134.74 87.4302C128 89.2502 122.95 87.5902 119.1 81.9302C110.9 88.9502 101.98 90.5702 92.8 84.8102C82.12 78.1002 81.59 67.6302 83.85 56.1802C80.98 56.6402 78.33 56.2402 78.84 60.2402C80.2 70.8802 77.45 80.0202 67.49 85.2902C57.16 90.7602 47.5 88.2702 38.73 81.1702C38.5 80.9802 38.15 80.9302 37.85 80.8302C26.59 92.0602 22.14 91.4002 12.07 76.8802C9.93 78.0802 7.9 79.7802 5.59 80.3302C3.92 80.7302 1.88 79.6202 0 79.1802C0.62 77.4802 0.81 74.7102 1.92 74.2702C9.51 71.2902 9.31 66.0902 8.24 59.1102C6.01 44.6002 5.39 29.8602 8.8 15.3902C9.8 11.1402 11.75 6.84023 14.3 3.30023C17.59 -1.26977 23.31 -0.999769 26.52 3.64023C28.45 6.43023 29.95 9.82023 30.59 13.1402C34.43 33.0302 32.66 51.9502 19.96 68.7402C17.99 71.3402 20.41 78.4102 23.98 80.1102C28.09 82.0602 29.98 78.8302 31.02 75.9402C32.11 72.9202 32.54 69.5202 32.57 66.2802C32.68 50.9302 44.85 39.4902 59.98 41.6802C64.42 42.3202 68.78 45.2702 72.58 47.9902C74.88 49.6402 76.47 50.4202 79.15 49.3702C83.8 47.5502 88.62 46.1802 93.28 44.3902C101.28 41.3202 109.09 40.5702 116.84 46.0202C117.23 44.9302 117.28 43.9502 117.79 43.5302C119.08 42.4802 120.58 41.6802 122 40.7802C122.93 42.3402 124.69 43.9202 124.66 45.4602C124.56 52.4402 123.68 59.4102 123.65 66.3902C123.64 69.9702 124.65 73.6002 125.55 77.1202C126.28 79.9602 128.4 81.0002 131.36 80.3602C134.22 79.7402 134.74 77.9502 134.81 75.2702C135.32 56.8002 135.8 38.3302 136.76 19.8802C136.99 15.5102 138.7 11.1402 140.2 6.93023C141.47 3.36023 143.77 0.340231 148.13 0.420231C152.45 0.500231 154.8 3.55023 155.92 7.13023C157.49 12.1802 158.92 17.3802 159.5 22.6202C161.55 41.2402 159.71 59.2102 149.34 76.1702C153.16 74.8602 156.9 73.2102 160.82 72.3602C162.85 71.9202 166.4 72.1402 167.14 73.3502C168.99 76.3802 166.28 78.1602 163.64 79.1402C158.53 81.0402 153.36 82.7502 147.95 84.6302C157.04 98.7602 161.3 114.09 160.94 130.68C160.77 138.3 159.7 145.83 154.6 151.78C152.54 154.19 149.07 156.46 146.07 156.73C141.95 157.09 139.51 153.16 139.04 149.47C137.35 136.13 135.91 122.75 134.86 109.34C134.31 102.25 134.76 95.0702 134.76 87.4202L134.74 87.4302ZM90.41 65.4602C90.4 73.3202 94.14 78.5302 101.05 80.2702C109.34 82.3702 116.86 76.1802 115.92 67.7502C115.56 64.4902 113.74 61.3802 113.46 58.1302C112.97 52.3702 110.73 49.7002 104.98 49.3602C97.03 48.8902 90.43 56.2002 90.41 65.4602ZM44.01 55.4702C38.95 61.8002 38.68 69.8102 43.35 75.0002C48.56 80.7902 58.5 82.3002 64.82 78.2502C70.82 74.4102 73.31 66.4202 70.47 60.0802C57.6233 61.1602 48.8033 59.6202 44.01 55.4602V55.4702ZM146.51 149.35C157.22 138.03 154.28 103.2 141.96 91.3002C142.57 110.89 141.37 129.9 146.51 149.35ZM142.66 68.6202C153.71 55.9002 156.47 19.0302 147.24 8.72023C140.11 28.5602 143.56 48.7602 142.66 68.6202ZM20.13 8.19023C13.79 16.5302 11.75 46.9202 16.44 59.5502C25.78 49.5402 28.14 18.3902 20.13 8.19023ZM66.37 52.9502C61.35 48.1402 56.14 47.5602 50.59 51.1302C55.46 55.3002 60.57 53.8702 66.37 52.9502Z" fill="black"/>
</g>
<defs>
<clipPath id="clip0_6_1594">
<rect width="167.74" height="156.76" fill="white"/>
</clipPath>
</defs>
</svg>