<?xml version="1.0" encoding="utf-8"?>
<svg xmlns="http://www.w3.org/2000/svg" width="260" height="101" viewBox="0 0 260 101" fill="none">
<g clip-path="url(#clip0_4_170)">
<path fill-rule="evenodd" clip-rule="evenodd" d="M185.945 100.07C226.444 100.07 259.273 77.6688 259.273 50.0347C259.273 22.4007 226.444 -3.52859e-05 185.945 -3.52859e-05C163.32 -3.52859e-05 143.088 6.99211 129.637 17.9826C116.186 6.99212 95.9538 -1.60255e-05 73.3276 -1.60255e-05C32.8293 -1.60255e-05 0 22.4007 0 50.0348C0 77.6688 32.8293 100.07 73.3276 100.07C95.9538 100.07 116.186 93.078 129.637 82.0873C143.088 93.078 163.32 100.07 185.945 100.07ZM30.2743 40.0368C30.2743 42.2996 32.9185 43.1854 37.2751 44.3766C42.5364 45.7217 45.0939 48.4162 45.0939 52.6167C45.0939 55.3662 44.0133 57.6359 41.9684 59.1814C40.0656 60.6211 37.4358 61.3805 34.3648 61.3805C30.7266 61.3805 27.4218 60.4336 24.8056 58.6395L24.7843 58.6258L24.7869 58.6008L25.3106 52.6855L25.3744 52.7474C27.9234 55.2424 31.2725 56.6743 34.5629 56.6743C37.8457 56.6743 39.8845 55.2269 39.8845 52.8979C39.8845 50.1311 36.7684 49.0707 32.3659 47.8752C29.0721 47.0074 25.144 44.9709 25.144 40.1976C25.144 37.7826 26.177 35.7607 28.1317 34.3502C29.9121 33.0653 32.3939 32.3583 35.1189 32.3583C38.8855 32.3583 41.1862 33.2115 43.4827 34.4929L43.5065 34.5059L43.5048 34.5325L43.2225 40.0832L43.1571 40.0299C40.7637 38.0406 37.8661 36.9449 34.9999 36.9449C32.1295 36.9449 30.2743 38.1585 30.2743 40.0368ZM58.6066 43.162C62.1274 43.162 64.5965 45.9047 64.5965 50.0398C64.5965 54.174 62.1274 56.9167 58.6474 56.9167C56.4606 56.9167 54.4779 55.9758 53.0214 54.0923V46.2728C54.4779 44.1038 56.5014 43.162 58.6066 43.162ZM59.3752 61.3382C64.9204 61.3382 69.6554 57.4491 69.6554 50.0398C69.6554 42.6297 65.1628 38.7406 59.7391 38.7406C56.9469 38.7406 54.6802 39.8861 53.0214 41.5245V39.1499H48.0033V67.6148H53.0214V58.9636C54.5994 60.356 56.7046 61.3382 59.3752 61.3382ZM88.3557 47.5835C88.3557 44.9217 86.696 42.8748 83.6199 42.8748C80.7061 42.8748 78.1971 44.8813 77.5501 48.1976H88.2741L88.2899 48.1193C88.3248 47.9482 88.3557 47.7968 88.3557 47.5835ZM92.6451 51.6765H77.4684C78.0355 55.0754 80.5038 56.9167 83.9039 56.9167C86.8176 56.9167 88.882 56.2218 91.1887 54.8698L91.4718 59.3326C89.4482 60.479 86.8576 61.3382 83.54 61.3382C77.3877 61.3382 72.3288 57.4491 72.3288 50.1215C72.3288 43.3255 77.4285 38.7406 83.4991 38.7406C89.8121 38.7406 93.0906 42.5884 93.0906 48.1976C93.0906 49.344 92.9691 50.4492 92.6451 51.6765ZM117.175 54.1336L116.648 59.0462C118.673 60.4377 121.465 61.3382 124.905 61.3382C129.559 61.3382 133.566 58.9636 133.566 54.3375C133.566 49.8613 129.419 48.6445 126.08 47.6651C123.832 47.0055 121.95 46.4535 121.95 45.086C121.95 43.6936 123.408 42.9978 125.188 42.9978C127.495 42.9978 130.085 43.7348 132.231 45.2081L132.474 40.6645C130.652 39.518 128.265 38.7406 125.148 38.7406C120.696 38.7406 116.972 40.8692 116.972 45.2494C116.972 49.423 120.77 50.5214 124.015 51.4598C126.435 52.1596 128.547 52.7705 128.547 54.5017C128.547 56.0163 127.091 56.9167 124.986 56.9167C122.031 56.9167 119.198 55.8941 117.175 54.1336ZM150.404 55.0341V51.759C148.582 51.1863 146.884 50.8173 145.102 50.8173C142.512 50.8173 140.975 52.1684 140.975 54.1336C140.975 56.1393 142.675 57.4095 144.9 57.4095C147.005 57.4095 148.663 56.6716 150.404 55.0341ZM155.382 47.4193V60.9288H150.404V58.7185C148.744 60.3148 146.519 61.3382 143.928 61.3382C139.113 61.3382 136.159 58.3908 136.159 54.2962C136.159 49.9168 139.517 47.2559 144.535 47.2559C146.438 47.2559 148.259 47.5835 150.404 48.238V47.5835C150.404 44.2672 147.935 42.7931 144.859 42.7931C142.553 42.7931 139.922 43.6531 138.06 45.1677L137.858 40.7462C139.476 39.641 142.473 38.7406 145.749 38.7406C151.335 38.7406 155.382 41.3603 155.382 47.4193ZM161.284 39.1501H155.828L166.053 60.929H168.842L179.067 39.1501H173.611L167.468 52.9048L161.284 39.1501ZM194.413 47.5835C194.413 44.9217 192.753 42.8748 189.678 42.8748C186.763 42.8748 184.255 44.8813 183.607 48.1976H194.333L194.345 48.1387L194.351 48.1077C194.384 47.9413 194.413 47.7919 194.413 47.5835ZM198.702 51.6765H183.527C184.094 55.0754 186.562 56.9167 189.961 56.9167C192.874 56.9167 194.939 56.2218 197.246 54.8698L197.528 59.3326C195.506 60.479 192.916 61.3382 189.597 61.3382C183.446 61.3382 178.387 57.4491 178.387 50.1215C178.387 43.3255 183.486 38.7406 189.556 38.7406C195.87 38.7406 199.149 42.5884 199.149 48.1976C199.149 49.344 199.026 50.4492 198.702 51.6765ZM216.882 44.3489L217.571 39.6823C216.436 39.0674 215.264 38.7406 213.887 38.7406C211.054 38.7406 208.99 40.0908 207.573 42.0973V39.1499H202.555V60.9288H207.573V46.9686C209.031 44.5949 211.054 43.4484 213.28 43.4484C214.534 43.4484 215.667 43.6936 216.882 44.3489ZM219.015 59.0462L219.539 54.1336C221.564 55.8941 224.397 56.9167 227.351 56.9167C229.456 56.9167 230.912 56.0163 230.912 54.5017C230.912 52.7705 228.8 52.1596 226.381 51.4598C223.136 50.5214 219.339 49.423 219.339 45.2494C219.339 40.8692 223.061 38.7406 227.513 38.7406C230.629 38.7406 233.017 39.518 234.839 40.6645L234.595 45.2081C232.45 43.7348 229.86 42.9978 227.554 42.9978C225.773 42.9978 224.316 43.6936 224.316 45.086C224.316 46.4535 226.197 47.0055 228.445 47.6651C231.783 48.6445 235.93 49.8613 235.93 54.3375C235.93 58.9636 231.924 61.3382 227.27 61.3382C223.831 61.3382 221.038 60.4377 219.015 59.0462ZM107.42 56.9167C109.482 56.9167 111.243 56.2296 112.977 54.9662C113.189 56.4506 113.51 57.9127 113.909 59.3567C112.148 60.4713 109.988 61.3382 106.894 61.3382C100.742 61.3382 95.7638 57.1223 95.7638 50.0398C95.7638 42.9574 100.742 38.7397 106.894 38.7397C109.971 38.7397 112.148 39.5198 113.943 40.5837C113.529 42.0621 113.198 43.5611 112.979 45.0834C111.244 43.8492 109.483 43.1621 107.42 43.1621C103.94 43.1621 100.904 45.6184 100.904 50.0398C100.904 54.4613 103.94 56.9167 107.42 56.9167Z" fill="black"/>
</g>
<defs>
<clipPath id="clip0_4_170">
<rect width="259.273" height="100.07" fill="white"/>
</clipPath>
</defs>
</svg>