<?xml version="1.0" encoding="utf-8"?>
<svg xmlns="http://www.w3.org/2000/svg" width="260" height="68" viewBox="0 0 260 68" fill="none">
<path d="M74.2609 28.9272C74.1758 29.0986 74.048 29.2272 73.9203 29.3558C73.7926 29.4415 73.6222 29.4843 73.4519 29.4843C73.239 29.4843 73.0687 29.4415 72.8984 29.3129C72.6855 29.1844 72.4726 29.0986 72.2171 28.9272C71.919 28.7987 71.6635 28.6701 71.3655 28.5415C71.0248 28.413 70.6416 28.3701 70.2584 28.3701C69.6622 28.3272 69.1087 28.4987 68.6403 28.8415C68.2997 29.1415 68.0868 29.6129 68.1293 30.0843C68.1293 30.3843 68.2145 30.6843 68.47 30.9414C68.7255 31.1985 68.981 31.37 69.3216 31.4985C69.7048 31.6699 70.0881 31.8414 70.5139 31.9271C70.9397 32.0556 71.408 32.2271 71.8764 32.3556C72.3448 32.527 72.8132 32.6985 73.239 32.9556C73.6648 33.1699 74.0906 33.4699 74.4313 33.8127C74.7719 34.1555 75.07 34.5841 75.2829 35.0555C75.4958 35.6126 75.6235 36.2126 75.6235 36.8554C75.6235 37.584 75.4958 38.3125 75.2403 39.041C74.9848 39.6838 74.6016 40.2838 74.0906 40.7981C73.5371 41.3123 72.8984 41.7409 72.2171 41.998C71.4081 42.298 70.5564 42.4266 69.7048 42.4266C69.1939 42.4266 68.6403 42.3837 68.1293 42.2552C67.6184 42.1694 67.0648 41.998 66.5539 41.7838C66.0429 41.6123 65.5745 41.3552 65.1487 41.0981C64.7229 40.8409 64.3397 40.541 63.999 40.1981L65.1487 38.3982C65.2339 38.2696 65.3616 38.1411 65.4893 38.0554C65.6597 37.9696 65.7874 37.9268 66.0003 37.9268C66.2558 37.9268 66.4687 38.0125 66.6816 38.1411C66.8945 38.2696 67.1926 38.4411 67.448 38.6125C67.7887 38.7839 68.0868 38.9553 68.47 39.0839C68.8958 39.2553 69.3642 39.2982 69.8326 39.2982C70.4287 39.341 70.9822 39.1696 71.4506 38.8267C71.8764 38.4411 72.0893 37.9268 72.0468 37.3697C72.0468 37.0268 71.9616 36.684 71.7061 36.4269C71.4932 36.1697 71.1951 35.9555 70.8545 35.8269C70.4713 35.6555 70.0881 35.5269 69.6622 35.3983C69.2364 35.2698 68.768 35.1412 68.2997 35.0126C67.8313 34.8412 67.3629 34.6698 66.9371 34.4555C66.5113 34.2413 66.0855 33.9413 65.7448 33.5984C65.3616 33.2127 65.1061 32.7413 64.8932 32.2699C64.6803 31.6271 64.5526 30.9843 64.5526 30.2986C64.5526 29.6558 64.6803 29.0558 64.9358 28.4558C65.1913 27.8558 65.5745 27.2987 66.0429 26.8702C66.5539 26.3988 67.15 26.0131 67.8313 25.7559C68.5977 25.456 69.4493 25.3274 70.2584 25.3274C70.7693 25.3274 71.2377 25.3702 71.7487 25.456C72.2171 25.5417 72.6855 25.6702 73.1113 25.7988C73.5371 25.9702 73.9203 26.1416 74.3461 26.3559C74.7293 26.5702 75.0274 26.8273 75.368 27.0845L74.2609 28.9272Z" fill="black"/>
<path d="M85.3744 42.2552C85.1189 42.2552 84.8635 42.2123 84.6505 42.1266C84.4376 41.9981 84.3099 41.7838 84.2247 41.5695L83.9693 40.9267C83.6712 41.1838 83.4157 41.3981 83.1602 41.5695C82.9047 41.7409 82.6067 41.9123 82.3512 42.0409C82.0531 42.1695 81.7551 42.2552 81.457 42.3409C81.1164 42.4266 80.7331 42.4266 80.3925 42.4266C79.9241 42.4266 79.4131 42.3838 78.9447 42.2123C78.5615 42.0838 78.1783 41.8695 77.8377 41.6124C77.5396 41.3552 77.2841 41.0124 77.1564 40.6267C76.986 40.1981 76.9009 39.7267 76.9009 39.2553C76.9009 38.8268 77.0286 38.3982 77.1989 38.0125C77.4544 37.5411 77.8377 37.1126 78.2635 36.8126C78.9022 36.384 79.5835 36.0841 80.3073 35.9126C81.3718 35.6555 82.4789 35.5269 83.586 35.5698V35.0555C83.6286 34.5413 83.5009 33.9842 83.1602 33.5556C82.8622 33.2556 82.4364 33.0842 81.968 33.0842C81.6273 33.0842 81.2867 33.1271 80.9886 33.2128C80.7331 33.2985 80.5202 33.3842 80.3073 33.5128C80.0944 33.6413 79.9241 33.727 79.7112 33.8127C79.4983 33.8984 79.2428 33.9413 79.0299 33.9413C78.817 33.9413 78.6041 33.8984 78.4338 33.7699C78.2635 33.6413 78.1357 33.5128 78.0506 33.3413L77.4118 32.27C78.0931 31.67 78.8596 31.1986 79.7112 30.8986C80.6054 30.5986 81.4996 30.4272 82.4364 30.4272C83.0751 30.4272 83.7138 30.5129 84.3099 30.77C84.8635 30.9843 85.3318 31.2843 85.7151 31.7128C86.0983 32.1414 86.3963 32.6128 86.6093 33.1699C86.8222 33.7699 86.9073 34.3699 86.9073 35.0127V42.2123H85.3744V42.2552ZM81.4144 40.1553C81.7976 40.1553 82.2234 40.0696 82.5641 39.941C82.9473 39.7696 83.288 39.5125 83.586 39.1696V37.584C83.0325 37.584 82.4364 37.6268 81.8828 37.7126C81.4996 37.7554 81.1589 37.884 80.8183 38.0554C80.6054 38.1411 80.3925 38.3125 80.2647 38.5268C80.1796 38.6982 80.0944 38.8696 80.0944 39.0839C80.0518 39.3839 80.1796 39.7267 80.4351 39.941C80.7331 40.1124 81.0738 40.1981 81.4144 40.1553Z" fill="black"/>
<path d="M95.4236 42.2551H92.3152L87.8442 30.6843H90.6971C90.91 30.6843 91.1229 30.7271 91.2933 30.8557C91.4636 30.9414 91.5487 31.1128 91.6339 31.2842L93.2094 36.4697C93.3371 36.8983 93.4649 37.284 93.55 37.7125C93.6352 38.1411 93.7629 38.5267 93.8481 38.9124C93.9333 38.5267 94.0184 38.0982 94.1462 37.7125C94.2739 37.3268 94.4017 36.8983 94.5294 36.4697L96.19 31.2842C96.2326 31.1128 96.3604 30.9414 96.5307 30.8557C96.701 30.7271 96.9139 30.6843 97.1268 30.6843H99.852L95.4236 42.2551Z" fill="black"/>
<path d="M105.941 30.5128C106.665 30.5128 107.346 30.6414 108.028 30.8557C108.624 31.0699 109.177 31.4128 109.646 31.8842C110.114 32.3556 110.497 32.9127 110.71 33.5555C110.966 34.2841 111.093 35.0126 111.093 35.784C111.093 35.9983 111.093 36.2125 111.051 36.4268C111.051 36.5554 111.008 36.684 110.923 36.8125C110.88 36.8982 110.795 36.9839 110.667 37.0268C110.54 37.0696 110.412 37.0696 110.284 37.0696H103.642C103.684 37.841 103.982 38.6124 104.536 39.1695C105.047 39.5981 105.686 39.8552 106.367 39.8124C106.708 39.8124 107.048 39.7695 107.389 39.6838C107.644 39.5981 107.9 39.4695 108.155 39.341C108.368 39.2124 108.581 39.1267 108.794 38.9981C108.964 38.9124 109.177 38.8696 109.39 38.8696C109.646 38.8696 109.858 38.9553 110.029 39.1695L111.008 40.4123C110.668 40.798 110.284 41.1409 109.858 41.398C109.475 41.6551 109.049 41.8694 108.581 41.998C108.155 42.1265 107.729 42.2551 107.304 42.298C106.878 42.3408 106.495 42.3837 106.069 42.3837C105.302 42.3837 104.536 42.2551 103.812 41.998C103.131 41.7409 102.492 41.3552 101.981 40.8409C101.428 40.2838 101.002 39.641 100.746 38.9124C100.406 38.0553 100.278 37.1554 100.278 36.2125C100.278 35.484 100.406 34.7126 100.661 34.0269C101.172 32.6556 102.237 31.5413 103.557 30.9842C104.323 30.6842 105.132 30.5128 105.941 30.5128ZM106.026 32.9127C105.473 32.8699 104.919 33.0841 104.493 33.4698C104.068 33.9412 103.812 34.4983 103.769 35.0983H108.07C108.07 34.8412 108.028 34.5412 107.985 34.2841C107.9 34.0269 107.815 33.8127 107.644 33.5984C107.474 33.3841 107.261 33.2127 107.006 33.0841C106.665 32.9556 106.324 32.9127 106.026 32.9127Z" fill="black"/>
<path d="M121.695 42.4265C121.184 42.4265 120.716 42.3408 120.248 42.1694C119.439 41.8694 118.8 41.2266 118.544 40.4124C118.374 39.9838 118.331 39.5124 118.331 39.041V33.0841H117.352C117.011 33.0841 116.713 32.827 116.713 32.4842C116.713 32.4413 116.713 32.4413 116.713 32.3985V31.0699L118.544 30.7271L119.226 27.8987C119.311 27.5558 119.609 27.2987 119.992 27.3844H121.78V30.77H124.591V33.127H121.78V38.8696C121.78 39.1267 121.823 39.341 121.993 39.5124C122.121 39.6838 122.334 39.7695 122.547 39.7695C122.675 39.7695 122.76 39.7695 122.845 39.7267C122.93 39.6838 123.015 39.6838 123.058 39.641C123.1 39.5981 123.186 39.5981 123.228 39.5553C123.271 39.5124 123.356 39.5124 123.441 39.5124C123.526 39.5124 123.611 39.5124 123.697 39.5981C123.782 39.6838 123.824 39.7267 123.909 39.8124L124.931 41.4409C124.463 41.7837 123.995 42.0409 123.441 42.2123C122.888 42.3408 122.291 42.4265 121.695 42.4265Z" fill="black"/>
<path d="M126.507 42.2551V25.5845H129.956V31.7128C130.382 31.3699 130.808 31.0699 131.319 30.8556C131.872 30.6414 132.469 30.5128 133.065 30.5128C133.618 30.5128 134.214 30.5985 134.725 30.8556C135.194 31.0699 135.62 31.3699 135.96 31.7556C136.301 32.1842 136.556 32.6556 136.727 33.127C136.897 33.6841 136.982 34.2841 136.982 34.884V42.2122H133.533V34.9269C133.576 34.4555 133.405 33.9841 133.15 33.5984C132.852 33.2555 132.426 33.0841 132 33.127C131.617 33.127 131.276 33.2127 130.936 33.3841C130.595 33.5555 130.254 33.7698 129.999 34.0269V42.2551H126.507Z" fill="black"/>
<path d="M144.349 30.5128C145.073 30.5128 145.754 30.6414 146.435 30.8557C147.031 31.0699 147.585 31.4128 148.053 31.8842C148.522 32.3556 148.905 32.9127 149.118 33.5555C149.373 34.2841 149.501 35.0126 149.501 35.784C149.501 35.9983 149.501 36.2125 149.458 36.4268C149.458 36.5554 149.416 36.684 149.331 36.8125C149.288 36.8982 149.203 36.9839 149.075 37.0268C148.947 37.0696 148.82 37.0696 148.692 37.0696H142.092C142.134 37.841 142.433 38.6124 142.986 39.1695C143.497 39.5981 144.136 39.8552 144.817 39.8124C145.158 39.8124 145.498 39.7695 145.839 39.6838C146.094 39.5981 146.35 39.4695 146.605 39.341C146.818 39.2124 147.031 39.1267 147.244 38.9981C147.414 38.9124 147.627 38.8696 147.84 38.8696C148.096 38.8696 148.309 38.9553 148.479 39.1695L149.458 40.4123C149.118 40.798 148.734 41.1409 148.309 41.398C147.925 41.6551 147.5 41.8694 147.031 41.998C146.605 42.1265 146.18 42.2551 145.754 42.298C145.328 42.3408 144.945 42.3837 144.519 42.3837C143.753 42.3837 142.986 42.2551 142.262 41.998C141.581 41.7409 140.942 41.3552 140.431 40.8409C139.878 40.2838 139.452 39.641 139.196 38.9124C138.856 38.0553 138.728 37.1554 138.728 36.2125C138.728 35.484 138.856 34.7126 139.111 34.0269C139.622 32.6556 140.687 31.5413 142.007 30.9842C142.731 30.6842 143.54 30.5128 144.349 30.5128ZM144.434 32.9127C143.88 32.8699 143.327 33.0841 142.901 33.4698C142.475 33.9412 142.22 34.4983 142.177 35.0983H146.478C146.478 34.8412 146.435 34.5412 146.393 34.2841C146.307 34.0269 146.222 33.8127 146.052 33.5984C145.882 33.3841 145.669 33.2127 145.413 33.0841C145.073 32.9556 144.774 32.9127 144.434 32.9127Z" fill="black"/>
<path d="M167.428 37.9267C167.513 37.9267 167.598 37.9267 167.683 37.9696C167.768 38.0124 167.853 38.0553 167.939 38.141L169.471 39.7695C168.833 40.6266 167.939 41.3123 166.959 41.7408C165.81 42.2122 164.617 42.4265 163.382 42.4265C162.233 42.4265 161.083 42.2122 159.976 41.7837C158.997 41.3551 158.145 40.7552 157.421 39.9838C156.697 39.2124 156.186 38.2696 155.803 37.2839C155.42 36.1697 155.25 35.0554 155.25 33.8983C155.25 32.7413 155.462 31.5413 155.888 30.4699C156.314 29.4414 156.91 28.5415 157.677 27.7701C158.443 26.9987 159.38 26.3987 160.402 26.013C161.509 25.5845 162.701 25.3702 163.936 25.3702C164.532 25.3702 165.128 25.413 165.682 25.5416C166.193 25.6273 166.746 25.7987 167.215 26.013C167.683 26.1844 168.109 26.4416 168.535 26.6987C168.918 26.9558 169.301 27.2558 169.599 27.5986L168.279 29.3557C168.194 29.4843 168.109 29.57 167.981 29.6557C167.853 29.7414 167.683 29.7843 167.513 29.7843C167.385 29.7843 167.257 29.7414 167.129 29.6985C167.002 29.6128 166.874 29.57 166.746 29.4843C166.619 29.3986 166.448 29.3128 166.278 29.1843C166.108 29.0557 165.895 28.97 165.682 28.8843C165.426 28.7986 165.171 28.7129 164.915 28.67C164.575 28.5843 164.234 28.5843 163.851 28.5843C163.212 28.5843 162.531 28.7129 161.935 28.97C161.381 29.2271 160.87 29.57 160.444 30.0414C160.019 30.5128 159.678 31.1128 159.465 31.7127C159.21 32.4413 159.124 33.1698 159.124 33.9412C159.124 34.7126 159.21 35.484 159.465 36.2125C159.678 36.8125 159.976 37.4125 160.402 37.8839C160.785 38.3124 161.253 38.6981 161.807 38.9124C162.36 39.1695 162.914 39.2552 163.51 39.2552C163.851 39.2552 164.149 39.2552 164.447 39.2124C164.702 39.1695 165 39.1267 165.256 39.041C165.511 38.9552 165.724 38.8267 165.98 38.6981C166.235 38.5695 166.448 38.3981 166.661 38.1839C166.746 38.0981 166.831 38.0553 166.959 38.0124C167.172 37.9696 167.3 37.9267 167.428 37.9267Z" fill="black"/>
<path d="M171.217 42.2551V25.5845H174.666V31.7128C175.092 31.3699 175.517 31.0699 176.028 30.8556C176.582 30.6414 177.178 30.5128 177.774 30.5128C178.328 30.5128 178.924 30.5985 179.435 30.8556C179.903 31.0699 180.329 31.3699 180.67 31.7556C181.01 32.1842 181.266 32.6556 181.436 33.127C181.606 33.6841 181.692 34.2841 181.692 34.884V42.2122H178.243V34.9269C178.285 34.4555 178.115 33.9841 177.859 33.5984C177.561 33.2555 177.135 33.0841 176.71 33.127C176.326 33.127 175.986 33.2127 175.645 33.3841C175.305 33.5555 174.964 33.7698 174.708 34.0269V42.2551H171.217Z" fill="black"/>
<path d="M188.207 27.5558C188.207 27.8129 188.164 28.0701 188.037 28.3272C187.909 28.5843 187.781 28.7986 187.568 28.97C187.355 29.1415 187.142 29.3129 186.887 29.3986C186.631 29.5271 186.333 29.57 186.078 29.57C185.822 29.57 185.524 29.5271 185.312 29.3986C185.056 29.3129 184.843 29.1415 184.673 28.97C184.502 28.7986 184.332 28.5843 184.247 28.3272C184.119 28.0701 184.077 27.8129 184.077 27.5558C184.077 27.2987 184.119 26.9987 184.247 26.7844C184.332 26.5273 184.502 26.313 184.673 26.1416C184.843 25.9702 185.099 25.7988 185.312 25.713C185.567 25.6273 185.822 25.5416 186.078 25.5416C186.376 25.5416 186.631 25.5845 186.887 25.713C187.398 25.9273 187.781 26.313 187.994 26.7844C188.164 26.9987 188.207 27.2558 188.207 27.5558ZM187.824 30.7271V42.298H184.375V30.7271H187.824Z" fill="black"/>
<path d="M194.381 25.5845V42.2551H190.932V25.5845H194.381Z" fill="black"/>
<path d="M205.324 42.2551C205.154 42.2551 204.941 42.2123 204.771 42.1265C204.6 42.0408 204.515 41.8694 204.473 41.698L204.217 40.798C204.004 41.0552 203.749 41.2694 203.493 41.4837C203.238 41.698 202.982 41.8694 202.684 41.998C202.386 42.1265 202.088 42.2551 201.748 42.3408C201.407 42.4265 201.024 42.4694 200.64 42.4694C200.044 42.4694 199.491 42.3408 198.98 42.0837C198.469 41.8266 198 41.398 197.66 40.9266C197.277 40.3695 196.979 39.7267 196.808 39.0838C196.595 38.2696 196.468 37.4125 196.51 36.5982C196.51 35.784 196.638 34.9697 196.851 34.1983C197.064 33.5127 197.404 32.8698 197.873 32.2699C198.299 31.7556 198.809 31.3271 199.448 30.9842C200.087 30.6842 200.768 30.5128 201.449 30.5128C201.96 30.5128 202.471 30.5985 202.94 30.7699C203.323 30.9414 203.706 31.1556 204.047 31.4556V25.5845H207.496V42.2551H205.324ZM201.833 39.8124C202.046 39.8124 202.301 39.7695 202.514 39.7267C202.727 39.6838 202.897 39.5981 203.068 39.5124C203.238 39.4267 203.408 39.2981 203.536 39.1695C203.706 39.041 203.834 38.8696 204.004 38.6981V33.8127C203.791 33.5555 203.493 33.3412 203.153 33.2127C202.855 33.0841 202.514 33.0413 202.216 33.0413C201.918 33.0413 201.62 33.0841 201.322 33.2127C201.024 33.3412 200.811 33.5555 200.64 33.8127C200.428 34.1555 200.257 34.4983 200.172 34.884C200.044 35.3983 200.002 35.9554 200.002 36.5125C200.002 37.0268 200.044 37.541 200.129 38.0553C200.215 38.3981 200.3 38.741 200.513 39.0838C200.64 39.2981 200.853 39.5124 201.066 39.6409C201.322 39.7267 201.577 39.8124 201.833 39.8124Z" fill="black"/>
<path d="M210.178 42.2552V30.6843H212.222C212.349 30.6843 212.52 30.6843 212.647 30.7271C212.733 30.77 212.86 30.8128 212.945 30.8557C213.031 30.9414 213.073 31.0271 213.116 31.1128C213.158 31.2414 213.201 31.37 213.201 31.4985L213.371 32.5699C213.755 31.9699 214.223 31.4557 214.776 31.0271C215.287 30.6414 215.884 30.47 216.48 30.47C216.948 30.4271 217.374 30.5986 217.757 30.8557L217.331 33.3842C217.331 33.5127 217.246 33.6413 217.161 33.727C217.076 33.8127 216.948 33.8127 216.82 33.8127C216.693 33.8127 216.522 33.8127 216.395 33.7698C216.182 33.727 215.969 33.727 215.756 33.727C214.862 33.727 214.138 34.1984 213.627 35.1841V42.2552H210.178Z" fill="black"/>
<path d="M224.017 30.5128C224.741 30.5128 225.422 30.6414 226.104 30.8557C226.7 31.0699 227.253 31.4128 227.722 31.8842C228.19 32.3556 228.573 32.9127 228.786 33.5555C229.042 34.2841 229.169 35.0126 229.169 35.784C229.169 35.9983 229.169 36.2125 229.127 36.4268C229.127 36.5554 229.084 36.684 228.999 36.8125C228.956 36.8982 228.871 36.9839 228.744 37.0268C228.616 37.0696 228.488 37.0696 228.36 37.0696H221.76C221.803 37.841 222.101 38.6124 222.655 39.1695C223.166 39.5981 223.804 39.8552 224.486 39.8124C224.826 39.8124 225.167 39.7695 225.507 39.6838C225.763 39.5981 226.018 39.4695 226.274 39.341C226.487 39.2124 226.7 39.1267 226.913 38.9981C227.083 38.9124 227.296 38.8696 227.509 38.8696C227.764 38.8696 227.977 38.9553 228.147 39.1695L229.127 40.4123C228.786 40.798 228.403 41.1409 227.977 41.398C227.594 41.6551 227.168 41.8694 226.7 41.998C226.274 42.1265 225.848 42.2551 225.422 42.298C224.996 42.3408 224.613 42.3837 224.187 42.3837C223.421 42.3837 222.655 42.2551 221.931 41.998C221.249 41.7409 220.611 41.3552 220.1 40.8409C219.546 40.2838 219.12 39.641 218.865 38.9124C218.524 38.0553 218.396 37.1554 218.396 36.2125C218.396 35.484 218.524 34.7126 218.78 34.0269C219.291 32.6556 220.355 31.5413 221.675 30.9842C222.399 30.6842 223.208 30.5128 224.017 30.5128ZM224.102 32.9127C223.549 32.8699 222.995 33.0841 222.569 33.4698C222.144 33.9412 221.888 34.4983 221.846 35.0983H226.104C226.104 34.8412 226.061 34.5412 226.018 34.2841C225.933 34.0269 225.848 33.8127 225.678 33.5984C225.507 33.3841 225.295 33.2127 225.039 33.0841C224.741 32.9556 224.4 32.9127 224.102 32.9127Z" fill="black"/>
<path d="M231.383 42.2551V30.6842H233.512C233.682 30.6842 233.895 30.7271 234.065 30.8128C234.236 30.8985 234.321 31.0699 234.363 31.2413L234.576 31.927C234.789 31.7127 235.045 31.5413 235.258 31.327C235.513 31.1556 235.769 30.9842 236.024 30.8556C236.322 30.7271 236.578 30.6414 236.918 30.5556C237.259 30.4699 237.6 30.4271 237.94 30.4699C238.494 30.4699 239.09 30.5556 239.601 30.8128C240.069 31.0271 240.495 31.327 240.836 31.7127C241.176 32.1413 241.432 32.6127 241.602 33.0841C241.772 33.6412 241.858 34.2412 241.858 34.8412V42.1694H238.409V34.9269C238.451 34.4555 238.281 33.9841 238.025 33.5984C237.727 33.2555 237.302 33.0841 236.876 33.127C236.492 33.127 236.152 33.2127 235.811 33.3841C235.471 33.5555 235.13 33.7698 234.874 34.0269V42.2551H231.383Z" fill="black"/>
<path d="M51.6932 21.1275C53.7371 18.7276 54.6313 17.6134 54.4184 16.9706C54.1629 16.4135 53.6519 15.9849 53.0984 15.8563C52.332 15.5564 51.2674 15.4278 50.7565 15.7278C50.3307 16.0706 49.9474 16.4992 49.6068 16.9277L48.9681 17.6563C48.5423 17.2277 48.1165 16.7992 47.6907 16.4563C44.5823 13.7136 40.75 11.9565 36.6623 11.3137C35.0016 9.55664 32.8726 8.7424 30.7436 9.04238C28.9126 9.34237 27.2946 10.4566 26.3152 12.0422C22.0997 13.3279 18.3526 15.7278 15.372 19.0276C14.6907 18.8133 13.2429 19.0705 12.3062 19.5847C11.8804 19.7562 11.5397 20.1419 11.412 20.5704C11.3694 20.8704 11.4971 21.2989 12.6042 22.6274C9.66618 27.2987 8.43134 32.827 9.02747 38.3124C9.66618 43.7979 12.2636 48.8548 16.3939 52.4974C17.8417 53.7831 19.4597 54.8545 21.1629 55.6687C29.1681 59.5685 38.5358 59.2257 46.2429 54.7688C46.8816 54.3831 47.0945 53.6117 46.7965 52.9689L46.7113 52.7546C45.4339 49.9261 41.6016 41.2266 43.7307 33.3412C44.6249 30.0414 47.2223 26.5273 49.4365 23.7417C51.821 27.4272 53.0132 31.7984 52.8429 36.2125C52.7152 40.2409 51.3526 44.1407 48.9255 47.3548C48.7978 47.4834 48.7978 47.6548 48.8403 47.8262L49.0958 48.3834C49.2236 48.5976 49.479 48.7262 49.692 48.5976C49.7771 48.5548 49.8197 48.5119 49.8623 48.4691C56.2068 40.498 56.9732 29.3986 51.6932 21.1275ZM23.8029 39.8123C22.9513 44.1407 22.781 48.5976 23.2494 53.0117C21.6313 52.1975 20.0984 51.1261 18.6933 49.9261C14.9462 46.6692 12.4339 42.2122 11.5397 37.2839C10.6881 32.6984 11.4546 27.9415 13.7113 23.8702C14.5629 24.7702 15.5849 25.7987 16.6494 26.8272C19.2468 29.4414 22.2275 32.3984 23.6752 34.4983C24.5268 35.6982 24.2713 37.241 23.8029 39.8123ZM46.5836 20.2276C41.772 25.113 37.2158 27.7701 33.0855 28.07C29.892 28.3272 26.5281 27.3415 23.0791 25.2416C20.7797 23.7845 18.6081 22.0703 16.692 20.1419L16.5642 20.0133C18.9488 17.442 21.9294 15.5992 25.2933 14.5707C24.9526 15.9421 24.8675 17.3134 25.0804 18.7276C25.421 21.1704 26.6984 23.356 28.6145 24.8559C31.3397 26.9987 35.2571 26.4844 37.3862 23.7845C37.4713 23.656 37.5565 23.5703 37.6416 23.4417C39.0468 21.4275 39.5578 18.9419 39.1745 16.4992C39.0894 16.0278 39.0042 15.5564 38.8765 15.1278C41.3036 16.0706 43.5603 17.3991 45.4765 19.1562C45.8171 19.4562 46.2003 19.799 46.5836 20.2276Z" fill="black"/>
</svg>