<?xml version="1.0" encoding="utf-8"?>
<svg xmlns="http://www.w3.org/2000/svg" width="260" height="118" viewBox="0 0 260 118" fill="none">
<path fill-rule="evenodd" clip-rule="evenodd" d="M258.649 0.780884V55.1346H0.625V0.780884H258.649ZM258.649 62.0069V116.361H0.625V62.0069H258.649ZM59.8202 8.59043H74.502C82.1552 8.59043 89.6523 10.6209 89.6523 19.836C89.6523 26.8645 85.9037 35.2987 72.003 35.2987H66.224L64.1935 47.4814H53.1041L59.8202 8.59043ZM67.7859 27.3331H72.3153C77.4696 27.3331 79.1876 24.2093 79.1876 21.2417C79.1876 17.4932 76.5324 16.5561 74.3458 16.5561H69.5039L67.7859 27.3331ZM92.7761 30.7692C92.7761 19.2113 99.4922 7.65329 114.174 7.65329C125.888 7.65329 132.604 14.057 132.76 25.4588C132.76 36.8606 126.044 48.4186 111.363 48.4186C99.6484 48.4186 92.7761 42.171 92.7761 30.7692ZM104.334 29.9883C104.334 37.3292 107.614 39.5158 111.519 39.5158C118.547 39.5158 121.202 32.6435 121.202 25.9274C121.202 18.5865 117.922 16.3999 114.018 16.3999C106.833 16.3999 104.334 23.2722 104.334 29.9883ZM157.907 8.59043C165.091 8.59043 172.432 10.3085 172.432 19.2113C172.432 24.5217 169.933 29.8321 163.998 31.7064L170.87 47.4814H159.469L153.846 33.2682H149.16L146.661 47.4814H135.572L142.288 8.59043H157.907ZM150.41 25.7712H155.408C160.718 25.7712 161.811 22.6474 161.811 20.4608C161.811 17.0246 159.312 16.2437 157.126 16.2437H152.128L150.41 25.7712ZM198.047 17.4932H208.668L210.23 8.59043H177.743L176.337 17.4932H186.958L181.804 47.4814H192.893L198.047 17.4932ZM212.885 36.392L208.98 43.7329C213.354 47.3252 219.289 48.2624 224.287 48.4186C234.752 48.4186 241.468 42.7958 241.468 34.3616C241.468 29.5197 238.344 25.7712 231.94 24.0531L227.411 22.8036C224.131 21.8665 223.194 21.0855 223.194 19.5236C223.194 16.8684 225.849 16.2437 228.348 16.2437C231.315 16.2437 234.752 16.7122 238.969 19.5236L242.873 12.1828C238.969 9.05899 233.346 7.80948 228.973 7.80948C226.005 7.80948 221.788 8.27805 218.508 10.6209C215.228 12.9637 212.885 16.5561 212.885 21.3979C212.885 27.4893 217.102 30.4569 222.725 31.8626L226.474 32.7997C229.285 33.4244 230.378 34.3616 230.378 36.0797C230.378 39.2034 226.786 39.672 224.131 39.672C220.226 39.672 216.321 38.5787 212.885 36.392ZM20.3045 36.392L16.3998 43.7329C20.773 47.3252 26.7082 48.2624 31.7063 48.4186C42.1709 48.4186 48.887 42.7958 48.887 34.3616C48.887 29.5197 45.7632 25.7712 39.3595 24.0531L34.83 22.8036C31.5501 21.8665 30.6129 21.0855 30.6129 19.5236C30.6129 16.8684 33.2681 16.2437 35.7672 16.2437C38.7347 16.2437 42.1709 16.7122 46.388 19.5236L50.2927 12.1828C46.388 9.05899 40.7652 7.80948 36.3919 7.80948C33.4243 7.80948 29.051 8.27805 25.9273 10.6209C22.6473 12.9637 20.3045 16.5561 20.3045 21.3979C20.3045 27.4893 24.5216 30.4569 30.1444 31.8626L33.8929 32.7997C36.7043 33.4244 37.7976 34.3616 37.7976 36.0797C37.7976 39.2034 34.2053 39.672 31.5501 39.672C27.6454 39.672 23.7406 38.5787 20.3045 36.392ZM37.0167 69.6602C42.6395 69.6602 47.6375 70.7536 51.0737 72.6278C55.9155 75.4392 58.4145 80.2811 58.4145 86.841C58.4145 97.9304 51.0737 108.551 34.9862 108.551H17.4931L24.3654 69.6602H37.0167ZM30.6129 100.429H35.1424C44.2014 100.429 46.5442 92.7762 46.5442 86.9972C46.5442 80.1249 42.7957 77.7821 38.11 77.7821H34.5177L30.6129 100.429ZM68.8792 69.6602L62.0069 108.551H73.5648L80.4371 69.6602H68.8792ZM184.927 68.7231C168.996 68.7231 163.53 81.6868 163.53 91.3705C163.53 103.241 170.246 109.488 182.116 109.488C192.268 109.488 197.891 104.178 200.39 98.7113L191.175 94.9628C189.925 98.2428 187.114 100.586 182.585 100.586C177.43 100.586 175.244 96.6809 175.244 91.2143C175.244 85.5915 177.274 77.6259 184.615 77.6259C188.364 77.6259 190.863 78.8754 191.956 83.2487L202.108 79.9687C200.39 73.0964 194.611 68.7231 184.927 68.7231ZM228.66 78.7192H240.218L241.78 69.6602H207.262L205.701 78.563H217.258L211.948 108.551H223.35L228.66 78.7192ZM106.208 69.6602C113.393 69.6602 120.734 71.3783 120.734 80.2811C120.734 85.7477 118.235 90.7457 112.3 92.7762L119.172 108.551H107.145L101.523 94.3381H96.837L94.338 108.551H82.9362L89.8085 69.6602H106.208ZM98.3988 86.9972H103.241C108.395 86.9972 109.644 83.8734 109.644 81.6868C109.644 78.2506 107.145 77.4697 104.959 77.4697H100.117L98.3988 86.9972ZM140.57 84.6544L141.819 78.0944L160.874 77.9382L162.28 69.504H131.823L124.951 108.395H156.189L157.594 100.117H137.915L139.164 92.9324H153.69L155.095 84.6544H140.57Z" fill="black"/>
</svg>