<?xml version="1.0" encoding="utf-8"?>
<svg xmlns="http://www.w3.org/2000/svg" width="260" height="79" viewBox="0 0 260 79" fill="none">
<g clip-path="url(#clip0_4_190)">
<path fill-rule="evenodd" clip-rule="evenodd" d="M160.848 61.0306C145.782 72.123 123.943 78.0412 105.141 78.0412C78.7767 78.0412 55.0422 68.3016 37.0862 52.1026C35.6754 50.8288 36.9395 49.0928 38.6324 50.0848C58.0104 61.3463 81.9706 68.1212 106.721 68.1212C123.413 68.1212 141.775 64.6717 158.659 57.5135C161.21 56.4313 163.343 59.1819 160.848 61.0306Z" fill="black"/>
<path fill-rule="evenodd" clip-rule="evenodd" d="M167.112 53.8726C165.193 51.4151 154.381 52.7115 149.528 53.2864C148.05 53.4667 147.824 52.1816 149.156 51.2573C157.767 45.2038 171.897 46.9511 173.545 48.9802C175.193 51.0205 173.116 65.1678 165.024 71.9202C163.783 72.9573 162.597 72.4049 163.151 71.0297C164.968 66.498 169.042 56.3413 167.112 53.8726Z" fill="black"/>
<path fill-rule="evenodd" clip-rule="evenodd" d="M149.867 8.52234V2.63796C149.867 1.74742 150.544 1.14996 151.357 1.14996H177.732C178.578 1.14996 179.256 1.75869 179.256 2.63796V7.67688C179.244 8.52234 178.533 9.62707 177.269 11.3743L163.602 30.8649C168.681 30.7409 174.041 31.4962 178.646 34.0889C179.684 34.6751 179.967 35.5318 180.046 36.3773V42.6562C180.046 43.5129 179.097 44.5162 178.104 43.9977C169.99 39.7478 159.212 39.2857 150.239 44.0428C149.325 44.5388 148.366 43.5468 148.366 42.69V36.7268C148.366 35.7686 148.377 34.134 149.336 32.6798L165.171 9.99907H151.39C150.544 9.99907 149.867 9.40162 149.867 8.52234Z" fill="black"/>
<path fill-rule="evenodd" clip-rule="evenodd" d="M53.654 45.2376H45.6296C44.8622 45.1812 44.2527 44.6063 44.1963 43.8736V2.73933C44.1963 1.91642 44.8847 1.2626 45.7425 1.2626H53.2251C54.0038 1.29639 54.6246 1.89387 54.681 2.63787V8.01498H54.8277C56.7802 2.81823 60.4481 0.394592 65.3914 0.394592C70.4137 0.394592 73.5512 2.81823 75.8084 8.01498C77.7496 2.81823 82.1624 0.394592 86.8912 0.394592C90.2545 0.394592 93.9337 1.78114 96.1796 4.89242C98.719 8.35315 98.1998 13.3808 98.1998 17.7884L98.1885 43.7496C98.1885 44.5725 97.5001 45.2376 96.6424 45.2376H88.6293C87.828 45.1812 87.1847 44.5387 87.1847 43.7496V21.9481C87.1847 20.2121 87.3427 15.8833 86.959 14.2375C86.3608 11.4757 84.5663 10.6979 82.2414 10.6979C80.3002 10.6979 78.2687 11.9942 77.4449 14.0684C76.621 16.1426 76.7 19.6146 76.7 21.9481V43.7496C76.7 44.5725 76.0115 45.2376 75.1538 45.2376H67.1407C66.3281 45.1812 65.6961 44.5387 65.6961 43.7496L65.6849 21.9481C65.6849 17.3601 66.441 10.6077 60.7416 10.6077C54.9744 10.6077 55.2002 17.191 55.2002 21.9481V43.7496C55.2002 44.5725 54.5117 45.2376 53.654 45.2376Z" fill="black"/>
<path fill-rule="evenodd" clip-rule="evenodd" d="M201.963 0.394592C213.87 0.394592 220.314 10.6077 220.314 23.5939C220.314 36.1405 213.192 46.0943 201.963 46.0943C190.271 46.0943 183.905 35.8812 183.905 23.1543C183.905 10.3484 190.35 0.394592 201.963 0.394592ZM202.031 8.79279C196.117 8.79279 195.744 16.8415 195.744 21.8579C195.744 26.8855 195.665 37.6172 201.963 37.6172C208.181 37.6172 208.475 28.9597 208.475 23.6841C208.475 20.2121 208.328 16.0637 207.279 12.7721C206.376 9.9088 204.581 8.79279 202.031 8.79279Z" fill="black"/>
<path fill-rule="evenodd" clip-rule="evenodd" d="M235.753 45.2376H227.763C226.962 45.1812 226.318 44.5387 226.318 43.7496L226.307 2.60405C226.375 1.84878 227.041 1.2626 227.853 1.2626H235.291C235.991 1.29639 236.566 1.76987 236.724 2.41242V8.7026H236.871C239.117 3.07751 242.266 0.394592 247.807 0.394592C251.407 0.394592 254.917 1.69096 257.174 5.24187C259.274 8.53351 259.274 14.0684 259.274 18.0477V43.9412C259.183 44.6627 258.517 45.2376 257.727 45.2376H249.68C248.947 45.1812 248.337 44.6401 248.258 43.9412V21.5986C248.258 17.1008 248.778 10.5175 243.236 10.5175C241.284 10.5175 239.489 11.8252 238.598 13.8092C237.469 16.323 237.322 18.8255 237.322 21.5986V43.7496C237.311 44.5725 236.611 45.2376 235.753 45.2376Z" fill="black"/>
<path fill-rule="evenodd" clip-rule="evenodd" d="M128.841 25.5891C128.841 28.7117 128.92 31.3157 127.34 34.0888C126.065 36.3433 124.033 37.7299 121.787 37.7299C118.706 37.7299 116.9 35.3851 116.9 31.9244C116.9 25.0931 123.029 23.8531 128.841 23.8531V25.5891ZM136.933 45.1248C136.403 45.5983 135.635 45.6321 135.037 45.3164C132.373 43.107 131.888 42.0812 130.432 39.9732C126.031 44.4597 122.905 45.8012 117.205 45.8012C110.445 45.8012 105.197 41.6415 105.197 33.311C105.197 26.8066 108.718 22.3764 113.752 20.212C118.108 18.2957 124.191 17.9575 128.841 17.4277V16.3906C128.841 14.4855 128.988 12.2309 127.859 10.5851C126.888 9.10838 125.015 8.49965 123.356 8.49965C120.297 8.49965 117.578 10.0666 116.912 13.3131C116.776 14.0346 116.246 14.7448 115.512 14.7786L107.736 13.9444C107.082 13.7978 106.348 13.268 106.54 12.2648C108.323 2.84074 116.855 0 124.485 0C128.39 0 133.491 1.03709 136.572 3.99055C140.477 7.63165 140.104 12.4902 140.104 17.7771V30.2673C140.104 34.0212 141.662 35.667 143.129 37.6961C143.637 38.4175 143.75 39.2855 143.095 39.8266C141.459 41.1906 138.547 43.727 136.944 45.1474L136.933 45.1248Z" fill="black"/>
<path fill-rule="evenodd" clip-rule="evenodd" d="M23.6442 25.5891C23.6442 28.7117 23.7232 31.3157 22.1431 34.0888C20.8678 36.3433 18.8476 37.7299 16.5904 37.7299C13.5093 37.7299 11.7149 35.3851 11.7149 31.9244C11.7149 25.0931 17.8432 23.8531 23.6442 23.8531V25.5891ZM31.7362 45.1248C31.2058 45.5983 30.4383 45.6321 29.8402 45.3164C27.1767 43.107 26.7027 42.0812 25.2355 39.9732C20.834 44.4597 17.719 45.8012 12.0083 45.8012C5.25927 45.8012 0 41.6415 0 33.311C0 26.8066 3.53252 22.3764 8.55479 20.212C12.9112 18.2957 18.9943 17.9575 23.6442 17.4277V16.3906C23.6442 14.4855 23.7909 12.2309 22.6736 10.5851C21.6917 9.10838 19.8182 8.49965 18.1705 8.49965C15.112 8.49965 12.3807 10.0666 11.7149 13.3131C11.5794 14.0346 11.049 14.7448 10.3267 14.7786L2.53935 13.9444C1.88476 13.7978 1.16246 13.268 1.34303 12.2648C3.13751 2.84074 11.6584 0 19.2878 0C23.1927 0 28.294 1.03709 31.3751 3.99055C35.28 7.63165 34.9076 12.4902 34.9076 17.7771V30.2673C34.9076 34.0212 36.4651 35.667 37.9323 37.6961C38.4514 38.4175 38.5643 39.2855 37.9097 39.8266C36.2732 41.1906 33.3614 43.727 31.7588 45.1474L31.7362 45.1248Z" fill="black"/>
</g>
<defs>
<clipPath id="clip0_4_190">
<rect width="259.273" height="78.0413" fill="white"/>
</clipPath>
</defs>
</svg>