<?xml version="1.0" encoding="utf-8"?>
<svg xmlns="http://www.w3.org/2000/svg" width="260" height="260" viewBox="0 0 260 260" fill="none">
<path d="M178.427 114.316C176.895 113.255 175.128 111.841 174.303 111.016C174.774 110.309 175.481 109.13 176.188 108.07C180.195 102.177 187.856 91.0991 187.856 75.307C187.856 66.2325 184.556 56.3329 176.542 48.7904C168.528 41.2479 155.918 35.9446 137.297 35.9446C119.737 35.9446 99.8205 41.7194 82.7321 51.8546C75.0717 56.4508 68.7077 61.2827 64.3472 65.9968C59.9867 70.7108 57.394 75.1892 57.394 79.0783C57.394 80.9639 58.1011 82.7317 59.5153 84.028C61.8723 86.6208 66.2328 87.7993 72.0076 88.3885C77.6644 88.9778 84.6177 88.9778 92.0423 88.9778H93.3387C104.77 88.9778 112.902 89.3314 118.088 90.0385C120.68 90.392 122.566 90.8634 123.744 91.4527C124.923 92.0419 125.276 92.6312 125.276 93.3383C125.276 93.574 125.041 94.1633 124.216 94.8704C121.741 97.3453 115.259 100.999 109.367 105.123C106.42 107.127 103.592 109.248 101.588 111.487C99.5848 113.609 98.1706 115.848 98.1706 118.205V118.323C98.1706 121.269 99.7027 123.626 102.06 125.394C109.131 130.815 123.862 132.229 131.64 133.644C136.354 134.468 138.947 136.236 140.244 138.004C141.658 139.89 141.894 141.893 141.894 143.661C141.894 150.261 139.419 156.035 135.058 160.042C131.169 163.578 126.455 165.935 119.62 165.935H118.795C118.912 164.638 119.03 163.342 119.03 162.046C119.03 154.268 115.966 147.786 110.781 143.307C105.595 138.829 98.2885 136.236 89.8032 136.236C79.3144 136.236 70.9469 140.597 65.29 146.961C59.5153 153.443 56.4512 161.928 56.4512 170.295C56.4512 183.495 62.5795 196.694 74.3646 206.594C86.2676 216.493 103.827 223.093 126.926 223.093C145.193 223.093 163.696 217.082 177.603 206.594C189.152 197.873 202.941 181.963 202.941 155.917C202.823 132.347 186.795 120.562 178.427 114.316ZM105.595 115.966C108.188 113.373 113.373 109.838 117.38 107.363C121.27 104.888 124.687 102.649 127.28 100.409C129.755 98.1702 131.405 95.931 131.523 93.3383C131.523 91.3348 130.698 89.4492 129.283 87.9171C126.573 85.3244 121.859 84.028 115.848 83.3209C109.956 82.6138 102.767 82.6138 95.3422 82.6138H93.3387C87.2104 82.6138 82.3785 82.496 78.4894 82.3781C83.9106 80.2568 90.1567 76.957 96.8742 73.3036C107.952 67.411 120.091 60.8113 131.64 57.9829C128.93 61.047 127.28 64.4647 127.28 67.411C127.28 68.1181 127.516 68.9431 128.105 69.5323C128.694 70.1216 129.519 70.4751 130.698 70.4751C132.701 70.4751 135.058 69.6502 137.651 68.8252C141.304 67.6467 145.429 66.2325 150.025 66.2325C154.032 66.2325 158.275 67.2931 162.871 70.3573C159.807 70.593 157.332 71.4179 155.8 72.7143C154.15 74.0107 153.679 75.5427 153.679 76.4855C153.679 78.1355 154.857 79.4318 156.389 81.1996C158.746 83.9102 161.81 87.3279 161.81 92.9848C161.81 97.1096 160.278 101.47 157.921 104.77V104.063C157.921 101.234 157.332 97.9345 155.682 96.1667C155.227 95.6463 154.665 95.2297 154.035 94.945C153.404 94.6604 152.72 94.5144 152.029 94.5168C149.672 94.5168 147.55 96.4025 144.368 98.8773C142.129 100.645 139.419 103.002 136.001 105.123C121.505 114.316 113.727 117.851 108.188 118.323C106.185 118.559 103.12 118.559 105.595 115.966ZM118.912 172.063C127.044 172.063 133.88 169.588 139.183 164.756C144.84 159.571 148.022 151.911 148.022 143.661C148.022 139.772 146.843 136.472 144.486 133.879C156.625 136.826 169.353 143.072 176.424 152.5C173.242 151.439 171.003 151.203 168.764 151.203C166.524 151.203 164.639 153.56 164.639 156.271C164.639 157.685 165.228 159.335 165.817 161.339C166.878 164.521 168.174 168.528 168.174 173.359C168.174 177.838 167.114 182.905 163.578 188.562C163.46 183.966 162.282 180.313 160.632 178.309C159.336 176.777 158.039 176.424 157.096 176.424C155.682 176.424 154.504 177.131 153.561 178.191C152.618 179.252 151.793 180.784 150.85 182.434C147.55 188.444 142.247 198.108 125.748 203.058C127.28 200.465 127.987 197.873 127.987 195.751C127.987 194.926 127.869 194.101 127.633 193.512C127.427 192.927 127.044 192.42 126.537 192.062C126.031 191.703 125.426 191.51 124.805 191.509C123.037 191.626 120.916 192.098 118.441 192.805C114.67 193.866 110.074 195.162 105.006 195.162C99.7027 195.162 94.0458 193.748 88.1532 189.269C90.1567 188.916 92.0423 188.209 93.3387 187.148C94.3994 186.205 95.1065 185.027 95.1065 183.73C95.1065 181.845 93.5744 180.431 91.8066 178.899C89.3317 176.541 86.2676 173.713 86.2676 168.999C86.2676 167.585 86.5033 166.053 87.0926 164.403C87.6818 165.935 88.3889 167.231 89.4496 168.41C90.9817 170.06 92.8673 171.12 94.6351 171.12C96.5207 171.12 97.6992 170.178 98.1706 169.117C98.642 167.938 98.642 166.642 98.642 165.699C98.642 164.521 99.2313 163.46 100.056 162.635C100.881 161.81 102.06 161.339 103.356 161.339C106.067 161.103 108.188 162.635 109.602 164.992C111.016 167.349 111.841 170.413 111.841 173.242C111.841 175.009 111.488 176.777 111.016 178.191L110.427 179.723L111.724 178.663C114.198 176.777 116.202 173.949 117.027 171.945C117.616 172.063 118.323 172.063 118.912 172.063ZM64.9365 81.0818C64.1115 80.6104 63.5223 80.0211 63.5223 79.1961C63.5223 76.957 65.6436 73.3036 69.6505 69.4145C81.4357 57.5115 108.895 42.3086 137.297 42.3086C151.675 42.3086 163.342 45.8442 171.121 52.4438C177.838 58.2186 181.492 66.3503 181.492 75.307C181.492 89.2135 175.01 98.7595 171.003 104.534C168.999 107.48 167.703 109.13 167.703 111.134C167.703 112.666 168.41 113.962 169.706 115.259C170.885 116.555 172.653 117.734 174.656 119.266C182.906 125.394 196.459 135.411 196.577 156.035C196.577 179.488 184.202 193.748 173.713 201.644C160.868 211.308 143.779 216.965 126.809 216.965C84.4998 216.965 62.6973 193.394 62.6973 170.413C62.6973 163.578 65.29 156.625 69.8862 151.321C74.6003 146.018 81.3178 142.482 89.8032 142.482C94.5172 142.482 100.528 143.543 105.242 146.725C109.956 149.907 113.609 155.093 113.609 163.578V164.285C113.109 163.226 112.475 162.236 111.724 161.339C109.956 159.217 107.245 157.332 103.238 157.332C98.642 157.332 94.8708 161.103 94.8708 165.463C94.8708 166.288 94.7529 166.76 94.6351 167.113C94.6351 167.231 94.5172 167.231 94.5172 167.349C93.4565 167.349 92.0423 166.524 90.9817 165.11C89.921 163.578 89.096 161.339 89.096 158.392C89.096 157.803 89.096 157.214 89.2139 156.625L89.3317 155.328L88.3889 156.389C84.1463 161.103 82.6142 165.463 82.6142 169.117C82.6142 175.127 86.739 179.488 89.096 181.727C89.5674 182.081 90.0389 182.67 90.5103 183.141C90.746 183.377 90.8638 183.613 90.9817 183.73C91.0995 183.848 91.0995 183.848 91.0995 183.966C91.0995 184.202 90.6281 184.791 89.4496 185.262C88.2711 185.734 86.2676 186.205 83.557 186.205C82.6142 186.205 81.5535 186.205 80.375 186.087L79.3144 185.97L80.0215 186.795C88.1532 196.458 97.1099 199.051 104.77 199.051C110.545 199.051 115.613 197.637 119.266 196.576C120.798 196.105 122.566 195.516 123.509 195.516C123.862 195.516 124.098 195.633 124.098 195.751C124.216 195.869 124.216 196.105 124.216 196.458C124.216 197.637 123.509 199.64 122.448 201.762C121.387 203.883 119.737 206.004 118.088 207.654L117.027 208.597L118.441 208.361C142.129 205.297 150.025 191.626 153.914 184.555C154.504 183.377 155.211 182.316 155.682 181.491C156.271 180.666 156.743 180.313 156.861 180.313C157.096 180.313 157.45 180.548 157.803 181.138C158.982 182.905 159.925 187.148 159.925 191.626C159.925 193.63 159.689 195.633 159.336 197.401L158.982 198.815L160.043 197.873C168.999 189.623 171.474 180.902 171.474 173.713C171.474 168.174 170.06 163.46 168.999 160.396C168.41 158.746 167.939 157.214 168.057 156.507C168.057 155.917 168.174 155.564 168.292 155.446C168.41 155.328 168.646 155.21 168.999 155.093C172.771 155.093 177.249 156.507 182.67 158.982L183.731 159.453L183.259 158.392C175.953 141.304 159.689 133.997 143.897 129.99C136.001 127.987 128.105 126.808 121.505 125.63C116.673 124.805 112.548 123.98 109.484 122.919C109.013 122.683 108.542 122.448 107.952 122.212C117.027 121.033 127.869 114.669 137.533 108.541C141.186 106.184 144.015 103.827 146.254 101.941C147.433 100.999 148.493 100.056 149.436 99.3487C150.379 98.6416 151.086 98.2881 151.439 98.2881C151.793 98.2881 152.029 98.4059 152.382 98.7595C153.325 99.7023 153.797 102.413 153.797 105.241C153.797 107.598 153.443 110.073 152.972 112.077L153.207 113.137L154.15 112.548C161.81 107.598 165.582 100.056 165.582 93.1026C165.582 86.0315 161.693 81.671 159.218 78.8426C158.864 78.3712 158.393 77.8998 158.039 77.4284C157.803 77.0748 157.568 76.7213 157.45 76.6034C157.45 76.3677 157.686 76.0141 158.157 75.7784C159.807 74.5999 162.518 73.775 165.7 73.775C167.349 73.775 168.999 74.0107 170.767 74.3642L171.946 74.5999L171.239 73.6571C164.639 65.1718 156.979 62.6969 150.261 62.6969C144.958 62.6969 140.126 64.229 136.59 65.2897C134.822 65.8789 132.465 66.586 131.523 66.586H131.287C131.287 65.4075 132.23 63.2862 133.88 61.047C135.647 58.8078 138.122 56.3329 141.422 54.3295L142.601 53.6224L141.186 53.5045C140.597 53.5045 140.008 53.3867 139.301 53.3867C125.748 53.3867 108.188 63.2862 95.2243 70.0037C86.9747 74.2464 70.0041 84.1459 64.9365 81.0818Z" fill="black"/>
</svg>