<?xml version="1.0" encoding="utf-8"?>
<svg xmlns="http://www.w3.org/2000/svg" width="400" height="90" viewBox="0 0 400 90" fill="none">
<g clip-path="url(#clip0_9_124)">
<path d="M275.973 16.2002C277.84 17.4002 278.36 19.1202 277.507 21.3602C276.467 25.6535 276.68 30.5469 275.413 34.6135C274.453 34.6535 273.493 34.6402 272.52 34.6002C273.533 34.5735 274.52 34.7469 275.507 35.1335C275 37.1735 274.8 39.1869 274.893 41.1602C278.44 38.0802 282.093 33.2269 287.453 35.2135C290.853 39.0402 287.067 46.5735 285.933 50.8802C285.693 53.1602 283.76 57.0669 285.347 59.0535C287.787 60.7202 288.213 55.4269 291.32 56.7735C292.533 60.5869 285.693 64.6802 283 61.0002C280.24 57.3735 280.12 53.2269 281.347 48.9735C281.96 48.7202 282.6 48.5335 283.24 48.4135L282.093 46.8135C283.68 43.7869 285.333 40.6935 286.467 37.4669C281.267 36.9202 278.787 46.6269 274.16 46.3335C275.627 49.7869 272.6 51.3335 271.653 54.4535C270.56 57.8535 269.933 61.3869 268.613 64.7335C266.4 68.2002 262.947 64.0402 263.133 61.3602C262.893 47.9469 267.067 34.1202 272.613 22.0002C273.44 20.1069 273.827 17.0002 275.973 16.2002Z" fill="black"/>
<path d="M366.92 24.1335C369.013 23.8535 370.733 25.4002 371.4 27.2668C371.453 29.4535 369.973 31.8135 368.28 33.1202C367.867 31.3468 369.027 29.5868 369.12 27.7602C369.467 26.2002 367.573 25.4002 366.92 24.1335Z" fill="black"/>
<path d="M139.213 25.8535C141.107 25.0402 143.933 24.8935 145.08 26.9602C144.72 29.3735 144.2 31.7869 141.36 32.2135C137.533 32.9869 138.187 28.0002 139.213 25.8535Z" fill="black"/>
<path d="M228.693 30.0133C230.88 29.0667 233.373 30.8 233.067 33.1733C232.387 35.0133 230.56 37.2133 228.613 35.3067C226.507 33.5733 227.573 31.96 228.693 30.0133Z" fill="black"/>
<path d="M307.533 33.8399C309.08 37.7599 304.56 36.1999 302.64 38.6799C299.707 41.6799 296.133 47.6533 297.573 51.8399C302.333 51.3866 304.667 45.4666 307.693 42.2533C309.427 40.7866 309.493 35.0133 311.96 35.3999C314.213 40.3999 311.053 47.9066 312.173 53.1999C314.24 52.3733 315.213 48.9333 316.493 47.1733C318.64 43.8666 320.813 38.9066 324.56 37.2133C325.613 37.8133 325.933 38.5866 325.507 39.5599C321.973 44.4799 320.053 51.4533 315.413 55.4666C314.2 56.8799 312.947 56.6666 311.253 56.7466C309.48 55.3599 307.88 53.9199 306.453 52.1733C304.253 52.9599 303.04 55.8933 300.013 55.7333C297.64 56.0133 296.653 55.7599 294.613 54.6266C293.6 55.0266 292.68 55.7599 291.88 56.8133L290.107 56.5199C289.213 53.2933 293.36 51.4799 292.773 48.0266C292.773 42.3066 296.373 39.7333 300.053 36.0933C302.24 34.5999 304.787 33.1733 307.533 33.8399Z" fill="black"/>
<path fill-rule="evenodd" clip-rule="evenodd" d="M33.2293 20.1614C33.7766 18.5654 34.2932 17.0591 33.9864 15.3202C32.6664 14.0268 30.8397 13.8268 29.1464 14.4268C16.5197 18.5202 5.50637 28.7335 1.38637 41.4668C-0.0136297 48.0668 -0.533629 56.0802 3.2397 62.0135C6.17304 67.1602 11.5464 68.8668 17.2397 67.9868C23.1597 63.6802 28.853 58.2935 33.0397 52.2802C32.9652 53.5578 32.9029 54.8382 32.8406 56.1194C32.6689 59.6519 32.4969 63.1907 32.0664 66.6935C31.7464 68.7602 33.173 69.8135 34.7064 70.8002C35.653 70.7335 36.3597 70.0935 36.853 68.8935C38.1064 65.7068 38.9197 62.2402 39.333 58.8535C41.7597 52.4402 45.893 47.7868 50.9064 43.2402L52.7464 43.0135C52.7589 45.6241 51.7826 48.1469 50.7904 50.7108C49.6644 53.6205 48.5179 56.5831 48.773 59.7868C49.053 62.5868 49.8397 67.8535 53.2664 68.3868C56.533 69.9335 60.4264 67.0268 61.493 63.9602C62.4397 61.0668 63.533 58.4002 65.493 56.0135C67.3348 59.4475 70.1719 60.3612 73.476 61.4254C73.8795 61.5553 74.2899 61.6875 74.7064 61.8268C76.3894 61.6478 78.051 60.8597 79.6052 60.1225C79.7871 60.0362 79.9676 59.9507 80.1464 59.8668C80.9266 60.2094 81.7594 60.8422 82.6443 61.5145C84.2393 62.7264 86.0034 64.0668 87.933 64.0668C91.2397 63.0135 93.573 59.1068 95.0264 56.1602C95.4762 56.5326 95.7734 56.9314 96.0541 57.3081C96.5473 57.9698 96.9897 58.5634 98.1197 58.8268C92.1864 57.9735 96.1064 67.9468 100.16 64.2002C101.217 62.6332 101.368 60.2358 101.517 57.8517C101.634 55.9959 101.75 54.1483 102.293 52.7068C104.973 48.1468 107.853 43.8935 112.133 40.6668L113.933 40.7335C113.613 42.4002 113.36 44.0535 113.146 45.6935C116.973 46.4935 117.666 38.6535 114 38.1335C110.767 37.0693 108.457 39.5126 106.317 41.7751C105.615 42.5174 104.931 43.2403 104.24 43.8135C104.183 42.6374 104.36 41.5168 104.532 40.4257C104.887 38.1769 105.222 36.0532 103.453 33.8268C102.453 33.6002 101.546 33.6668 100.733 34.0002C98.7878 36.5542 98.4987 39.2993 98.2084 42.056C97.9455 44.5522 97.6816 47.0579 96.1864 49.4402C95.0314 50.9655 94.0034 52.5736 92.976 54.181C91.821 55.9878 90.6667 57.7937 89.333 59.4802L87.4264 59.3468C86.093 52.3068 87.8797 45.1068 90.253 38.4535C90.7997 35.6135 88.6264 34.1602 86.6664 36.7735C86.1596 36.5441 85.6915 36.3042 85.2447 36.0752C83.3289 35.0934 81.8065 34.3132 79.3197 35.4268C79.1566 35.5277 78.9919 35.6294 78.8257 35.732C73.2576 39.1697 66.0623 43.6119 65.4797 50.7068C64.8037 52.8175 63.3963 54.6391 61.9755 56.4781C60.6497 58.194 59.3122 59.9251 58.5464 61.9202L57.1064 61.9068C56.0334 59.2841 56.8379 56.3847 57.6593 53.424C58.3997 50.7555 59.1538 48.0373 58.5597 45.4268C57.6718 45.2788 56.7875 45.3841 55.909 45.4887C55.1253 45.5821 54.3462 45.6748 53.573 45.5868C54.0087 45.4324 54.425 45.3094 54.823 45.1917C56.3493 44.7405 57.606 44.3691 58.653 42.6135C56.1197 41.6268 54.1197 41.8935 51.5864 42.2668C51.9338 42.1037 52.2724 41.9837 52.5921 41.8703C53.6833 41.4835 54.5552 41.1744 54.813 39.4935C49.9197 38.2802 47.013 41.0135 43.8797 44.1868C44.0664 44.7868 44.253 45.3868 44.453 45.9868C43.7597 45.8135 43.053 45.6535 42.3464 45.5202C42.8096 42.6402 43.1822 39.7381 43.5549 36.8357C44.2225 31.6355 44.8902 26.4347 46.0797 21.3602C46.1026 20.7056 46.1873 20.0461 46.2707 19.3977C46.576 17.0218 46.8622 14.7952 44.013 13.5068C42.8272 14.1409 42.5518 15.3091 42.2601 16.5464C42.0795 17.3124 41.8927 18.1049 41.4797 18.8135C38.3464 26.8935 36.0797 35.3468 34.3464 43.8268C34.218 44.0302 34.0894 44.2343 33.9604 44.4389C30.4443 50.0156 26.6662 56.0078 21.573 60.2135C21.2301 60.5474 20.8982 60.8815 20.5713 61.2107C18.4961 63.3002 16.6195 65.1898 13.3597 65.5468C10.8175 64.8637 10.2977 63.2399 9.6513 61.2207C9.5281 60.8358 9.40031 60.4366 9.25304 60.0268C6.83516 51.7558 10.0049 44.2799 13.177 36.7985C13.5384 35.9462 13.8998 35.0938 14.253 34.2402C17.1997 27.1335 22.7064 20.6002 29.3864 16.7735L30.6664 17.0802C30.8109 17.5007 30.9061 17.9066 30.9962 18.2908C31.2717 19.4659 31.4995 20.4375 32.9464 21.0002C33.0389 20.7168 33.1346 20.4377 33.2293 20.1614ZM83.5248 43.0658C84.2546 41.7251 84.9748 40.402 85.1865 38.8135C81.6889 36.4397 79.2467 38.9776 76.9266 41.3885C76.5492 41.7808 76.1749 42.1697 75.7999 42.5335C73.3599 46.8135 70.9065 52.3602 72.1599 57.3335C73.9065 58.9735 76.6532 56.5468 77.9065 55.2402C80.0306 53.6025 80.5883 51.5288 81.1966 49.2667C81.4055 48.4901 81.6203 47.6912 81.9065 46.8802C82.2202 45.4624 82.8763 44.2571 83.5248 43.0658Z" fill="black"/>
<path d="M356.707 40.5868C359.747 44.3068 358.16 49.1468 354.253 51.4535C354.387 53.8935 354.467 56.3868 354.733 58.8135C359.52 58.4401 362.093 52.5201 365.04 49.5601C366.093 52.5468 363.147 54.1335 361.667 56.3735C359.48 58.5601 357.493 63.8135 353.88 63.4801C350.16 61.6801 350.413 58.2668 350.173 54.6668C349.973 49.5068 352.76 46.0668 354.4 41.6268C353.453 41.6801 352.573 41.8801 351.76 42.2401C345.72 46.9335 343.32 55.5068 341.147 62.4535C339.6 62.6001 338.16 62.4801 336.84 62.0535C336.64 56.5468 337.893 50.8801 340.293 45.9201C340.72 44.4668 341.013 42.9601 341.187 41.4001C339.227 40.8935 337.2 43.9601 335.787 45.0935C332.84 49.1201 329.093 51.3335 328.453 56.6801C326.493 58.9068 328.587 62.1201 326.213 63.4535C325.187 63.5068 324.16 63.5601 323.12 63.5868C322.493 57.3201 323.76 50.6135 325.76 44.6801C326.533 42.2001 325.827 40.0668 327.507 37.8135C329.88 39.6801 328.947 43.8535 329.56 46.6001C331.36 46.8535 331.827 43.5201 333.267 42.6001C336.36 40.8801 338.507 38.0135 342.173 39.2001C344.733 40.1335 342.84 43.4535 345.227 44.6668C347.147 42.3735 349.24 39.9468 351.733 38.2668C354.093 37.1068 355.12 39.2801 356.707 40.5868Z" fill="black"/>
<path fill-rule="evenodd" clip-rule="evenodd" d="M130.027 24.6264C129.467 23.4131 128.787 22.5597 127.987 22.0664C127.026 22.2924 126.361 24.0746 125.683 25.8932C125.08 27.508 124.467 29.1515 123.627 29.7597C123.707 32.4264 125.267 32.9597 127.64 32.9997C127.227 33.0397 126.84 33.2531 126.494 33.6264C125.667 33.2264 124.827 32.9731 123.96 32.8797C121.938 33.3625 121.353 35.3514 120.773 37.3242C120.505 38.239 120.237 39.1503 119.827 39.9064C117 47.7731 113.68 57.3464 117.214 65.4397C119.307 68.5597 124.334 72.3197 127.96 69.2664C129.502 68.5022 130.485 66.9833 131.439 65.5083C132.367 64.0754 133.267 62.684 134.627 62.0664C135.28 65.6931 136.947 69.9731 141.374 69.7331C143.615 68.8947 145.22 66.4441 146.769 64.0798C147.709 62.6463 148.627 61.2445 149.654 60.2531C152.214 63.0931 155.134 65.9197 159.28 65.7197C162.76 63.8531 168.027 57.6531 168.96 53.7464C167.423 53.1644 166.519 54.32 165.574 55.5279C165.069 56.1739 164.552 56.8349 163.92 57.2531C163.683 57.4566 163.422 57.6906 163.141 57.9424C161.175 59.7026 158.242 62.3296 155.92 61.4664C155.654 58.1197 156.014 54.1731 157.8 51.2264C162.587 49.9731 168.307 43.6664 167.254 38.6131C166.444 34.6058 163.324 35.3656 160.271 36.109L160.227 36.1197C159.636 36.7388 159.046 37.3446 158.463 37.9436C153.58 42.9564 149.166 47.4876 148.88 55.2531C150 55.8664 151.294 55.9864 152.734 55.6264L152.667 56.3064C151.387 56.1464 150.227 56.3197 149.187 56.7864C148.862 57.2279 148.544 57.6686 148.228 58.1062C146.197 60.9204 144.258 63.6079 141.2 65.5464C138.537 65.1013 138.9 61.916 139.245 58.8891C139.541 56.294 139.823 53.8152 138.174 53.2797C138.854 53.1464 139.467 52.8397 140.027 52.3864C140.035 52.0941 140.074 51.6735 140.119 51.1753C140.368 48.4463 140.83 43.3901 137.707 44.3597C136.923 46.1934 136.234 48.0199 135.552 49.8275C133.766 54.5657 132.028 59.1739 128.747 63.4397C128.344 63.7842 127.975 64.1567 127.616 64.5196C126.35 65.8002 125.201 66.9623 123.04 66.3597C122.956 65.8379 122.854 65.3301 122.754 64.8315C122.347 62.8079 121.971 60.9363 122.934 58.8931C124.53 55.1084 125.157 51.1781 125.786 47.236C126.375 43.5397 126.967 39.8331 128.36 36.2264C128.745 34.2939 128.976 32.3271 129.208 30.3574C129.433 28.4403 129.659 26.5204 130.027 24.6264ZM158.64 48.2531C161.507 47.7064 165.72 41.8931 163.907 38.8664C162.818 39.1085 162.295 40.2627 161.756 41.4525C161.285 42.4911 160.803 43.5568 159.92 44.0664C159.264 43.5087 158.626 42.9331 157.998 42.3395C157.87 42.2152 157.733 42.0844 157.587 41.9464C157.724 42.0783 157.861 42.2093 157.998 42.3395C160.032 44.309 159.904 44.6661 159.152 46.7649C159.002 47.183 158.828 47.6702 158.64 48.2531Z" fill="black"/>
<path fill-rule="evenodd" clip-rule="evenodd" d="M380.541 38.2054C381.833 36.0056 383.396 33.3452 382.054 31.3065C378.76 30.6932 377.067 32.7332 375.64 35.3599C375.42 36.8353 375.585 38.2005 375.755 39.6041C375.821 40.1538 375.889 40.7095 375.934 41.2799C373.387 44.4399 370.147 47.5999 367.054 50.2932C369.715 51.4767 371.716 49.0778 373.623 46.7912C374.832 45.3424 376.003 43.9387 377.28 43.5199C378.387 44.9199 379.16 46.4265 379.6 48.0132C379.106 48.6792 378.568 49.3231 378.032 49.9645C375.908 52.5074 373.815 55.0118 374.614 58.7065C374.696 59.0273 374.769 59.3529 374.841 59.676C375.323 61.8243 375.781 63.8653 378.667 63.6799C386.36 63.8399 388.867 56.6265 386.907 50.1332C386.027 48.9065 385.747 47.7465 386.067 46.6399C387.9 44.5331 389.814 42.5079 391.733 40.4771C391.867 40.3358 392 40.1945 392.134 40.0532C392.6 39.4534 393.123 38.9625 393.629 38.4874C394.688 37.4946 395.673 36.571 395.907 34.8665C394.851 34.9133 394.07 35.8834 393.344 36.7856C393.034 37.1707 392.734 37.5433 392.427 37.8265C390.296 40.5152 387.636 42.2797 384.848 44.1295C384.567 44.3162 384.284 44.5037 384 44.6932C382.207 44.4876 380.952 42.3931 379.992 40.791C379.831 40.5232 379.679 40.2691 379.534 40.0399C379.787 39.49 380.152 38.8687 380.541 38.2054ZM377.254 59.7599C381.52 60.7599 382.16 54.8265 381.774 51.8799C380.294 50.5865 378.974 51.1199 378.147 52.7599C376.587 55.1199 375.907 57.1199 377.254 59.7599Z" fill="black"/>
<path fill-rule="evenodd" clip-rule="evenodd" d="M199.533 12.3602C198.64 11.5868 197.68 11.2535 196.653 11.3468C196.068 12.1717 195.712 13.2238 195.354 14.2819C194.815 15.8749 194.271 17.4816 192.933 18.3468C192.142 18.8793 191.038 19.396 189.857 19.9485C187.135 21.222 184.005 22.6859 183.373 24.9735C184.714 24.6266 185.988 23.8759 187.261 23.1261C188.922 22.1469 190.582 21.169 192.386 21.0935L192.4 22.6268C191.654 24.0924 191.188 25.8732 190.716 27.6757C189.965 30.5469 189.199 33.473 187.266 35.2668C187.501 39.0074 186.464 42.8373 185.435 46.6378C184.825 48.8927 184.217 51.1373 183.88 53.3468C183.886 54.9508 182.708 55.9579 181.52 56.973C180.21 58.0928 178.888 59.2223 179.133 61.1735C178.997 62.8097 180.486 63.4547 181.878 64.0579C182.403 64.2854 182.914 64.5069 183.32 64.7735C186.805 67.7642 192.536 66.471 196.987 65.4666L196.987 65.4666L196.988 65.4665C197.577 65.3336 198.144 65.2057 198.68 65.0935C205.653 62.6002 212.813 59.3735 216.746 52.7468C218.484 50.3278 218.394 47.9818 218.295 45.4112C218.26 44.5105 218.225 43.5822 218.266 42.6135C220 42.3335 221.773 42.4935 223.6 43.0935C224.186 44.3602 224.093 45.7735 223.306 47.3468C223.893 48.3202 224.24 49.2135 224.333 50.0135C223.626 50.3868 222.893 50.7068 222.106 50.9602C220.453 55.5868 218.106 64.3068 223.106 67.6135C225.281 69.8529 227.56 68.215 229.628 66.7291L229.628 66.7291L229.628 66.729L229.628 66.729L229.628 66.7287C230.121 66.3746 230.602 66.0291 231.066 65.7468C231.652 64.956 232.259 64.2049 232.857 63.4643C234.709 61.1704 236.48 58.9767 237.306 56.0135C238.321 56.0064 238.901 56.8746 239.519 57.7993C240.063 58.6129 240.636 59.4703 241.56 59.8135C244.387 61.8356 246.728 60.328 249.053 58.8304C250.039 58.1951 251.023 57.5616 252.04 57.2002C252.146 58.8802 251.68 61.0935 250.253 62.1868C247.72 64.4535 245.4 67.1602 243.573 70.0268C242.106 74.0002 241.36 78.5202 242.68 82.6268C243.573 85.6802 247.426 87.3202 249.653 84.3068C252.811 79.5354 254.111 74.1489 255.394 68.8285C256.624 63.727 257.84 58.6862 260.666 54.3068C260.32 53.5602 259.88 52.8402 259.373 52.1468C260.586 47.6935 261.266 42.2135 260.933 37.6402C260.346 37.1068 259.706 36.7602 259.04 36.6135C257.759 38.2871 257.241 40.5699 256.738 42.7797C256.44 44.0909 256.148 45.3763 255.706 46.4935C253.434 51.6415 249.494 54.4483 245.167 57.5306C244.9 57.7214 244.63 57.9133 244.36 58.1068C244.733 53.2935 246.333 50.2002 248.96 46.2668C250.506 42.4935 252.68 40.8002 255.96 38.6268L255.866 37.4935C253.869 36.1405 252.342 36.8652 250.605 37.6894C249.826 38.0592 249.005 38.449 248.08 38.6802C243.386 41.3468 239.826 46.3602 238.106 51.3868C237.13 52.5474 236.186 53.9397 235.213 55.375C232.877 58.8204 230.373 62.513 226.853 63.8402C227.117 62.4576 227.408 61.0641 227.701 59.6631L227.701 59.6631L227.701 59.663L227.701 59.663L227.701 59.663C228.696 54.9028 229.709 50.057 229.72 45.2668C228.727 40.6778 222.128 40.6344 218.078 40.6078L218.078 40.6078C217.774 40.6058 217.485 40.6039 217.213 40.6002C213.4 37.2002 210.706 35.2268 205.48 34.4268C205.384 33.3343 206.625 32.5576 207.783 31.8326C208.406 31.4427 209.005 31.0678 209.36 30.6668C213.026 27.9468 214.666 20.6668 209.746 18.3335C207.407 16.2079 205.042 16.1017 202.309 15.9791C201.63 15.9486 200.929 15.9171 200.2 15.8535C200.013 14.6802 199.8 13.5202 199.533 12.3602ZM210.306 22.6269C208.586 17.7069 204.013 18.2269 199.733 18.7335C198.749 21.4367 198.111 24.4523 197.477 27.4495C197.064 29.4049 196.652 31.3524 196.146 33.2002C201.226 31.5602 209.106 28.5602 210.306 22.6269ZM195.334 37.8402L195.974 37.0135C200.334 35.5068 206.214 37.3202 210.52 38.6535C211.96 39.2402 212.947 40.1335 213.467 41.3468L212.4 42.9468C208.827 43.948 205.402 45.4818 201.973 47.0171L201.973 47.0171C199.146 48.2831 196.317 49.55 193.4 50.5202C193.4 47.1805 194.117 43.7396 194.813 40.3986L194.813 40.3986L194.813 40.3986L194.813 40.3984L194.813 40.3983L194.813 40.3981C194.992 39.5377 195.17 38.6839 195.334 37.8402ZM215.76 45.1202L214.934 43.6535C207.174 46.6268 199.8 50.0135 192.4 53.7602C192.197 54.866 192.102 55.9719 192.007 57.0733C191.855 58.8536 191.703 60.6221 191.094 62.3602C192.562 63.1849 194.331 62.7139 196.107 62.2408C197.203 61.9491 198.301 61.6567 199.334 61.6668C199.934 61.3768 200.557 61.083 201.196 60.7822L201.196 60.782C207.924 57.6129 216.296 53.6687 215.76 45.1202ZM181.613 60.1869L182.626 60.2002L182.613 61.2135L181.6 61.2002L181.613 60.1869ZM250.591 69.2249C251.112 67.4373 251.623 65.6839 251.733 64.1202C249.84 65.5085 248.484 67.8864 247.212 70.1164C246.738 70.9492 246.275 71.7612 245.8 72.4935C244.293 75.3735 243.213 79.5335 245.586 82.2535C246.632 82.0832 247.427 80.8821 248.201 79.7121C248.7 78.9584 249.19 78.2176 249.733 77.7735C248.814 75.3176 249.717 72.2233 250.591 69.2249Z" fill="black"/>
</g>
<defs>
<clipPath id="clip0_9_124">
<rect width="400" height="89.3333" fill="white"/>
</clipPath>
</defs>
</svg>