<?xml version="1.0" encoding="utf-8"?>
<svg xmlns="http://www.w3.org/2000/svg" width="400" height="126" viewBox="0 0 400 126" fill="none">
<path d="M350.867 0.205724C350.867 0.205724 353.787 -0.257154 355.56 0.205724C356.049 0.333383 356.787 0.619057 356.787 0.619057L357.747 0.979057C359.853 1.87239 361.92 2.85906 363.973 3.85906C362.28 5.93906 360.6 8.03239 358.947 10.1391C365.36 6.55239 370.96 3.03239 378.68 3.80572C389.64 4.57906 397.907 13.0324 400 23.5924V30.6324C398.547 36.2724 396.173 41.4324 391.573 45.1657C388.147 48.0991 384.227 49.0324 380.04 50.3524C374.573 51.8724 370.867 56.7391 365.08 58.0991C359.533 59.2991 353.107 58.9524 348.08 56.1391C344.347 54.1124 341.72 51.1791 338.827 48.1657C334 47.4724 329.56 47.1924 325.667 43.8857C319.96 39.1924 318.187 30.9124 321.28 24.2324C324.293 17.6991 331.507 13.6991 338.64 14.8324C344.04 15.6724 347.347 19.1791 351.373 22.4724C347.347 16.2724 344.053 13.5524 337.387 10.3524C340.933 5.16572 344.52 1.60572 350.867 0.205724Z" fill="black"/>
<path d="M322.933 57.6667C327.213 55.7067 332.387 59.28 332.12 63.9867C332.013 69.3067 325.867 72.0534 321.613 69.1467C317.493 66.2134 318.2 59.5334 322.933 57.6667Z" fill="black"/>
<path fill-rule="evenodd" clip-rule="evenodd" d="M29.88 14.2667C30.8451 17.7638 30.1085 21.2319 29.3745 24.6875L29.3745 24.6876C29.2466 25.2899 29.1187 25.8918 29 26.4933C27.9718 31.049 27.0196 35.6215 26.0674 40.1943C25.3279 43.7453 24.5885 47.2965 23.8133 50.84C26.1539 51.0984 28.5176 51.2412 30.8825 51.3842L30.8827 51.3842C34.7416 51.6175 38.6036 51.8509 42.3733 52.5867C43.6267 54.6712 42.7733 56.6231 41.9027 58.6144L41.875 58.6778C37.8514 59.0593 33.3792 58.8068 28.9797 58.5584C26.7449 58.4322 24.5289 58.3071 22.4 58.2667C22.2957 60.4446 22.1564 62.6273 22.017 64.8123L22.017 64.8125C21.693 69.8911 21.3681 74.982 21.48 80.0533C21.4951 80.2594 21.509 80.465 21.5228 80.67C21.6799 82.9973 21.8307 85.23 23.6933 86.9333C25.8 88.8533 28.9467 88.16 31.3733 87.3333C35.84 85.5867 40.2667 82.9733 43.64 79.52C44.7273 78.4426 44.8668 76.5816 44.9909 74.9253V74.9252C45.0327 74.3677 45.0728 73.8334 45.1467 73.36C45.92 58.5466 47.2 42.5733 52.72 28.64C55.0667 22.8933 59.3067 15.9467 65.5733 14C69.2533 13.2133 74.44 12.7333 76.6133 16.5867C78.6133 20.6133 77.84 26.1867 76.9333 30.4267C74.4487 40.8639 69.8383 50.1652 65.2169 59.4887L65.2168 59.4888C63.291 63.3741 61.3633 67.2632 59.5867 71.24C60.8306 69.9065 62.078 68.4261 63.3551 66.9105C67.0196 62.5617 70.9275 57.924 75.6933 55.64C78.1467 54.4267 81.44 54.76 82.1333 57.76C82.8241 62.2081 81.3219 66.6509 79.8363 71.0446L79.8362 71.0448C78.9706 73.605 78.1106 76.1485 77.6933 78.6667C77.1549 81.6938 77.5506 84.5277 77.9651 87.496V87.4961C78.0125 87.8355 78.0601 88.1766 78.1067 88.52C78.5153 88.1692 78.9229 87.8271 79.3262 87.4887C82.0807 85.1769 84.6341 83.0338 85.96 79.44C86.6494 77.6635 87.1914 75.8913 87.725 74.1463C89.0698 69.749 90.3617 65.5245 93.8267 61.84C99.5733 55.6267 108.507 54.5466 116.307 56.9467C122.507 59.04 126.947 63.08 131.52 67.56C131.713 66.8425 131.898 66.1038 132.084 65.3557L132.085 65.3543L132.085 65.3526C132.824 62.3895 133.601 59.2768 135.133 56.7333C136.662 56.2568 138.25 55.9577 139.831 55.6599C140.373 55.5577 140.915 55.4557 141.453 55.3466C141.587 59.72 141.64 64.1067 141.68 68.48C142.122 67.7435 142.565 66.9605 143.02 66.1578C144.952 62.746 147.086 58.9765 150.173 56.8933C152.373 55.44 156.8 55.04 158.08 57.88C158.422 60.2582 158.142 62.7367 157.86 65.2228C157.56 67.8659 157.26 70.5176 157.707 73.0667C158.84 77.8933 166.2 74.7867 167.747 71.7467C168.485 68.57 168.652 65.2355 168.817 61.9234L168.817 61.9223C168.897 60.3274 168.977 58.7377 169.12 57.1733C168.051 56.9702 166.94 56.8153 165.817 56.6589L165.817 56.6589C163.255 56.3021 160.636 55.9374 158.347 54.9733C156.627 54.1733 156.44 52.8533 157.787 51.0133C160.865 50.0325 164.343 50.0234 167.672 50.0147C168.597 50.0122 169.51 50.0098 170.4 49.9867C172.547 41.3067 175.027 31.6267 180.293 24.2667C182.6 21.16 185.867 18.0533 190.08 19.28C194.64 20.7467 196.387 26.3467 196.573 30.6533C196.916 37.3559 193.686 43.3274 190.582 49.067C190.179 49.8127 189.778 50.5544 189.387 51.2933C190.182 51.4002 190.993 51.4878 191.811 51.5761L191.811 51.5761L191.812 51.5762L191.812 51.5762L191.812 51.5762L191.812 51.5762C194.259 51.8404 196.762 52.1106 199.04 52.92C200.093 54.0133 200.333 55.4267 199.773 57.16C196.584 58.6241 192.619 58.5873 188.903 58.5528C187.678 58.5415 186.48 58.5303 185.347 58.5733C184.737 59.6051 184.061 60.6381 183.379 61.6819L183.379 61.6821L183.379 61.6823L183.379 61.6826L183.379 61.6828C181.02 65.2923 178.577 69.0295 178.453 73.28L178.433 73.6325V73.6326C178.208 77.4755 177.935 82.1467 179.707 85.6133C181.72 88.96 185.413 88.4533 188.6 87.2933C193.213 85.4133 197.987 82.3467 200.8 78.1733C201.796 75.2549 202.212 72.1116 202.627 68.9843L202.627 68.9841L202.627 68.984L202.627 68.9838L202.627 68.9835L202.627 68.9833C202.851 67.296 203.074 65.6134 203.387 63.9733C205.373 52.64 207.68 40.3867 212.667 29.96C214.947 25.24 218.16 20.12 222.88 17.5333C227.267 15.16 232.987 15.7467 235.92 20.0667C239.067 24.5467 237.373 31.0667 235.92 35.9067C231.52 48.92 224.027 61.1333 216.307 72.44C217.278 72.4101 218.342 72.417 219.458 72.4242C224.314 72.4556 230.147 72.4932 233.573 69.5333C234.837 68.0537 235.63 65.9481 236.437 63.8073C237.47 61.0675 238.525 58.2701 240.613 56.6533C242.337 56.2148 244.158 56.1115 245.959 56.0094C246.568 55.9748 247.174 55.9405 247.773 55.8933C247.367 60.456 246.608 64.8362 245.855 69.1856L245.855 69.1858L245.855 69.1861L245.855 69.1862C244.731 75.6783 243.619 82.1016 243.707 88.96C244.408 88.6537 245.121 88.4012 245.821 88.1535C248.256 87.2907 250.524 86.4875 251.56 83.68C253.1 79.6225 253.806 75.2276 254.512 70.8372C255.297 65.9509 256.082 61.0702 258.013 56.6667C260.382 55.9099 263.148 56.1185 265.725 56.3128C266.281 56.3547 266.828 56.3959 267.36 56.4267C267.139 61.1727 266.322 65.7307 265.51 70.2646L265.51 70.2651C264.412 76.3923 263.322 82.4756 263.72 88.92C269.44 87.5867 272 85.7467 275.773 81.4C274.653 71.3867 275.52 61.64 278.027 51.92C280.747 41.1466 284.747 29.7067 291.48 20.76C294.88 16.56 299.227 12.36 305.147 13.7333C308.893 15 309.52 20.68 309.467 24C309.008 36.8289 302.385 49.2314 296.367 60.5007L296.357 60.5178L296.344 60.5438C295.896 61.3823 295.451 62.2144 295.013 63.04C291.453 70.08 287.32 76.7467 283.16 83.44C283.78 83.7468 284.41 84.1227 285.052 84.5055L285.052 84.5057C287.199 85.7864 289.474 87.1433 291.907 86.24C294.239 85.5452 296.459 84.4708 298.674 83.3986C300.029 82.7424 301.383 82.087 302.76 81.52C302.593 82.1883 302.477 82.8892 302.36 83.5934C302.012 85.6992 301.659 87.8344 299.92 89.2133C295.867 92.56 290.613 95.7867 285.307 96.3333C282.498 96.4591 280.53 93.7681 278.845 91.4646C278.386 90.8372 277.948 90.2385 277.52 89.7333C277.332 89.8849 277.144 90.0374 276.956 90.1907L276.548 90.5222L276.494 90.5664C271.674 94.491 266.525 98.6828 259.867 97.6C257.319 96.9992 255.873 94.0328 254.648 91.5198L254.648 91.5192C254.296 90.7976 253.963 90.1134 253.627 89.5333C253.296 89.8551 252.962 90.1844 252.624 90.5179C249.796 93.3073 246.677 96.3833 242.973 97.6933C239.707 98.7333 236.08 98.4667 234.107 95.3067C232.083 91.6487 232.559 86.5571 232.979 82.0682V82.0681V82.0678L232.979 82.0675C233.09 80.8791 233.197 79.7328 233.253 78.6667C229.053 79.4933 224.853 80.1867 220.613 80.7733L220.698 80.964L220.956 81.5476L220.96 81.5572C224.017 88.4637 226.83 94.8166 225.853 102.68C225.027 109.413 222.933 118.267 217.4 122.733C212.947 126.227 206.587 125.267 203.733 120.28C199.01 112.259 199.601 100.86 200.082 91.5717C200.118 90.8705 200.154 90.1814 200.187 89.5067C199.722 89.8509 199.252 90.2028 198.778 90.5584L198.767 90.5663L198.765 90.568C193.273 94.6861 187.144 99.2824 179.92 97.9333C173.28 96.2948 171.339 89.4422 169.675 83.5658C169.524 83.0344 169.376 82.5109 169.227 82C168.678 82.2572 168.132 82.524 167.587 82.7904L167.587 82.7905C163.64 84.72 159.737 86.628 155.227 84.7066C150.852 82.9843 149.559 77.7783 148.434 73.2497L148.434 73.2496C148.14 72.064 147.857 70.9247 147.533 69.9067C145.668 75.0025 143.874 80.116 142.079 85.2327L142.078 85.2348L142.077 85.2368L142.076 85.2389L142.076 85.2409C141.664 86.4138 141.253 87.5869 140.84 88.76C140.747 89.0118 140.654 89.2637 140.561 89.5153C139.437 92.5686 138.325 95.5907 136.12 98.0667C135.979 98.0692 135.841 98.0721 135.705 98.0749C133.029 98.1308 131.346 98.1659 130.013 95.3867C128.204 90.4977 129.022 84.4542 129.772 78.9042C130.006 77.1737 130.234 75.4912 130.373 73.9067C126.48 70.8533 122.427 68.08 118.253 65.4267C120.013 72.0667 121.093 78.4533 118.4 85.0533C115.653 92.3467 109.613 98.5333 101.307 98.12C96.4125 98.061 93.7401 95.1544 90.8077 91.965L90.8069 91.9641L90.8067 91.9639L90.8041 91.961L90.8037 91.9606C90.422 91.5455 90.0359 91.1256 89.64 90.7066C84.9867 94.8933 80 99.0933 73.24 97.88C68.3733 96.2 66.1467 90.0533 66.0267 85.3333C66.0164 80.7166 67.9623 75.8886 69.7904 71.3529C70.3487 69.9676 70.8961 68.6097 71.3733 67.2933C65 73.64 59.7067 80.9733 55.7333 89.04C55.3831 89.7193 55.0397 90.417 54.6936 91.1204C53.5111 93.5233 52.2963 95.9917 50.6667 98.0133C49.32 98.0267 47.9867 97.9333 46.6533 97.7066C45.7198 95.5498 45.1835 93.134 44.6622 90.7856C44.5357 90.216 44.4101 89.6503 44.28 89.0933L43.9208 89.3366C38.4951 93.0127 31.9206 97.4672 25.3333 98.0933C19.8533 98.44 16.3467 94.24 14.4667 89.6133C10.5733 79.76 11.1733 67.6 12 57.2133C10.6204 56.9642 8.93632 56.8874 7.27779 56.8119H7.27772C4.14369 56.6691 1.10075 56.5305 0.374984 55.2403C0.349865 55.1105 0.325867 54.9877 0.303104 54.8713C-0.0139728 53.2492 -0.0915272 52.8524 0.374999 51.8028C1.9375 50.84 8.90665 50.04 13.3867 49.96C15.48 40.4667 17.72 31 20.2933 21.6133C20.4137 21.25 20.5329 20.8682 20.6553 20.4761L20.6554 20.4761L20.6554 20.476C21.3327 18.3065 22.1093 15.8187 23.7467 14.3733C25.3813 13.3822 27.8608 13.8697 29.686 14.2286L29.88 14.2667ZM69.1636 22.5735C70.78 23.2347 68.3733 32.64 66.2267 38.4C62.7733 47.76 58.7467 56.96 54.5333 66.0133L54.6379 65.0471C56.149 51.0751 57.7198 36.5515 65.8 24.6267C65.856 24.557 65.9117 24.4873 65.9673 24.4178L65.9677 24.4174C66.944 23.1963 67.8663 22.0427 69.1636 22.5735ZM228.413 35.0267C229.96 31.72 230.299 28.0937 228.413 27.1144C226.506 26.1243 223.867 26.9467 222.773 29.4C218.133 39.2133 215.507 50.16 214.493 60.9467C219.587 52.6267 224.507 43.9733 228.413 35.0267ZM295.127 45.1575L295.127 45.1578L294.947 45.6C291.307 53.84 287.36 62.04 282.64 69.7467C284.56 57.9333 288.307 46.16 292.307 34.8933C293.827 30.52 296.281 25.3568 299.649 25.3568C302.7 26.54 298.098 37.8535 295.127 45.1575ZM183.153 49.0435C185.834 43.809 189.083 37.4682 189.52 32.0133C189.747 30.4533 188 28.8249 186.227 29.9137C184.391 31.0411 180.769 43.4827 179.009 51.4427H181.933C182.317 50.6764 182.727 49.8744 183.153 49.0445L183.153 49.0435ZM104.68 64.7867C107 63.3067 109.24 64.7867 110.307 67C112.187 70.92 111.8 76.08 110.747 80.2C110.673 80.4477 110.598 80.7001 110.523 80.956C109.419 84.7095 108.099 89.1982 104.067 89.9333C98.5522 89.9333 97.4133 84.9067 97.6 80.0267C97.7067 74.8 99.76 67.48 104.68 64.7867ZM216.707 105.347C217.293 95.92 215.453 86.28 211.56 77.68C209.587 87.2133 209.48 96.8133 209.92 106.507C209.972 107.134 209.995 107.819 210.019 108.521C210.129 111.769 210.251 115.383 213.313 115.383C215.463 115.068 216.453 109.36 216.707 105.347Z" fill="black"/>
<circle cx="311.965" cy="78.518" r="3.44812" fill="black"/>
</svg>