<?xml version="1.0" encoding="utf-8"?>
<svg xmlns="http://www.w3.org/2000/svg" width="260" height="49" viewBox="0 0 260 49" fill="none">
<g clip-path="url(#clip0_4_188)">
<path fill-rule="evenodd" clip-rule="evenodd" d="M31.171 2.8425C28.806 2.8425 26.8611 3.59099 25.34 5.08623C23.8172 6.58319 23.0549 8.49311 23.0549 10.816C23.0549 13.07 23.8188 14.9455 25.3468 16.4424C26.8747 17.9377 28.7856 18.6862 31.0826 18.6862C33.3881 18.6862 35.3125 17.9239 36.8541 16.396C38.3956 14.8715 39.1664 12.9719 39.1664 10.6973C39.1664 8.48279 38.3956 6.61932 36.8541 5.1086C35.3125 3.59786 33.4171 2.8425 31.171 2.8425ZM31.0519 0C34.2456 0 36.9051 1.02206 39.0287 3.06619C41.1521 5.11203 42.2156 7.67579 42.2156 10.7575C42.2156 13.8392 41.1436 16.3891 38.9997 18.4092C36.8558 20.4292 34.1521 21.4393 30.8886 21.4393C27.7748 21.4393 25.1801 20.4292 23.1059 18.4092C21.0318 16.3891 19.9939 13.8581 19.9939 10.816C19.9939 7.69472 21.0386 5.11203 23.1281 3.06619C25.2175 1.02206 27.8582 0 31.0519 0ZM6.85027 0.29423H3.89134V17.8327C3.89134 19.5482 3.79095 20.7526 3.51701 21.2741C3.29922 21.7989 2.92489 22.1636 2.39402 22.3718C1.75604 22.6363 1.05861 22.6344 0.375503 22.6327H0.374073H0.372648H0.371229C0.246954 22.6323 0.122873 22.6321 0 22.6333C0 22.6333 2.69349 25.3692 2.74453 25.4105C3.75522 25.2058 4.61279 24.7325 5.3121 23.9875C6.73796 22.4303 6.85027 20.1849 6.85027 18.1786V0.29423ZM54.0921 46.4944C54.6791 47.7917 57.1735 47.3978 58.2863 46.1125C57.6976 45.462 55.7527 43.3232 55.7527 43.3232C54.7029 43.9547 53.3962 44.9579 54.0921 46.4944ZM57.7214 39.0388C57.6108 38.3885 57.0033 37.9876 56.2632 38.0082C55.5315 38.0271 54.9053 38.4745 54.902 39.1524C54.9003 39.5344 55.0449 39.9078 55.2286 40.233C55.4448 40.6167 55.7562 40.9986 56.1423 41.3497C56.5116 41.1105 56.8093 40.8765 57.0459 40.6477C57.4713 40.2296 57.8302 39.6652 57.7214 39.0388ZM61.8356 42.4801C61.7216 43.1288 61.0529 44.9045 60.3195 45.8629L62.8616 48.6211H60.6769L59.3241 47.1844C58.1893 48.2495 56.8077 48.8671 55.1453 48.7364C53.1205 48.5816 52.3191 47.2756 52.1558 46.2552C51.909 44.7084 52.5742 43.7655 53.5986 42.9086C53.8249 42.7176 54.4663 42.2891 54.7386 42.1361C53.8112 41.0624 53.3246 40.3035 53.2566 39.3263C53.1988 38.4935 53.4999 37.8155 54.0445 37.2958C54.5889 36.7762 55.3086 36.5163 56.2002 36.5163C57.0765 36.5163 57.8013 36.7711 58.3781 37.2804C58.955 37.7879 59.2527 38.435 59.2731 39.2247C59.3072 40.5772 58.2216 41.7403 57.1462 42.3734L59.331 44.7858C59.8057 43.9978 60.1902 42.9878 60.3417 42.4819C60.3417 42.4819 61.6178 42.4801 61.8356 42.4801ZM73.336 0.296812H70.3772V9.39902H58.2879V0.296812H55.3291V21.1975H58.2879V12.1022H70.3772V21.1975H73.336V0.296812ZM105.261 0.296812H108.071V21.1975H105.528L91.0854 5.10085V21.1975H88.3034V0.296812H90.7008L105.261 16.5311V0.296812ZM133.823 21.1967V0.295951H136.791V18.5003H146.488V21.1967H133.823ZM160.45 0.295951V21.1967H173.783V18.5003H163.419V12.0032H173.21V9.30697H163.419V2.99049H173.514V0.295951H160.45ZM209.2 14.6994L214.841 0.295951H217.777L209.384 21.3824H208.81L202.018 4.27924L195.168 21.3824H194.594L186.231 0.295951H189.199L194.898 14.6994L200.625 0.295951H203.441L209.2 14.6994ZM230.523 21.199H233.494V0.29836H230.523V21.199ZM251.2 11.0689L253.447 12.4506C255.26 13.5931 256.196 14.7992 256.196 16.0708C256.196 16.8572 255.86 17.5093 255.245 18.0306C254.628 18.5519 253.857 18.7705 252.929 18.7705C250.829 18.7705 248.98 17.7914 247.383 15.7439V19.5431C249.098 20.8576 250.921 21.4306 252.958 21.4685C254.733 21.4994 256.16 20.942 257.268 19.8958C258.378 18.8479 258.949 17.468 258.949 15.7921C258.949 13.4383 257.775 11.5008 255.255 9.97802L252.909 8.6256C251.895 8.02509 251.082 7.38501 250.622 6.83784C250.166 6.29067 250.015 5.77105 250.015 5.14472C250.015 4.44099 250.327 3.84737 250.948 3.39656C251.568 2.94402 252.362 2.71863 253.329 2.71863C255.045 2.71863 256.647 3.44301 258.136 4.89007V1.49524C256.697 0.514472 255.289 0.0258097 253.388 0.0258097C251.584 0.0258097 250.077 0.521355 248.948 1.54858C247.818 2.5758 247.255 3.91275 247.255 5.55768C247.255 6.65546 247.589 7.6844 248.254 8.52064C248.897 9.32933 249.789 10.1983 251.2 11.0689ZM85.6242 37.9376H83.8035V41.7627H85.7279C87.0279 41.7627 87.9264 41.1741 87.9264 39.8183C87.9264 38.564 87.1589 37.9376 85.6242 37.9376ZM82.0647 48.6211V36.3804H85.9271C87.0807 36.3804 88.0011 36.6936 88.6869 37.3251C89.3743 37.9549 89.718 38.8014 89.718 39.8631C89.718 40.5737 89.5598 41.2258 89.2042 41.7729C88.8706 42.284 88.3602 42.709 87.7442 42.9464C87.0024 43.232 86.3217 43.3232 85.1137 43.3198H83.8035V48.6211H82.0647ZM100.788 39.0134L102.738 43.4423H98.9794L100.788 39.0134ZM101.411 36.3275H100.194L95.003 48.6215H96.7811L98.292 44.9995H103.449L105.061 48.6215H106.832L101.411 36.3275ZM129.367 36.3799H139.513V37.9371H135.312V48.6206H133.572V37.9371H129.367V36.3799ZM158.881 36.3968H157.237V45.893L149.023 36.3968H147.622V48.6203H149.249V39.2084L157.391 48.6203H158.881V36.3968ZM168.058 36.3968H174.909V37.954H169.788V41.6826H174.738V43.2484H169.788V47.0458H175.076V48.6047H168.058V36.3968ZM116.327 37.8855H116.846C117.695 37.8855 118.301 37.9509 118.668 38.0765C119.405 38.3329 119.827 39.0229 119.824 39.7851C119.819 40.5112 119.489 41.1925 118.789 41.5161C118.463 41.6675 117.862 41.7431 116.986 41.7431H116.327V37.8855ZM114.561 36.3971V48.6206H116.291V43.3004H116.742C117.309 43.3004 117.745 43.3675 117.984 43.4983C118.224 43.6291 118.459 43.8268 118.757 44.1246C119.053 44.4223 119.381 44.8369 119.739 45.3394L120.385 46.2926L121.258 47.6673C121.309 47.7379 121.865 48.6206 121.865 48.6206H123.948L123.307 47.7465C123.053 47.3955 122.698 46.8759 122.276 46.1807C121.607 45.0777 121.107 44.3036 120.737 43.8613C120.368 43.4191 119.99 43.0698 119.604 42.8117C120.261 42.5553 120.734 42.1665 121.086 41.6486C121.439 41.1289 121.615 40.5129 121.615 39.8006C121.615 38.7579 121.255 37.9286 120.537 37.3159C119.819 36.7035 118.849 36.3971 117.625 36.3971H114.561ZM185.785 37.8855H185.265V41.7431H185.923C186.801 41.7431 187.401 41.6675 187.728 41.5161C188.427 41.1925 188.757 40.5112 188.762 39.7851C188.766 39.0229 188.341 38.3329 187.607 38.0765C187.239 37.9509 186.634 37.8855 185.785 37.8855ZM183.499 48.6206V36.3971H186.564C187.785 36.3971 188.757 36.7035 189.475 37.3159C190.193 37.9286 190.552 38.7579 190.552 39.8006C190.552 40.5129 190.377 41.1289 190.025 41.6486C189.673 42.1665 189.199 42.5553 188.543 42.8117C188.929 43.0698 189.307 43.4191 189.675 43.8613C190.045 44.3036 190.546 45.0777 191.215 46.1807C191.636 46.8759 191.991 47.3955 192.246 47.7465L192.886 48.6206H190.804C190.804 48.6206 190.248 47.7379 190.195 47.6673L189.322 46.2926L188.677 45.3394C188.32 44.8369 187.992 44.4223 187.694 44.1246C187.396 43.8268 187.163 43.6291 186.924 43.4983C186.683 43.3675 186.246 43.3004 185.681 43.3004H185.23V48.6206H183.499ZM202.414 42.6908L203.729 43.4994C204.791 44.1688 205.322 44.8742 205.322 45.6158C205.322 46.077 205.142 46.4589 204.781 46.7635C204.42 47.068 203.969 47.2212 203.427 47.2212C202.198 47.2212 201.116 46.6225 200.182 45.4248V47.6479C201.161 48.3913 202.249 48.7629 203.443 48.7629C204.482 48.7629 205.326 48.4567 205.973 47.8423C206.623 47.2298 206.949 46.4331 206.949 45.4541C206.949 44.0776 206.21 42.9437 204.737 42.0524L203.414 41.2627C202.821 40.9098 202.39 40.576 202.123 40.2544C201.854 39.936 201.721 39.5919 201.721 39.2271C201.721 38.8141 201.904 38.4752 202.267 38.2119C202.63 37.947 203.095 37.8145 203.66 37.8145C204.663 37.8145 205.601 38.2377 206.472 39.086V37.0986C205.63 36.5257 204.704 36.24 203.694 36.24C202.639 36.24 201.78 36.5411 201.12 37.1417C200.458 37.7422 200.129 38.5234 200.129 39.487C200.129 40.1288 200.304 40.6948 200.653 41.1869C201.002 41.6808 201.588 42.1814 202.414 42.6908Z" fill="black"/>
</g>
<defs>
<clipPath id="clip0_4_188">
<rect width="259.273" height="48.8486" fill="white"/>
</clipPath>
</defs>
</svg>