<?xml version="1.0" encoding="utf-8"?>
<svg xmlns="http://www.w3.org/2000/svg" width="260" height="80" viewBox="0 0 260 80" fill="none">
<g clip-path="url(#clip0_4_158)">
<path d="M111.245 45.3767C110.353 48.461 107.269 50.5195 103.504 50.5195C98.1738 50.5195 94.7279 46.6974 94.7279 40.7723C94.7279 34.8472 98.1738 30.9758 103.504 30.9758C107.351 30.9758 110.435 32.997 111.247 36.0247H118.416C117.365 29.3554 111.446 24.8932 103.599 24.8932C94.2363 24.8932 87.9487 31.2358 87.9487 40.6753C87.9487 50.1728 94.2363 56.5543 103.599 56.5543C111.547 56.5543 117.47 52.0739 118.419 45.3767H111.245Z" fill="black"/>
<path d="M165.464 34.7015H158.996L153.619 49.3298L148.434 34.7015H138.979V29.0769H132.867V34.7015H120.132V55.93H126.245V39.7758H132.867V55.93H138.979V39.7758H143.918L150.82 56.8245L150.463 57.8669C149.827 59.5 149.108 61.3375 145.502 61.3375C144.537 61.3295 143.574 61.2333 142.627 61.0497L142.586 66.0747C143.913 66.3785 145.269 66.5399 146.631 66.5566C152.997 66.5566 154.798 62.0205 155.769 59.5843L165.464 34.7015Z" fill="black"/>
<path d="M123.187 32.8928C125.319 32.8928 127.048 31.2016 127.048 29.116C127.048 27.0297 125.319 25.3393 123.187 25.3393C121.054 25.3393 119.326 27.0297 119.326 29.116C119.326 31.2016 121.054 32.8928 123.187 32.8928Z" fill="black"/>
<path d="M192.054 32.8928C194.187 32.8928 195.915 31.2016 195.915 29.116C195.915 27.0297 194.187 25.3393 192.054 25.3393C189.922 25.3393 188.193 27.0297 188.193 29.116C188.193 31.2016 189.922 32.8928 192.054 32.8928Z" fill="black"/>
<path d="M184.451 38.2597H173.365V31.4576H186.519V25.5682H166.962V55.9301H173.365V43.9089H184.408L184.451 38.2597Z" fill="black"/>
<path d="M188.993 34.7017H195.115V55.9302H188.993V34.7017Z" fill="black"/>
<path d="M211.46 33.9351C208.81 33.9351 206.583 34.7453 205.19 36.2282L204.795 36.644V25.7598H198.683V55.9301H203.708L204.136 52.9715L204.467 53.4279C205.878 55.3846 208.497 56.5542 211.471 56.5542C217.599 56.5542 221.72 52.0285 221.72 45.2932C221.697 38.6031 217.482 33.9351 211.46 33.9351ZM210.187 50.9527C206.986 50.9527 204.839 48.639 204.839 45.1962C204.839 41.809 206.989 39.5358 210.187 39.5358C213.33 39.5358 215.442 41.8297 215.442 45.2447C215.442 48.6596 213.323 50.9527 210.187 50.9527Z" fill="black"/>
<path d="M237.365 40.0455V34.6587C236.788 34.5593 236.203 34.5084 235.617 34.5052C233.175 34.5052 231.423 35.5858 230.809 37.4718L230.506 38.4044L229.971 34.6968H224.384V55.9253H230.496V46.0144C230.496 44.0393 231.072 42.5103 232.202 41.4727C233.402 40.3747 235.146 39.8929 237.365 40.0455Z" fill="black"/>
<path d="M252.932 49.4134C252.267 50.7539 250.609 51.5776 248.556 51.5776C245.681 51.5776 243.682 49.7934 243.585 47.1274V46.8905H258.67C258.839 45.9992 258.919 45.0936 258.91 44.1871C258.91 38.1499 254.6 33.9343 248.427 33.9343C241.933 33.9343 237.567 38.4783 237.567 45.2446C237.567 52.0102 241.988 56.5542 248.567 56.5542C253.808 56.5542 257.921 53.6974 258.904 49.4189L252.932 49.4134ZM243.679 42.7289C243.824 40.4358 245.592 38.9577 248.182 38.9577C250.772 38.9577 252.54 40.4867 252.636 42.7345V42.9714H243.651L243.679 42.7289Z" fill="black"/>
<path d="M39.7308 0C31.8733 0 24.1918 2.33125 17.6577 6.70035C11.1243 11.0687 6.03155 17.2776 3.02413 24.5417C0.0175041 31.8058 -0.769832 39.7998 0.763611 47.5115C2.29626 55.2232 6.08071 62.3068 11.6373 67.8662C17.1938 73.4264 24.2727 77.2126 31.9804 78.7464C39.6872 80.2802 47.6756 79.493 54.936 76.4843C62.1957 73.4756 68.4008 68.3798 72.7665 61.8417C77.1321 55.3043 79.4624 47.618 79.4624 39.7552C79.4624 29.2114 75.276 19.1 67.8252 11.6443C60.3744 4.18861 50.2683 0 39.7308 0ZM61.5963 50.4995C59.6474 50.4987 57.7421 49.9199 56.1222 48.8361C54.5023 47.7524 53.2393 46.2123 52.4939 44.4114C51.7486 42.6097 51.5536 40.6267 51.9342 38.7145C52.3147 36.8022 53.2535 35.045 54.6316 33.6671C56.0096 32.2884 57.7658 31.3494 59.6775 30.9693C61.5883 30.5885 63.5698 30.7841 65.3704 31.5307C67.1703 32.2765 68.7093 33.5407 69.7916 35.1619C70.8746 36.7831 71.4527 38.6898 71.4527 40.6394C71.4534 41.9346 71.1989 43.2179 70.7034 44.4146C70.2086 45.612 69.4823 46.6997 68.5673 47.6157C67.6516 48.5316 66.5653 49.2583 65.3688 49.7545C64.1724 50.2498 62.8911 50.5051 61.5963 50.5043V50.4995Z" fill="black"/>
</g>
<defs>
<clipPath id="clip0_4_158">
<rect width="259.273" height="79.5105" fill="white"/>
</clipPath>
</defs>
</svg>