<?xml version="1.0" encoding="utf-8"?>
<svg xmlns="http://www.w3.org/2000/svg" width="260" height="71" viewBox="0 0 260 71" fill="none">
<g clip-path="url(#clip0_4_117)">
<path d="M58.5522 59.6168C55.6691 59.6168 53.4518 61.8449 53.4518 64.7422C53.4518 67.6394 55.6691 69.8676 58.5522 69.8676C61.4353 69.8676 63.6526 67.6394 63.6526 64.7422C63.6547 62.0679 61.2134 59.6168 58.5522 59.6168ZM38.1484 59.6168C35.2653 59.6168 33.048 61.8449 33.048 64.7422C33.048 67.6394 35.2653 69.8676 38.1484 69.8676C41.0316 69.8676 43.2489 67.6394 43.2489 64.7422C43.4708 62.0679 41.0316 59.6168 38.1484 59.6168ZM78.5142 59.6168C75.6311 59.6168 73.4138 61.8449 73.4138 64.7422C73.4138 67.6394 75.6311 69.8676 78.5142 69.8676C81.3973 69.8676 83.6146 67.6394 83.6146 64.7422C83.6146 62.0679 81.3973 59.6168 78.5142 59.6168ZM151.484 21.7274C155.033 21.7274 157.25 22.8426 159.69 25.7399L159.912 25.9628L162.795 23.2886L162.573 23.0653C159.024 19.2759 156.363 17.9399 151.484 17.9399C142.391 17.9399 136.625 24.6265 136.625 35.5485C136.625 46.4705 142.391 53.1571 151.484 53.1571C156.363 53.1571 159.248 51.819 162.573 48.0317L162.795 47.8088L159.912 45.1347L159.69 45.3576C156.806 48.4778 154.811 49.37 151.484 49.37C147.713 49.37 144.83 48.0319 142.835 45.1347C141.061 42.9065 140.617 40.232 140.617 35.5505C140.617 30.8691 141.283 28.6411 142.835 25.9669C145.052 23.2885 147.935 21.7274 151.484 21.7274ZM178.764 17.9378C174.993 17.9378 171.888 19.0532 169.227 21.7274C165.456 25.5168 165.012 30.865 165.012 35.5464C165.012 40.2258 165.678 45.5766 169.227 49.366C171.888 52.0402 174.993 53.1551 178.764 53.1551C182.535 53.1551 185.64 52.0402 188.301 49.366C192.072 45.5766 192.516 40.2279 192.516 35.5464C192.516 30.865 191.85 25.5168 188.301 21.7274C185.64 19.0532 182.535 17.9378 178.764 17.9378ZM185.418 46.4664C183.644 48.2485 181.425 49.3639 178.764 49.3639C176.103 49.3639 173.885 48.4716 172.11 46.4664C169.449 43.7922 169.227 39.3338 169.227 35.5444C169.227 31.532 169.449 27.2987 172.11 24.6224C173.883 22.8403 176.103 21.7254 178.764 21.7254C181.425 21.7254 183.642 22.6173 185.418 24.6224C188.079 27.2966 188.301 31.7551 188.301 35.5444C188.301 39.3338 188.301 43.5692 185.418 46.4664ZM222.9 39.5569C222.9 45.7974 219.351 49.1405 213.363 49.1405C207.597 49.1405 204.492 45.5746 204.492 39.334V18.3841H200.499V40.2261C200.499 44.2384 201.609 47.3585 204.048 49.8097C206.265 52.0379 209.149 52.9301 213.141 52.9301C216.912 52.9301 220.239 51.5919 222.678 48.9177V52.4839H226.893V18.607H222.9V39.5569ZM245.743 31.3111L256.832 18.3841H251.51L235.54 36.8828V2.33671H231.548V52.4839H235.54V42.6773L242.638 34.4315L254.171 52.4839H259.273L245.743 31.3111ZM130.856 52.4839H135.515V47.8027H130.856V52.4839ZM193.623 52.4839H198.282V47.8027H193.623V52.4839ZM25.0624 17.7149C22.4012 15.7098 19.962 14.8174 17.0789 14.8174C13.9738 14.8174 11.0907 15.7098 8.87337 17.7149V15.4866H0V52.7073H8.8713V30.6419C8.8713 28.6368 9.53711 27.2985 10.6447 25.7374C11.7544 24.6222 13.3059 23.9553 14.8595 23.9553C16.1911 23.9553 17.7426 24.6245 18.8523 25.2936L19.5181 25.9628L25.7282 18.3861L25.0624 17.7149ZM55.4472 46.6893L56.113 46.0206L49.459 40.2261L48.7932 41.1181C46.7978 43.1233 44.5784 44.2385 41.9172 44.2385C39.6999 44.2385 37.7025 43.5691 36.3729 42.2331C35.2632 41.1179 34.5995 39.3357 34.3776 37.3306H56.3349V30.421C56.3349 26.1856 55.0033 22.1755 52.1202 19.2782C49.237 16.1579 45.4662 14.5986 41.2514 14.5986C36.151 14.5986 32.1582 16.6042 29.497 20.6165C27.2797 24.1829 25.9481 28.4159 25.9481 33.7664C25.9481 39.5609 27.2797 44.0192 29.7189 47.3625C32.6021 51.1519 36.8168 52.9342 42.3611 52.9342C47.4636 52.707 51.8982 50.7017 55.4472 46.6893ZM36.151 25.5165C37.2607 24.1804 38.8122 23.5115 40.8096 23.5115C42.8071 23.5115 44.5805 24.1804 45.6881 25.5165C46.5759 26.6316 47.0197 28.1907 47.4615 29.7519H34.5974C34.5995 27.9677 35.0434 26.6296 36.151 25.5165ZM76.2969 14.8174C71.1965 14.8174 67.2037 16.823 64.5425 20.8354C61.8813 24.4017 60.7716 28.6368 60.7716 33.9852C60.7716 39.7797 62.1032 44.238 64.5425 47.5814C67.4256 51.3707 71.6403 53.153 77.1846 53.153C82.507 53.153 87.1656 51.148 90.7146 47.1356L91.3804 46.4664L84.7264 40.8952L84.5044 41.1181C82.5091 43.1233 80.2897 44.2385 77.6285 44.2385C75.4112 44.2385 73.4138 43.5691 72.0842 42.2331C70.9745 41.1179 70.3108 39.3357 70.0888 37.3306H91.8242V30.421C91.8242 26.1856 90.4926 22.1755 87.6095 19.2782C84.2804 16.3789 80.5096 14.8174 76.2969 14.8174ZM69.6429 29.7498C69.8648 27.9677 70.5306 26.6296 71.4163 25.5145C72.526 24.1784 74.0775 23.5095 76.0749 23.5095C78.0703 23.5095 79.8458 24.1784 80.9534 25.5145C81.8412 26.6296 82.2851 28.1887 82.7269 29.7498H69.6429ZM117.107 17.9378C114.445 15.9327 111.562 14.8174 109.123 14.8174C105.13 14.8174 101.581 16.5996 99.142 19.7199C97.8104 21.502 97.1466 23.7322 96.4808 26.6294C96.2589 27.7445 96.2589 29.973 96.2589 33.7623C96.2589 37.5517 96.2589 39.7801 96.4808 40.8952C96.7027 43.7925 97.5905 46.0205 99.142 47.8047C101.803 50.925 105.13 52.7093 109.123 52.7093C112.228 52.7093 114.889 51.8169 117.107 49.8118V52.4859H125.978V1.00244H117.107V17.9378ZM116.441 41.1181C115.553 43.1233 113.78 44.0152 111.34 44.0152C108.679 44.0152 107.126 43.1233 106.24 41.1181C105.574 39.78 105.352 37.3285 105.352 33.9852C105.352 30.6419 105.574 28.191 106.24 26.8528C107.128 24.8477 108.901 23.9553 111.34 23.9553C114.001 23.9553 115.555 24.8477 116.441 26.8528C117.107 28.1889 117.328 30.642 117.328 33.7623C117.107 36.8826 116.885 39.5569 116.441 41.1181Z" fill="black"/>
</g>
<defs>
<clipPath id="clip0_4_117">
<rect width="259.273" height="70.868" fill="white"/>
</clipPath>
</defs>
</svg>