<?xml version="1.0" encoding="utf-8"?>
<svg xmlns="http://www.w3.org/2000/svg" width="260" height="88" viewBox="0 0 260 88" fill="none">
<g clip-path="url(#clip0_4_394)">
<path fill-rule="evenodd" clip-rule="evenodd" d="M11.4945 22.9296C18.5813 22.9296 22.9889 17.892 22.9889 11.4648C22.9889 5.03756 18.5813 0 11.4945 0C4.40765 0 0 5.03756 0 11.4648C0 17.892 4.40765 22.9296 11.4945 22.9296ZM258.236 78.4295L233.605 44.3826C233.087 43.6878 233.087 42.9061 233.605 42.2112L256.421 8.946C257.113 7.99061 257.545 7.29577 257.545 5.9061C257.545 4.69014 256.767 3.21361 255.471 1.9108C254.261 0.694835 252.964 0.0868544 251.322 0.0868544C250.372 0.0868544 249.594 0.434272 248.643 1.12911L217.357 25.1878C216.58 25.7958 215.802 25.7958 215.11 25.1878L183.911 1.04225C183.047 0.347418 182.183 0 181.232 0C179.59 0 178.294 0.607981 177.084 1.82394C175.874 3.12676 175.01 4.60328 175.01 5.81925C175.01 7.20892 175.442 7.99061 176.133 8.85915L198.949 42.1244C199.468 42.8192 199.468 43.6009 198.949 44.2958L174.318 78.3427C173.627 79.2112 173.281 80.0798 173.281 81.122C173.281 82.6854 173.972 83.9882 175.182 85.2042C176.392 86.4201 177.775 87.2018 179.331 87.2018C180.368 87.2018 181.232 86.7676 182.096 86.1596L215.197 61.9272C215.888 61.4061 216.753 61.4061 217.444 61.9272L250.544 86.1596C251.409 86.8544 252.273 87.2018 253.31 87.2018C254.779 87.2018 256.162 86.507 257.458 85.2042C258.668 83.9882 259.36 82.6854 259.36 81.122C259.273 80.1666 258.841 79.2981 258.236 78.4295ZM165.676 31.0939C167.318 31.615 170.602 32.6573 171.898 33.0047C173.195 33.4389 173.713 34.0469 173.713 34.9155C173.713 35.6972 173.281 37 172.59 38.7371C167.404 52.8075 160.317 68.007 151.848 80.9483C148.65 85.899 145.107 87.2887 139.143 87.2887C132.921 87.2887 130.069 85.6385 127.044 81.0352C125.229 78.3427 123.414 75.4765 120.994 71.7417L119.871 69.9178C113.302 80.7746 101.981 87.2018 86.5109 87.2018C74.8436 87.2018 64.2998 83.6408 58.5093 78.2558C52.6325 83.7277 42.6073 87.2018 32.9277 87.2018C23.3346 87.2018 13.1365 84.5093 7.25965 78.6032C2.67916 74 0.0864244 68.1807 0.0864244 58.0188V32.5704C0.0864244 31.2676 0.518547 30.7465 1.90134 30.7465H21.0011C22.3839 30.7465 22.8161 31.2676 22.8161 32.5704V60.7981C22.8161 65.3145 23.7667 68.3544 25.8409 70.5258C27.8287 72.6103 31.1992 73.9131 34.9155 73.9131C38.8046 73.9131 42.2616 72.6103 44.5086 70.1784C47.0149 67.399 48.2248 63.5774 48.2248 56.3685V13.0282C48.2248 10.9437 48.7434 9.46713 49.9533 8.33802C51.6818 6.68779 55.2252 5.9061 59.5464 5.9061C63.7812 5.9061 67.4111 6.68779 69.1396 8.33802C70.3495 9.38028 70.868 10.8568 70.868 13.0282V30.7465H88.8443C90.2271 30.7465 90.6592 31.2676 90.6592 32.5704V43.4272C90.6592 44.6432 90.2271 45.2511 88.8443 45.2511H78.8191C75.7078 45.2511 73.0287 44.8169 70.9545 43.8615V55.1526C70.9545 61.8403 72.3373 65.9225 75.2757 68.8756C78.3005 72.0023 82.9675 73.7394 89.0172 73.7394C101.722 73.7394 108.376 65.7488 108.376 56.8028C108.376 53.2418 107.339 50.3756 105.265 46.8145C103.45 43.6878 102.932 42.385 102.932 40.561C102.932 35.3497 112.092 29.7911 118.315 29.7911C121.34 29.7911 122.809 30.8333 125.143 34.5681C126.698 37.1737 129.377 41.777 132.316 47.0751C133.612 49.4202 135.081 51.9389 136.464 54.3709C139.403 59.5821 142.6 65.3145 144.329 68.615C149.601 59.5821 155.478 45.0774 159.367 32.1361C159.799 30.8333 160.404 30.2253 161.441 30.2253C161.959 30.0516 162.91 30.3122 165.676 31.0939Z" fill="black"/>
</g>
<defs>
<clipPath id="clip0_4_394">
<rect width="259.273" height="87.2887" fill="white"/>
</clipPath>
</defs>
</svg>