<?xml version="1.0" encoding="utf-8"?>
<svg xmlns="http://www.w3.org/2000/svg" width="260" height="51" viewBox="0 0 260 51" fill="none">
<g clip-path="url(#clip0_4_73)">
<path d="M7.40027 0.584778H0V50.4056H15.137V43.9969H7.40027V0.584778Z" fill="black"/>
<path d="M27.1886 0.584778L20.394 50.4029H27.6624L28.7392 41.6251H34.1528L35.2134 50.4029H42.8021L35.9026 0.584778H27.1886ZM31.4339 17.5987C31.6223 20.0111 31.8215 22.2665 32.0584 24.8657L33.3802 35.7688H29.458L30.7878 24.8521C31.0489 22.1555 31.2535 19.9109 31.4339 17.5987Z" fill="black"/>
<path d="M56.0492 0.584778H48.6489V50.4056H56.0492V0.584778Z" fill="black"/>
<path d="M61.9858 6.99615H68.2824V50.4056H75.6827V6.99615H81.9819V0.584778H61.9858V6.99615Z" fill="black"/>
<path d="M100.664 20.6907H95.3309V0.584778H87.9307V50.4056H95.3309V26.9965H100.664V50.4056H108.029V0.584778H100.664V20.6907Z" fill="black"/>
<path d="M138.26 26.8313C138.093 28.6183 137.953 30.2319 137.829 31.8592C137.722 30.2347 137.595 28.6101 137.439 26.8286L134.903 0.584778H127.207L124.706 26.8313C124.544 28.5343 124.413 30.0803 124.299 31.6859C124.186 30.1588 124.049 28.5885 123.885 26.8286L121.314 0.584778H113.917L120.038 50.4029H128.197L130.389 26.9802C130.658 24.1482 130.854 21.836 131.027 19.5102C131.207 21.8712 131.409 24.1861 131.654 26.9802L133.808 50.4029H142.037L148.016 0.584778H140.828L138.26 26.8313Z" fill="black"/>
<path d="M156.784 0.584778L149.989 50.4029H157.258L158.318 41.6251H163.735L164.795 50.4029H172.395L165.495 0.584778H156.784ZM161.026 17.5987C161.215 20.0084 161.414 22.2638 161.648 24.863L162.975 35.7607H159.05L160.38 24.844C160.641 22.1555 160.846 19.9109 161.026 17.5987Z" fill="black"/>
<path d="M185.642 0.584778H178.242V50.4056H185.642V0.584778Z" fill="black"/>
<path d="M191.578 6.99615H197.874V50.4056H205.274V6.99615H211.574V0.584778H191.578V6.99615Z" fill="black"/>
<path d="M224.92 26.9613H232.382V20.864H224.92V6.99615H233.306V0.584778H217.52V50.4056H233.718V43.9969H224.92V26.9613Z" fill="black"/>
<path d="M253.781 25.0363L250.693 19.9678C247.84 15.4003 246.677 12.2054 246.677 8.93476C246.677 6.96099 247.431 5.95651 248.917 5.95651C250.292 5.95651 251.566 6.59277 251.566 11.2037V17.4309L258.565 16.0772V11.0033C258.565 3.69304 255.334 0 248.995 0C242.868 0 239.629 3.40063 239.629 9.82553C239.586 14.6205 241.444 18.6033 244.663 23.8477L247.711 28.992C250.812 34.1552 252.077 37.6939 252.077 41.2055C252.077 42.9383 251.63 44.996 249.498 44.996C248.001 44.996 246.402 44.5114 246.402 38.7146V32.0514L239.242 33.4323V38.8879C239.242 48.9056 244.763 50.9904 249.396 50.9904C255.765 50.9904 259.273 47.2324 259.273 40.4014C259.273 35.0378 257.17 30.5461 253.781 25.0363Z" fill="black"/>
</g>
<defs>
<clipPath id="clip0_4_73">
<rect width="259.273" height="50.9904" fill="white"/>
</clipPath>
</defs>
</svg>