<?xml version="1.0" encoding="utf-8"?>
<svg xmlns="http://www.w3.org/2000/svg" width="66" height="66" viewBox="0 0 66 66" fill="none">
<path fill-rule="evenodd" clip-rule="evenodd" d="M66 0H0V66H66V0ZM31.1887 42H30.3605C30.3145 42.023 30.2454 42.069 30.1074 42.1841C29.0031 42.4371 28.1979 43.3804 28.1058 44.5077C28.0369 45.635 28.704 46.6702 29.7623 47.0844C29.8083 47.0844 29.8544 47.1074 29.9003 47.1764C29.5863 47.1876 29.2778 47.2043 28.9668 47.2211C28.6396 47.2388 28.3098 47.2566 27.9678 47.2684C27.9425 48.1149 27.9172 48.9684 27.8921 49.8212L27.8298 51.9156H27.8068C27.7607 51.8006 27.7206 51.6856 27.6803 51.5706C27.64 51.4555 27.5997 51.3405 27.5537 51.2255C27.506 51.1096 27.4583 50.9957 27.4111 50.8833C27.2993 50.6162 27.1907 50.3572 27.0936 50.0982C26.7485 49.2699 26.0813 48.8098 25.2761 48.5337C24.632 48.3037 23.9418 48.3037 23.2745 48.3727C22.9886 48.3931 22.7208 48.4317 22.4388 48.4723L22.3313 48.4877C22.3083 48.0966 22.2853 47.7055 22.2623 47.2914L21.158 47.4294C20.5237 47.5102 19.8835 47.5909 19.2434 47.6717C18.6067 47.752 17.97 47.8323 17.339 47.9126C17.132 47.9356 16.9479 47.9586 16.7408 47.9816C16.6257 48.0046 16.5798 48.0506 16.5798 48.1656C16.5563 48.7205 16.5266 49.2693 16.4971 49.8151C16.469 50.333 16.4412 50.8483 16.4187 51.3635C16.3751 52.4749 16.3109 53.5656 16.2457 54.6749L16.2347 54.8604V54.9985C15.2694 54.918 14.3098 54.8376 13.3502 54.7571C12.3888 54.6765 11.4274 54.5959 10.4601 54.5153C10.4481 54.2762 10.4299 54.0371 10.412 53.8012C10.3955 53.5832 10.3792 53.3679 10.3682 53.158C10.2761 51.9156 10.1841 50.6963 10.092 49.477C10.092 49.339 10.1381 49.2929 10.2531 49.2469C11.2423 48.8673 12.2258 48.482 13.2094 48.0966C14.1929 47.7112 15.1764 47.3259 16.1656 46.9463C16.3037 46.9003 16.3267 46.8543 16.3037 46.7163C16.0736 45.5429 15.3374 44.8068 14.2332 44.4617C12.5537 43.9325 10.8512 43.7945 9.12573 44.1856C7.23926 44.5997 6.02002 45.773 5.3988 47.5905C4.98474 48.7868 4.80066 50.0291 4.70862 51.2715C4.69702 51.2945 4.69128 51.3234 4.68555 51.3522C4.67981 51.3809 4.67407 51.4096 4.6626 51.4325V53.7561C4.68555 53.9172 4.70862 54.1012 4.73157 54.2853C4.80066 55.3896 5.05371 56.4478 5.62891 57.4141C6.20398 58.3574 6.96326 59.0245 7.99854 59.4156C9.17175 59.8298 10.3682 60.1288 11.6105 60.1058C12.3696 60.1058 13.1058 59.9908 13.842 59.7147C14.5552 59.4386 15.1074 59.0015 15.4755 58.3113C15.6595 57.9663 15.8206 57.6212 15.9816 57.2761C16.0046 57.2071 16.0276 57.161 16.0967 57.115C16.0967 57.2186 16.0909 57.3278 16.0852 57.4371C16.0793 57.5464 16.0736 57.6557 16.0736 57.7592L15.8666 61.6242C15.8666 61.9693 15.8436 62.3144 15.8206 62.6595H16.1656C16.2808 62.648 16.4015 62.6308 16.5222 62.6135C16.6431 62.5962 16.7639 62.579 16.8789 62.5675C17.5685 62.4985 18.2523 62.4296 18.9362 62.3606C19.6212 62.2915 20.3062 62.2224 20.9969 62.1534C21.249 62.1315 21.496 62.1043 21.7451 62.0769C22.0188 62.0468 22.2953 62.0164 22.5844 61.9923C22.5392 60.6374 22.4885 59.2824 22.4377 57.9247C22.385 56.5161 22.3322 55.1046 22.2853 53.6871C24.1488 53.319 25.9893 52.9509 27.8528 52.5598C27.8068 53.9402 27.7666 55.3148 27.7263 56.6894C27.686 58.064 27.6458 59.4387 27.5997 60.819C29.9233 60.635 32.2009 60.4739 34.5016 60.3129V58.3804H34.5936C35.6289 58.7485 36.6642 58.8175 37.7455 58.7715C39.0568 58.7024 40.3451 58.5414 41.6105 58.1963C41.8406 58.1273 42.0476 58.0353 42.2316 57.9202C43.1749 57.3221 43.9801 56.5629 44.5322 55.5506L44.5077 55.9331C44.4009 57.6002 44.2939 59.2687 44.1871 60.9571L44.2234 60.9589C46.512 61.0733 48.8005 61.1877 51.1119 61.3021V59.0936C51.9172 59.2316 52.6995 59.3696 53.4586 59.5307C54.4939 59.7607 55.5061 59.9218 56.5645 59.8528C57.2086 59.8067 57.8528 59.7147 58.474 59.5997C58.7271 59.5537 59.0031 59.4156 59.2332 59.2776C59.9233 58.9095 60.5446 58.4034 61.0736 57.8282C61.8789 56.931 62.178 55.8957 62.0168 54.6994C61.8098 52.9969 60.9126 51.7316 59.6703 50.6733C59.3252 50.3972 58.911 50.1902 58.4969 49.9831C58.1519 49.8106 57.8068 49.6438 57.4617 49.477C57.1166 49.3102 56.7715 49.1434 56.4264 48.9709C56.3574 48.9479 56.3114 48.9248 56.2423 48.8788C56.2883 48.8558 56.3114 48.8328 56.3344 48.8328C57.4156 48.7178 58.4969 48.6258 59.5782 48.5337C59.6703 48.5337 59.7853 48.4647 59.8313 48.3957C60.3925 47.6902 60.9425 46.9736 61.4891 46.2613C61.7268 45.9516 61.9639 45.6427 62.2009 45.3359V45.3129C61.6488 45.0828 61.0967 44.8528 60.5215 44.6687C59.2561 44.2546 57.9908 44.0706 56.6794 44.1856C55.3451 44.3236 54.1488 44.8298 53.1825 45.773C52.6534 46.3252 52.3313 47.0383 52.2393 47.8206C52.1703 48.4647 52.1472 49.1089 52.2623 49.7531C52.3313 50.1902 52.5614 50.6273 52.7684 51.0184C53.1825 51.8006 53.7806 52.3988 54.5859 52.8129C54.9077 52.9853 55.2238 53.1634 55.5398 53.3415C55.8564 53.52 56.173 53.6985 56.4955 53.8712C56.5211 53.884 56.5396 53.8968 56.5629 53.9136C56.5813 53.927 56.6029 53.9428 56.6334 53.9632C56.5728 53.9632 56.5121 53.9696 56.4547 53.9757C56.4034 53.9811 56.3549 53.9862 56.3114 53.9862C55.4371 54.0322 54.5859 54.0782 53.7117 54.1242C53.5967 54.1242 53.5276 54.1702 53.4816 54.2623C53.125 54.8604 52.7627 55.4528 52.4004 56.0452C52.0381 56.6377 51.6757 57.2301 51.3191 57.8282C51.296 57.8742 51.25 57.9202 51.2271 57.9663C51.204 57.9432 51.204 57.9433 51.181 57.9433V57.5291C51.181 57.115 51.1868 56.7009 51.1925 56.2868C51.1982 55.8727 51.204 55.4586 51.204 55.0445C51.2156 54.3409 51.2213 53.6316 51.2271 52.9223C51.2328 52.2168 51.2385 51.5112 51.25 50.8114C51.2616 50.4164 51.2673 50.0156 51.2732 49.6119C51.2789 49.2161 51.2847 48.8174 51.296 48.4187C51.296 48.2807 51.25 48.2577 51.135 48.2577L49.3405 48.1196C49.3175 48.1196 49.2946 48.1196 49.2485 48.0966C50.2147 47.6365 50.8129 46.9003 50.9049 45.819C50.974 45.0598 50.7208 44.4156 50.1918 43.8635C49.1794 42.8052 47.4771 42.8052 46.4187 43.8635C45.4985 44.7837 45.2684 46.8543 46.9939 47.9126C46.3497 47.8436 45.7056 47.7975 45.0383 47.7515L44.7623 52.0997C44.7393 52.1227 44.7393 52.1227 44.7163 52.1227C44.2561 51.0874 43.5659 50.2592 42.6458 49.592C41.7485 48.9248 40.7822 48.4187 39.724 48.0506C39.931 48.0276 40.1438 48.0046 40.3567 47.9816C40.5695 47.9586 40.7822 47.9356 40.9893 47.9126C41.4724 47.8436 41.9325 47.7975 42.3927 47.7515C42.4387 47.7515 42.5306 47.7055 42.5537 47.6595C42.9448 47.0383 43.3417 46.4172 43.7385 45.796C44.1354 45.1748 44.5322 44.5537 44.9233 43.9325C44.9233 43.9095 44.9463 43.8865 44.9463 43.8635C44.3021 43.5644 43.635 43.3574 42.9678 43.1733C41.2194 42.7132 39.5399 42.8512 37.8834 43.5414C36.5491 44.1166 35.6058 45.0598 35.2378 46.5092C34.9387 47.6365 35.0767 48.7638 35.6519 49.7531C36.158 50.6273 36.7792 51.4555 37.7455 51.9617C38.1873 52.1826 38.6166 52.4663 39.0426 52.7478C39.1934 52.8474 39.3436 52.9467 39.4939 53.0429V53.089C39.3329 53.112 39.1488 53.135 38.9647 53.135L38.8422 53.1424C38.1261 53.1859 37.4285 53.2282 36.7102 53.25C36.5721 53.25 36.5261 53.296 36.457 53.411C36.2585 53.7861 36.0624 54.1588 35.8669 54.5299C35.4512 55.3198 35.0392 56.1024 34.6166 56.885C34.5936 56.954 34.5476 57 34.4785 57.069C34.4325 53.6871 34.3635 50.2822 34.2946 46.8773C33.8866 46.8993 33.484 46.9161 33.0867 46.9327C32.6548 46.9506 32.2292 46.9684 31.8098 46.9923C31.9092 46.911 32.0193 46.8332 32.1302 46.7548C32.3018 46.6336 32.4753 46.5109 32.6151 46.3712C33.3282 45.658 33.5353 44.8067 33.2593 43.8405C32.9832 42.8972 32.3159 42.3221 31.3727 42.069C31.3381 42.0575 31.3094 42.046 31.2808 42.0345C31.252 42.023 31.2231 42.0115 31.1887 42Z" fill="#D9D9D9"/>
</svg>